<svg xmlns="http://www.w3.org/2000/svg" xmlns:xlink="http://www.w3.org/1999/xlink" width="4000" zoomAndPan="magnify" viewBox="0 0 3000 1499.999933" height="2000" preserveAspectRatio="xMidYMid meet" version="1.0"><defs><g/><clipPath id="fa8f91dbe4"><path d="M 1370 253 L 1878 253 L 1878 785 L 1370 785 Z M 1370 253 " clip-rule="nonzero"/></clipPath><clipPath id="b16146c401"><path d="M 1576.648438 117.207031 L 1972.222656 372.867188 L 1635.136719 894.417969 L 1239.566406 638.757812 Z M 1576.648438 117.207031 " clip-rule="nonzero"/></clipPath><clipPath id="b43754c76b"><path d="M 1576.648438 117.207031 L 1972.222656 372.867188 L 1635.136719 894.417969 L 1239.566406 638.757812 Z M 1576.648438 117.207031 " clip-rule="nonzero"/></clipPath><clipPath id="968aafee4f"><path d="M 1035 184 L 1733 184 L 1733 909 L 1035 909 Z M 1035 184 " clip-rule="nonzero"/></clipPath><clipPath id="10452bada1"><path d="M 1027.609375 432.867188 L 1437.351562 164.605469 L 1749.984375 642.117188 L 1340.238281 910.378906 Z M 1027.609375 432.867188 " clip-rule="nonzero"/></clipPath><clipPath id="9361bbda2d"><path d="M 78 45 L 513 45 L 513 607 L 78 607 Z M 78 45 " clip-rule="nonzero"/></clipPath><clipPath id="b175d6f52f"><path d="M -7.390625 248.867188 L 402.351562 -19.394531 L 714.984375 458.117188 L 305.238281 726.378906 Z M -7.390625 248.867188 " clip-rule="nonzero"/></clipPath><clipPath id="df0ab0c3e4"><path d="M 402.136719 -19.253906 L -7.605469 249.007812 L 305.023438 726.519531 L 714.769531 458.257812 Z M 402.136719 -19.253906 " clip-rule="nonzero"/></clipPath><clipPath id="e9b4ce5835"><rect x="0" width="698" y="0" height="725"/></clipPath><clipPath id="1f0ce451eb"><rect x="0" width="688" y="0" height="713"/></clipPath><clipPath id="60557dcec8"><rect x="0" width="823" y="0" height="713"/></clipPath></defs><g fill="#000000" fill-opacity="1"><g transform="translate(127.133962, 1044.808666)"><g><path d="M 1.078125 0.546875 C -0.00390625 0.546875 -0.8125 0.15625 -1.34375 -0.625 C -1.882812 -1.40625 -2.15625 -2.335938 -2.15625 -3.421875 C -2.039062 -5.222656 -1.679688 -6.300781 -1.078125 -6.65625 C -0.484375 -7.019531 0.234375 -7.203125 1.078125 -7.203125 C 1.921875 -7.203125 2.460938 -7.203125 2.703125 -7.203125 C 6.296875 -7.203125 8.929688 -8.128906 10.609375 -9.984375 C 12.296875 -11.847656 13.648438 -13.945312 14.671875 -16.28125 C 15.691406 -18.625 16.378906 -20.21875 16.734375 -21.0625 L 48.234375 -95.578125 C 48.953125 -97.378906 49.3125 -98.820312 49.3125 -99.90625 C 49.3125 -102.0625 48.472656 -103.617188 46.796875 -104.578125 C 45.117188 -105.535156 42.78125 -106.316406 39.78125 -106.921875 C 37.738281 -107.273438 36.476562 -107.632812 36 -108 C 35.519531 -108.363281 35.28125 -109.382812 35.28125 -111.0625 C 35.28125 -112.5 35.671875 -113.457031 36.453125 -113.9375 C 37.234375 -114.414062 38.460938 -114.65625 40.140625 -114.65625 C 46.140625 -114.65625 50.910156 -114.203125 54.453125 -113.296875 C 57.992188 -112.398438 61.082031 -110.601562 63.71875 -107.90625 C 66.363281 -105.207031 68.820312 -101.097656 71.09375 -95.578125 L 101.34375 -21.0625 C 103.144531 -16.5 104.882812 -13.078125 106.5625 -10.796875 C 108.238281 -8.515625 110.757812 -7.316406 114.125 -7.203125 L 115.203125 -7.203125 C 116.398438 -7.203125 117.238281 -6.988281 117.71875 -6.5625 C 118.195312 -6.144531 118.5 -5.097656 118.625 -3.421875 C 118.625 -2.335938 118.351562 -1.40625 117.8125 -0.625 C 117.269531 0.15625 116.457031 0.546875 115.375 0.546875 C 107.695312 0.179688 101.097656 0 95.578125 0 C 88.378906 0 80.941406 0.179688 73.265625 0.546875 C 72.179688 0.546875 71.367188 0.15625 70.828125 -0.625 C 70.285156 -1.40625 70.015625 -2.335938 70.015625 -3.421875 C 70.140625 -5.097656 70.441406 -6.144531 70.921875 -6.5625 C 71.398438 -6.988281 72.238281 -7.203125 73.4375 -7.203125 C 77.519531 -7.203125 80.398438 -7.59375 82.078125 -8.375 C 83.753906 -9.15625 84.59375 -10.5625 84.59375 -12.59375 C 84.59375 -14.15625 83.875 -16.976562 82.4375 -21.0625 L 76.3125 -36 L 31.859375 -36 C 28.859375 -28.5625 27.144531 -24.238281 26.71875 -23.03125 C 26.300781 -21.832031 26.09375 -21.175781 26.09375 -21.0625 C 24.65625 -16.5 23.9375 -13.554688 23.9375 -12.234375 C 23.9375 -10.203125 24.835938 -8.851562 26.640625 -8.1875 C 28.441406 -7.53125 31.863281 -7.203125 36.90625 -7.203125 L 37.984375 -7.203125 C 39.179688 -7.203125 40.019531 -6.988281 40.5 -6.5625 C 40.976562 -6.144531 41.28125 -5.097656 41.40625 -3.421875 C 41.40625 -2.335938 41.132812 -1.40625 40.59375 -0.625 C 40.050781 0.15625 39.238281 0.546875 38.15625 0.546875 C 30.476562 0.179688 23.941406 0 18.546875 0 C 14.703125 0 8.878906 0.179688 1.078125 0.546875 Z M 35.28125 -43.734375 L 73.078125 -43.734375 L 54.90625 -90 L 54.359375 -90 Z M 35.28125 -43.734375 "/></g></g></g><g fill="#000000" fill-opacity="1"><g transform="translate(290.93394, 1044.808666)"><g><path d="M 10.984375 0.546875 C 9.898438 0.546875 9.085938 0.15625 8.546875 -0.625 C 8.003906 -1.40625 7.734375 -2.335938 7.734375 -3.421875 C 7.859375 -5.222656 8.21875 -6.300781 8.8125 -6.65625 C 9.414062 -7.019531 10.554688 -7.203125 12.234375 -7.203125 C 15.710938 -7.203125 18.289062 -7.832031 19.96875 -9.09375 C 21.65625 -10.351562 22.707031 -11.910156 23.125 -13.765625 C 23.550781 -15.628906 23.820312 -18.0625 23.9375 -21.0625 L 23.9375 -92.515625 C 23.820312 -95.515625 23.550781 -97.941406 23.125 -99.796875 C 22.707031 -101.660156 21.65625 -103.222656 19.96875 -104.484375 C 18.289062 -105.742188 15.710938 -106.375 12.234375 -106.375 L 11.15625 -106.375 C 9.957031 -106.375 9.117188 -106.582031 8.640625 -107 C 8.160156 -107.425781 7.859375 -108.476562 7.734375 -110.15625 C 7.734375 -111.238281 8.003906 -112.171875 8.546875 -112.953125 C 9.085938 -113.734375 9.898438 -114.125 10.984375 -114.125 C 18.785156 -113.757812 25.863281 -113.578125 32.21875 -113.578125 C 39.414062 -113.578125 46.914062 -113.757812 54.71875 -114.125 C 55.800781 -114.125 56.609375 -113.734375 57.140625 -112.953125 C 57.679688 -112.171875 57.953125 -111.238281 57.953125 -110.15625 C 57.835938 -108.351562 57.476562 -107.269531 56.875 -106.90625 C 56.28125 -106.550781 55.140625 -106.375 53.453125 -106.375 C 49.972656 -106.375 47.394531 -105.742188 45.71875 -104.484375 C 44.039062 -103.222656 42.988281 -101.660156 42.5625 -99.796875 C 42.144531 -97.941406 41.878906 -95.515625 41.765625 -92.515625 L 41.765625 -60.65625 L 98.28125 -60.65625 L 98.28125 -92.515625 C 98.15625 -95.515625 97.882812 -97.941406 97.46875 -99.796875 C 97.050781 -101.660156 96 -103.222656 94.3125 -104.484375 C 92.632812 -105.742188 90.054688 -106.375 86.578125 -106.375 L 85.5 -106.375 C 84.300781 -106.375 83.429688 -106.582031 82.890625 -107 C 82.347656 -107.425781 82.019531 -108.476562 81.90625 -110.15625 C 81.90625 -111.238281 82.203125 -112.171875 82.796875 -112.953125 C 83.398438 -113.734375 84.179688 -114.125 85.140625 -114.125 C 92.941406 -113.757812 100.441406 -113.578125 107.640625 -113.578125 C 114.242188 -113.578125 121.382812 -113.757812 129.0625 -114.125 C 130.144531 -114.125 130.953125 -113.734375 131.484375 -112.953125 C 132.023438 -112.171875 132.296875 -111.238281 132.296875 -110.15625 C 132.179688 -108.351562 131.789062 -107.269531 131.125 -106.90625 C 130.46875 -106.550781 129.359375 -106.375 127.796875 -106.375 C 124.316406 -106.375 121.707031 -105.742188 119.96875 -104.484375 C 118.226562 -103.222656 117.144531 -101.660156 116.71875 -99.796875 C 116.300781 -97.941406 116.035156 -95.515625 115.921875 -92.515625 L 115.921875 -21.0625 C 116.035156 -18.0625 116.300781 -15.628906 116.71875 -13.765625 C 117.144531 -11.910156 118.226562 -10.351562 119.96875 -9.09375 C 121.707031 -7.832031 124.316406 -7.203125 127.796875 -7.203125 L 128.875 -7.203125 C 129.957031 -7.203125 130.769531 -6.988281 131.3125 -6.5625 C 131.851562 -6.144531 132.179688 -5.097656 132.296875 -3.421875 C 132.296875 -2.335938 132.023438 -1.40625 131.484375 -0.625 C 130.953125 0.15625 130.144531 0.546875 129.0625 0.546875 C 121.382812 0.179688 114.179688 0 107.453125 0 C 100.378906 0 92.941406 0.179688 85.140625 0.546875 C 84.179688 0.546875 83.398438 0.15625 82.796875 -0.625 C 82.203125 -1.40625 81.90625 -2.335938 81.90625 -3.421875 C 82.019531 -5.222656 82.40625 -6.300781 83.0625 -6.65625 C 83.726562 -7.019531 84.898438 -7.203125 86.578125 -7.203125 C 90.054688 -7.203125 92.632812 -7.832031 94.3125 -9.09375 C 96 -10.351562 97.050781 -11.910156 97.46875 -13.765625 C 97.882812 -15.628906 98.15625 -18.0625 98.28125 -21.0625 L 98.28125 -52.921875 L 41.765625 -52.921875 L 41.765625 -21.0625 C 41.878906 -18.0625 42.144531 -15.628906 42.5625 -13.765625 C 42.988281 -11.910156 44.039062 -10.351562 45.71875 -9.09375 C 47.394531 -7.832031 49.972656 -7.203125 53.453125 -7.203125 L 54.546875 -7.203125 C 55.742188 -7.203125 56.582031 -6.988281 57.0625 -6.5625 C 57.539062 -6.144531 57.835938 -5.097656 57.953125 -3.421875 C 57.953125 -2.335938 57.679688 -1.40625 57.140625 -0.625 C 56.609375 0.15625 55.800781 0.546875 54.71875 0.546875 C 47.039062 0.179688 39.601562 0 32.40625 0 C 25.925781 0 18.785156 0.179688 10.984375 0.546875 Z M 10.984375 0.546875 "/></g></g></g><g fill="#000000" fill-opacity="1"><g transform="translate(477.053924, 1044.808666)"><g><path d="M 1.078125 0.546875 C -0.00390625 0.546875 -0.8125 0.15625 -1.34375 -0.625 C -1.882812 -1.40625 -2.15625 -2.335938 -2.15625 -3.421875 C -2.039062 -5.222656 -1.679688 -6.300781 -1.078125 -6.65625 C -0.484375 -7.019531 0.234375 -7.203125 1.078125 -7.203125 C 1.921875 -7.203125 2.460938 -7.203125 2.703125 -7.203125 C 6.296875 -7.203125 8.929688 -8.128906 10.609375 -9.984375 C 12.296875 -11.847656 13.648438 -13.945312 14.671875 -16.28125 C 15.691406 -18.625 16.378906 -20.21875 16.734375 -21.0625 L 48.234375 -95.578125 C 48.953125 -97.378906 49.3125 -98.820312 49.3125 -99.90625 C 49.3125 -102.0625 48.472656 -103.617188 46.796875 -104.578125 C 45.117188 -105.535156 42.78125 -106.316406 39.78125 -106.921875 C 37.738281 -107.273438 36.476562 -107.632812 36 -108 C 35.519531 -108.363281 35.28125 -109.382812 35.28125 -111.0625 C 35.28125 -112.5 35.671875 -113.457031 36.453125 -113.9375 C 37.234375 -114.414062 38.460938 -114.65625 40.140625 -114.65625 C 46.140625 -114.65625 50.910156 -114.203125 54.453125 -113.296875 C 57.992188 -112.398438 61.082031 -110.601562 63.71875 -107.90625 C 66.363281 -105.207031 68.820312 -101.097656 71.09375 -95.578125 L 101.34375 -21.0625 C 103.144531 -16.5 104.882812 -13.078125 106.5625 -10.796875 C 108.238281 -8.515625 110.757812 -7.316406 114.125 -7.203125 L 115.203125 -7.203125 C 116.398438 -7.203125 117.238281 -6.988281 117.71875 -6.5625 C 118.195312 -6.144531 118.5 -5.097656 118.625 -3.421875 C 118.625 -2.335938 118.351562 -1.40625 117.8125 -0.625 C 117.269531 0.15625 116.457031 0.546875 115.375 0.546875 C 107.695312 0.179688 101.097656 0 95.578125 0 C 88.378906 0 80.941406 0.179688 73.265625 0.546875 C 72.179688 0.546875 71.367188 0.15625 70.828125 -0.625 C 70.285156 -1.40625 70.015625 -2.335938 70.015625 -3.421875 C 70.140625 -5.097656 70.441406 -6.144531 70.921875 -6.5625 C 71.398438 -6.988281 72.238281 -7.203125 73.4375 -7.203125 C 77.519531 -7.203125 80.398438 -7.59375 82.078125 -8.375 C 83.753906 -9.15625 84.59375 -10.5625 84.59375 -12.59375 C 84.59375 -14.15625 83.875 -16.976562 82.4375 -21.0625 L 76.3125 -36 L 31.859375 -36 C 28.859375 -28.5625 27.144531 -24.238281 26.71875 -23.03125 C 26.300781 -21.832031 26.09375 -21.175781 26.09375 -21.0625 C 24.65625 -16.5 23.9375 -13.554688 23.9375 -12.234375 C 23.9375 -10.203125 24.835938 -8.851562 26.640625 -8.1875 C 28.441406 -7.53125 31.863281 -7.203125 36.90625 -7.203125 L 37.984375 -7.203125 C 39.179688 -7.203125 40.019531 -6.988281 40.5 -6.5625 C 40.976562 -6.144531 41.28125 -5.097656 41.40625 -3.421875 C 41.40625 -2.335938 41.132812 -1.40625 40.59375 -0.625 C 40.050781 0.15625 39.238281 0.546875 38.15625 0.546875 C 30.476562 0.179688 23.941406 0 18.546875 0 C 14.703125 0 8.878906 0.179688 1.078125 0.546875 Z M 35.28125 -43.734375 L 73.078125 -43.734375 L 54.90625 -90 L 54.359375 -90 Z M 35.28125 -43.734375 "/></g></g></g><g fill="#000000" fill-opacity="1"><g transform="translate(640.85388, 1044.808666)"><g><path d="M 64.4375 3.59375 C 54.238281 3.59375 44.910156 1.164062 36.453125 -3.6875 C 27.992188 -8.550781 21.269531 -15.484375 16.28125 -24.484375 C 11.300781 -33.484375 8.8125 -43.984375 8.8125 -55.984375 C 8.8125 -68.097656 11.210938 -78.773438 16.015625 -88.015625 C 20.816406 -97.253906 27.65625 -104.425781 36.53125 -109.53125 C 45.414062 -114.632812 55.800781 -117.1875 67.6875 -117.1875 C 78 -117.1875 87.175781 -115.113281 95.21875 -110.96875 C 103.257812 -106.832031 107.28125 -100.441406 107.28125 -91.796875 C 107.394531 -86.398438 105.769531 -81.8125 102.40625 -78.03125 C 99.050781 -74.25 94.554688 -72.359375 88.921875 -72.359375 C 86.765625 -72.359375 84.9375 -72.75 83.4375 -73.53125 C 81.9375 -74.3125 80.820312 -75.238281 80.09375 -76.3125 C 79.375 -77.394531 79.078125 -78.238281 79.203125 -78.84375 C 79.203125 -79.082031 80.039062 -79.738281 81.71875 -80.8125 C 83.394531 -81.894531 84.894531 -83.394531 86.21875 -85.3125 C 87.539062 -87.238281 88.203125 -89.582031 88.203125 -92.34375 C 88.203125 -97.738281 86.367188 -102.023438 82.703125 -105.203125 C 79.046875 -108.390625 73.976562 -109.984375 67.5 -109.984375 C 60.175781 -109.984375 53.664062 -107.910156 47.96875 -103.765625 C 42.269531 -99.628906 37.828125 -93.570312 34.640625 -85.59375 C 31.460938 -77.613281 29.875 -68.101562 29.875 -57.0625 C 29.875 -47.457031 31.582031 -38.722656 35 -30.859375 C 38.425781 -23.003906 43.257812 -16.765625 49.5 -12.140625 C 55.738281 -7.523438 62.878906 -5.21875 70.921875 -5.21875 C 77.398438 -5.21875 82.945312 -6.566406 87.5625 -9.265625 C 92.1875 -11.960938 96.359375 -16.3125 100.078125 -22.3125 C 100.679688 -23.394531 101.519531 -23.9375 102.59375 -23.9375 C 103.5625 -23.9375 104.644531 -23.578125 105.84375 -22.859375 C 107.757812 -21.535156 108.71875 -20.21875 108.71875 -18.90625 C 108.71875 -18.175781 108.476562 -17.570312 108 -17.09375 C 103.4375 -11.332031 99.144531 -6.984375 95.125 -4.046875 C 91.101562 -1.109375 86.753906 0.894531 82.078125 1.96875 C 77.398438 3.050781 71.519531 3.59375 64.4375 3.59375 Z M 64.4375 3.59375 "/></g></g></g><g fill="#000000" fill-opacity="1"><g transform="translate(802.133896, 1044.808666)"><g><path d="M 32.21875 0.546875 C 31.132812 0.546875 30.320312 0.15625 29.78125 -0.625 C 29.25 -1.40625 28.984375 -2.335938 28.984375 -3.421875 C 29.097656 -5.222656 29.453125 -6.300781 30.046875 -6.65625 C 30.648438 -7.019531 31.796875 -7.203125 33.484375 -7.203125 C 36.960938 -7.203125 39.539062 -7.832031 41.21875 -9.09375 C 42.894531 -10.351562 43.941406 -11.910156 44.359375 -13.765625 C 44.785156 -15.628906 45.0625 -18.0625 45.1875 -21.0625 L 45.1875 -106.921875 L 32.765625 -106.921875 C 28.679688 -106.796875 25.53125 -105.921875 23.3125 -104.296875 C 21.09375 -102.679688 19.410156 -100.285156 18.265625 -97.109375 C 17.128906 -93.929688 16.140625 -89.398438 15.296875 -83.515625 C 15.179688 -82.554688 14.460938 -81.773438 13.140625 -81.171875 C 11.816406 -80.578125 10.4375 -80.28125 9 -80.28125 C 7.914062 -80.28125 6.925781 -80.609375 6.03125 -81.265625 C 5.132812 -81.929688 4.6875 -82.800781 4.6875 -83.875 L 5.21875 -109.265625 C 5.21875 -112.140625 6.835938 -113.578125 10.078125 -113.578125 L 98.09375 -113.578125 C 101.21875 -113.578125 102.78125 -112.140625 102.78125 -109.265625 L 103.5 -83.875 C 103.5 -82.800781 103.019531 -81.929688 102.0625 -81.265625 C 101.101562 -80.609375 100.082031 -80.28125 99 -80.28125 C 97.5625 -80.28125 96.210938 -80.578125 94.953125 -81.171875 C 93.691406 -81.773438 93 -82.554688 92.875 -83.515625 C 91.914062 -89.515625 90.894531 -94.070312 89.8125 -97.1875 C 88.738281 -100.3125 87.0625 -102.679688 84.78125 -104.296875 C 82.5 -105.921875 79.316406 -106.796875 75.234375 -106.921875 L 63 -106.921875 L 63 -21.0625 C 63.125 -18.0625 63.394531 -15.628906 63.8125 -13.765625 C 64.226562 -11.910156 65.273438 -10.351562 66.953125 -9.09375 C 68.640625 -7.832031 71.222656 -7.203125 74.703125 -7.203125 L 75.78125 -7.203125 C 76.863281 -7.203125 77.671875 -6.988281 78.203125 -6.5625 C 78.742188 -6.144531 79.078125 -5.097656 79.203125 -3.421875 C 79.203125 -2.335938 78.929688 -1.40625 78.390625 -0.625 C 77.847656 0.15625 77.035156 0.546875 75.953125 0.546875 C 68.273438 0.179688 61.195312 0 54.71875 0 C 47.519531 0 40.019531 0.179688 32.21875 0.546875 Z M 32.21875 0.546875 "/></g></g></g><g fill="#000000" fill-opacity="1"><g transform="translate(956.393831, 1044.808666)"><g><path d="M 1.078125 0.546875 C -0.00390625 0.546875 -0.8125 0.15625 -1.34375 -0.625 C -1.882812 -1.40625 -2.15625 -2.335938 -2.15625 -3.421875 C -2.039062 -5.222656 -1.679688 -6.300781 -1.078125 -6.65625 C -0.484375 -7.019531 0.234375 -7.203125 1.078125 -7.203125 C 1.921875 -7.203125 2.460938 -7.203125 2.703125 -7.203125 C 6.296875 -7.203125 8.929688 -8.128906 10.609375 -9.984375 C 12.296875 -11.847656 13.648438 -13.945312 14.671875 -16.28125 C 15.691406 -18.625 16.378906 -20.21875 16.734375 -21.0625 L 48.234375 -95.578125 C 48.953125 -97.378906 49.3125 -98.820312 49.3125 -99.90625 C 49.3125 -102.0625 48.472656 -103.617188 46.796875 -104.578125 C 45.117188 -105.535156 42.78125 -106.316406 39.78125 -106.921875 C 37.738281 -107.273438 36.476562 -107.632812 36 -108 C 35.519531 -108.363281 35.28125 -109.382812 35.28125 -111.0625 C 35.28125 -112.5 35.671875 -113.457031 36.453125 -113.9375 C 37.234375 -114.414062 38.460938 -114.65625 40.140625 -114.65625 C 46.140625 -114.65625 50.910156 -114.203125 54.453125 -113.296875 C 57.992188 -112.398438 61.082031 -110.601562 63.71875 -107.90625 C 66.363281 -105.207031 68.820312 -101.097656 71.09375 -95.578125 L 101.34375 -21.0625 C 103.144531 -16.5 104.882812 -13.078125 106.5625 -10.796875 C 108.238281 -8.515625 110.757812 -7.316406 114.125 -7.203125 L 115.203125 -7.203125 C 116.398438 -7.203125 117.238281 -6.988281 117.71875 -6.5625 C 118.195312 -6.144531 118.5 -5.097656 118.625 -3.421875 C 118.625 -2.335938 118.351562 -1.40625 117.8125 -0.625 C 117.269531 0.15625 116.457031 0.546875 115.375 0.546875 C 107.695312 0.179688 101.097656 0 95.578125 0 C 88.378906 0 80.941406 0.179688 73.265625 0.546875 C 72.179688 0.546875 71.367188 0.15625 70.828125 -0.625 C 70.285156 -1.40625 70.015625 -2.335938 70.015625 -3.421875 C 70.140625 -5.097656 70.441406 -6.144531 70.921875 -6.5625 C 71.398438 -6.988281 72.238281 -7.203125 73.4375 -7.203125 C 77.519531 -7.203125 80.398438 -7.59375 82.078125 -8.375 C 83.753906 -9.15625 84.59375 -10.5625 84.59375 -12.59375 C 84.59375 -14.15625 83.875 -16.976562 82.4375 -21.0625 L 76.3125 -36 L 31.859375 -36 C 28.859375 -28.5625 27.144531 -24.238281 26.71875 -23.03125 C 26.300781 -21.832031 26.09375 -21.175781 26.09375 -21.0625 C 24.65625 -16.5 23.9375 -13.554688 23.9375 -12.234375 C 23.9375 -10.203125 24.835938 -8.851562 26.640625 -8.1875 C 28.441406 -7.53125 31.863281 -7.203125 36.90625 -7.203125 L 37.984375 -7.203125 C 39.179688 -7.203125 40.019531 -6.988281 40.5 -6.5625 C 40.976562 -6.144531 41.28125 -5.097656 41.40625 -3.421875 C 41.40625 -2.335938 41.132812 -1.40625 40.59375 -0.625 C 40.050781 0.15625 39.238281 0.546875 38.15625 0.546875 C 30.476562 0.179688 23.941406 0 18.546875 0 C 14.703125 0 8.878906 0.179688 1.078125 0.546875 Z M 35.28125 -43.734375 L 73.078125 -43.734375 L 54.90625 -90 L 54.359375 -90 Z M 35.28125 -43.734375 "/></g></g></g><g fill="#000000" fill-opacity="1"><g transform="translate(1120.193831, 1044.808666)"><g><path d="M 64.4375 3.59375 C 54.238281 3.59375 44.910156 1.164062 36.453125 -3.6875 C 27.992188 -8.550781 21.269531 -15.484375 16.28125 -24.484375 C 11.300781 -33.484375 8.8125 -43.984375 8.8125 -55.984375 C 8.8125 -68.097656 11.210938 -78.773438 16.015625 -88.015625 C 20.816406 -97.253906 27.65625 -104.425781 36.53125 -109.53125 C 45.414062 -114.632812 55.800781 -117.1875 67.6875 -117.1875 C 78 -117.1875 87.175781 -115.113281 95.21875 -110.96875 C 103.257812 -106.832031 107.28125 -100.441406 107.28125 -91.796875 C 107.394531 -86.398438 105.769531 -81.8125 102.40625 -78.03125 C 99.050781 -74.25 94.554688 -72.359375 88.921875 -72.359375 C 86.765625 -72.359375 84.9375 -72.75 83.4375 -73.53125 C 81.9375 -74.3125 80.820312 -75.238281 80.09375 -76.3125 C 79.375 -77.394531 79.078125 -78.238281 79.203125 -78.84375 C 79.203125 -79.082031 80.039062 -79.738281 81.71875 -80.8125 C 83.394531 -81.894531 84.894531 -83.394531 86.21875 -85.3125 C 87.539062 -87.238281 88.203125 -89.582031 88.203125 -92.34375 C 88.203125 -97.738281 86.367188 -102.023438 82.703125 -105.203125 C 79.046875 -108.390625 73.976562 -109.984375 67.5 -109.984375 C 60.175781 -109.984375 53.664062 -107.910156 47.96875 -103.765625 C 42.269531 -99.628906 37.828125 -93.570312 34.640625 -85.59375 C 31.460938 -77.613281 29.875 -68.101562 29.875 -57.0625 C 29.875 -47.457031 31.582031 -38.722656 35 -30.859375 C 38.425781 -23.003906 43.257812 -16.765625 49.5 -12.140625 C 55.738281 -7.523438 62.878906 -5.21875 70.921875 -5.21875 C 77.398438 -5.21875 82.945312 -6.566406 87.5625 -9.265625 C 92.1875 -11.960938 96.359375 -16.3125 100.078125 -22.3125 C 100.679688 -23.394531 101.519531 -23.9375 102.59375 -23.9375 C 103.5625 -23.9375 104.644531 -23.578125 105.84375 -22.859375 C 107.757812 -21.535156 108.71875 -20.21875 108.71875 -18.90625 C 108.71875 -18.175781 108.476562 -17.570312 108 -17.09375 C 103.4375 -11.332031 99.144531 -6.984375 95.125 -4.046875 C 91.101562 -1.109375 86.753906 0.894531 82.078125 1.96875 C 77.398438 3.050781 71.519531 3.59375 64.4375 3.59375 Z M 64.4375 3.59375 "/></g></g></g><g fill="#000000" fill-opacity="1"><g transform="translate(1281.473848, 1044.808666)"><g><path d="M 12.421875 0.546875 C 10.265625 0.421875 9.1875 -0.898438 9.1875 -3.421875 C 9.300781 -5.222656 9.65625 -6.300781 10.25 -6.65625 C 10.851562 -7.019531 12 -7.203125 13.6875 -7.203125 C 17.164062 -7.203125 19.742188 -7.832031 21.421875 -9.09375 C 23.097656 -10.351562 24.144531 -11.910156 24.5625 -13.765625 C 24.988281 -15.628906 25.257812 -18.0625 25.375 -21.0625 L 25.375 -92.515625 C 25.257812 -95.515625 24.988281 -97.941406 24.5625 -99.796875 C 24.144531 -101.660156 23.097656 -103.222656 21.421875 -104.484375 C 19.742188 -105.742188 17.164062 -106.375 13.6875 -106.375 L 12.59375 -106.375 C 11.394531 -106.375 10.554688 -106.582031 10.078125 -107 C 9.597656 -107.425781 9.300781 -108.476562 9.1875 -110.15625 C 9.1875 -111.238281 9.453125 -112.171875 9.984375 -112.953125 C 10.523438 -113.734375 11.335938 -114.125 12.421875 -114.125 C 20.097656 -113.757812 27.175781 -113.578125 33.65625 -113.578125 C 40.851562 -113.578125 48.351562 -113.757812 56.15625 -114.125 C 57.238281 -114.125 58.050781 -113.734375 58.59375 -112.953125 C 59.132812 -112.171875 59.40625 -111.238281 59.40625 -110.15625 C 59.28125 -108.351562 58.914062 -107.269531 58.3125 -106.90625 C 57.71875 -106.550781 56.582031 -106.375 54.90625 -106.375 C 51.425781 -106.375 48.84375 -105.742188 47.15625 -104.484375 C 45.476562 -103.222656 44.425781 -101.660156 44 -99.796875 C 43.582031 -97.941406 43.316406 -95.515625 43.203125 -92.515625 L 43.203125 -28.796875 L 94.859375 -93.953125 C 99.421875 -99.710938 103.019531 -103.910156 105.65625 -106.546875 C 108.300781 -109.191406 110.613281 -110.992188 112.59375 -111.953125 C 114.570312 -112.921875 116.878906 -113.523438 119.515625 -113.765625 C 122.398438 -114.003906 125.460938 -114.125 128.703125 -114.125 C 130.859375 -114.125 131.9375 -112.800781 131.9375 -110.15625 C 131.820312 -108.351562 131.460938 -107.269531 130.859375 -106.90625 C 130.253906 -106.550781 129.113281 -106.375 127.4375 -106.375 C 123.957031 -106.375 121.378906 -105.742188 119.703125 -104.484375 C 118.023438 -103.222656 116.972656 -101.660156 116.546875 -99.796875 C 116.128906 -97.941406 115.859375 -95.515625 115.734375 -92.515625 L 115.734375 -21.0625 C 115.859375 -18.0625 116.128906 -15.628906 116.546875 -13.765625 C 116.972656 -11.910156 118.023438 -10.351562 119.703125 -9.09375 C 121.378906 -7.832031 123.957031 -7.203125 127.4375 -7.203125 L 128.515625 -7.203125 C 129.710938 -7.203125 130.550781 -6.988281 131.03125 -6.5625 C 131.519531 -6.144531 131.820312 -5.097656 131.9375 -3.421875 C 131.9375 -2.335938 131.664062 -1.40625 131.125 -0.625 C 130.582031 0.15625 129.773438 0.546875 128.703125 0.546875 C 121.023438 0.179688 113.941406 0 107.453125 0 C 100.378906 0 92.941406 0.179688 85.140625 0.546875 C 84.054688 0.546875 83.242188 0.15625 82.703125 -0.625 C 82.171875 -1.40625 81.90625 -2.335938 81.90625 -3.421875 C 82.019531 -5.222656 82.40625 -6.300781 83.0625 -6.65625 C 83.726562 -7.019531 84.84375 -7.203125 86.40625 -7.203125 C 89.882812 -7.203125 92.460938 -7.832031 94.140625 -9.09375 C 95.816406 -10.351562 96.863281 -11.910156 97.28125 -13.765625 C 97.707031 -15.628906 97.976562 -18.0625 98.09375 -21.0625 L 98.09375 -84.59375 L 46.265625 -19.796875 C 41.703125 -14.160156 38.191406 -10.050781 35.734375 -7.46875 C 33.273438 -4.882812 31.113281 -3.023438 29.25 -1.890625 C 27.382812 -0.753906 25.253906 -0.0625 22.859375 0.1875 C 18.898438 0.539062 15.421875 0.660156 12.421875 0.546875 Z M 12.421875 0.546875 "/></g></g></g><g fill="#000000" fill-opacity="1"><g transform="translate(1468.853809, 1044.808666)"><g><path d="M 21.59375 1.796875 C 17.632812 1.796875 13.914062 0.867188 10.4375 -0.984375 C 6.957031 -2.847656 4.796875 -5.703125 3.953125 -9.546875 L 3.953125 -10.265625 C 3.953125 -11.222656 4.191406 -12.03125 4.671875 -12.6875 C 5.160156 -13.351562 5.820312 -13.6875 6.65625 -13.6875 C 7.257812 -13.6875 7.800781 -13.441406 8.28125 -12.953125 C 8.757812 -12.472656 9.359375 -11.753906 10.078125 -10.796875 C 11.160156 -9.359375 12.148438 -8.25 13.046875 -7.46875 C 13.953125 -6.6875 15.242188 -6.296875 16.921875 -6.296875 C 20.398438 -6.296875 23.398438 -7.828125 25.921875 -10.890625 C 28.441406 -13.953125 31.441406 -18.722656 34.921875 -25.203125 L 39.78125 -33.65625 C 42.65625 -38.457031 45.773438 -42.535156 49.140625 -45.890625 C 52.503906 -49.253906 56.40625 -51.773438 60.84375 -53.453125 L 60.84375 -54 C 50.882812 -54.238281 42.003906 -57.359375 34.203125 -63.359375 C 28.203125 -68.515625 25.203125 -75.113281 25.203125 -83.15625 C 25.203125 -94.4375 29.460938 -102.359375 37.984375 -106.921875 C 46.503906 -111.484375 55.863281 -113.765625 66.0625 -113.765625 L 69.84375 -113.578125 L 97.734375 -113.578125 C 104.453125 -113.578125 111.65625 -113.757812 119.34375 -114.125 C 120.414062 -114.125 121.222656 -113.734375 121.765625 -112.953125 C 122.304688 -112.171875 122.578125 -111.238281 122.578125 -110.15625 C 122.460938 -108.351562 122.070312 -107.269531 121.40625 -106.90625 C 120.75 -106.550781 119.582031 -106.375 117.90625 -106.375 C 114.425781 -106.375 111.84375 -105.742188 110.15625 -104.484375 C 108.476562 -103.222656 107.425781 -101.660156 107 -99.796875 C 106.582031 -97.941406 106.316406 -95.515625 106.203125 -92.515625 L 106.203125 -21.0625 C 106.316406 -18.0625 106.582031 -15.628906 107 -13.765625 C 107.425781 -11.910156 108.476562 -10.351562 110.15625 -9.09375 C 111.84375 -7.832031 114.425781 -7.203125 117.90625 -7.203125 L 118.984375 -7.203125 C 120.179688 -7.203125 121.050781 -6.988281 121.59375 -6.5625 C 122.132812 -6.144531 122.460938 -5.097656 122.578125 -3.421875 C 122.578125 -2.335938 122.304688 -1.40625 121.765625 -0.625 C 121.222656 0.15625 120.414062 0.546875 119.34375 0.546875 C 111.65625 0.179688 104.515625 0 97.921875 0 C 90.722656 0 83.222656 0.179688 75.421875 0.546875 C 74.335938 0.546875 73.523438 0.15625 72.984375 -0.625 C 72.453125 -1.40625 72.1875 -2.335938 72.1875 -3.421875 C 72.300781 -5.222656 72.6875 -6.300781 73.34375 -6.65625 C 74.007812 -7.019531 75.125 -7.203125 76.6875 -7.203125 C 80.164062 -7.203125 82.742188 -7.832031 84.421875 -9.09375 C 86.097656 -10.351562 87.175781 -11.878906 87.65625 -13.671875 C 88.132812 -15.472656 88.4375 -17.9375 88.5625 -21.0625 L 88.5625 -51.296875 L 84.234375 -51.296875 C 79.679688 -51.296875 75.8125 -50.273438 72.625 -48.234375 C 69.445312 -46.203125 66.804688 -43.625 64.703125 -40.5 C 62.609375 -37.375 60.300781 -33.296875 57.78125 -28.265625 C 54.414062 -21.546875 51.503906 -16.234375 49.046875 -12.328125 C 46.585938 -8.429688 43.109375 -5.101562 38.609375 -2.34375 C 34.109375 0.414062 28.4375 1.796875 21.59375 1.796875 Z M 88.5625 -57.953125 L 88.5625 -92.515625 C 88.5625 -96.835938 88.203125 -99.957031 87.484375 -101.875 C 86.765625 -103.800781 85.503906 -105.03125 83.703125 -105.5625 C 81.898438 -106.101562 79.140625 -106.375 75.421875 -106.375 C 65.816406 -106.375 58.40625 -104.242188 53.1875 -99.984375 C 47.96875 -95.722656 45.359375 -89.695312 45.359375 -81.90625 C 45.359375 -71.695312 48.804688 -65.148438 55.703125 -62.265625 C 62.609375 -59.390625 70.5 -57.953125 79.375 -57.953125 Z M 88.5625 -57.953125 "/></g></g></g><g fill="#000000" fill-opacity="1"><g transform="translate(1646.873786, 1044.808666)"><g/></g></g><g fill="#000000" fill-opacity="1"><g transform="translate(1733.273833, 1044.808666)"><g><path d="M 70.015625 3.59375 C 59.941406 3.59375 50.613281 1.851562 42.03125 -1.625 C 33.445312 -5.101562 26.515625 -10.410156 21.234375 -17.546875 C 15.953125 -24.691406 13.3125 -33.601562 13.3125 -44.28125 C 13.3125 -53.15625 15.890625 -60.863281 21.046875 -67.40625 C 26.210938 -73.945312 33.535156 -78 43.015625 -79.5625 L 43.015625 -80.09375 C 35.460938 -85.738281 31.6875 -92.757812 31.6875 -101.15625 C 31.6875 -109.082031 34.5625 -115.441406 40.3125 -120.234375 C 46.070312 -125.035156 53.992188 -127.4375 64.078125 -127.4375 C 71.273438 -127.4375 77.332031 -125.847656 82.25 -122.671875 C 87.175781 -119.492188 89.640625 -114.84375 89.640625 -108.71875 C 89.640625 -104.875 88.53125 -101.570312 86.3125 -98.8125 C 84.09375 -96.0625 81.125 -94.6875 77.40625 -94.6875 C 75.125 -94.6875 73.171875 -95.285156 71.546875 -96.484375 C 69.929688 -97.679688 69.125 -98.703125 69.125 -99.546875 C 69.125 -99.660156 69.660156 -100.195312 70.734375 -101.15625 C 71.816406 -102.113281 72.804688 -103.28125 73.703125 -104.65625 C 74.609375 -106.039062 75.0625 -107.632812 75.0625 -109.4375 C 75.0625 -112.914062 73.832031 -115.703125 71.375 -117.796875 C 68.914062 -119.898438 65.820312 -120.953125 62.09375 -120.953125 C 56.332031 -120.953125 51.863281 -119.210938 48.6875 -115.734375 C 45.507812 -112.253906 43.921875 -107.9375 43.921875 -102.78125 C 43.921875 -94.019531 47.582031 -87.660156 54.90625 -83.703125 L 60.84375 -83.703125 C 62.757812 -83.703125 64.046875 -83.488281 64.703125 -83.0625 C 65.367188 -82.644531 65.757812 -81.414062 65.875 -79.375 C 65.875 -78.175781 65.570312 -77.15625 64.96875 -76.3125 C 64.375 -75.476562 63.535156 -75.0625 62.453125 -75.0625 L 56.15625 -75.0625 C 48.351562 -74.34375 42.441406 -71.28125 38.421875 -65.875 C 34.410156 -60.476562 32.40625 -54.238281 32.40625 -47.15625 C 32.40625 -39.476562 34.203125 -32.757812 37.796875 -27 C 41.398438 -21.238281 46.410156 -16.796875 52.828125 -13.671875 C 59.242188 -10.554688 66.535156 -9 74.703125 -9 C 83.460938 -9 91.5 -10.828125 98.8125 -14.484375 C 106.132812 -18.148438 111.957031 -23.191406 116.28125 -29.609375 C 120.601562 -36.023438 122.765625 -43.253906 122.765625 -51.296875 C 122.765625 -58.253906 120.84375 -64.3125 117 -69.46875 C 113.15625 -74.632812 107.875 -77.21875 101.15625 -77.21875 C 97.675781 -77.21875 94.285156 -76.226562 90.984375 -74.25 C 87.691406 -72.269531 86.046875 -69.476562 86.046875 -65.875 C 86.046875 -63.957031 86.550781 -62.304688 87.5625 -60.921875 C 88.582031 -59.546875 90.113281 -58.675781 92.15625 -58.3125 C 95.28125 -57.957031 97.800781 -58.554688 99.71875 -60.109375 C 101.632812 -61.671875 102.710938 -62.515625 102.953125 -62.640625 C 103.554688 -62.515625 104.304688 -61.703125 105.203125 -60.203125 C 106.109375 -58.703125 106.5625 -56.992188 106.5625 -55.078125 C 106.5625 -51.484375 105.332031 -48.664062 102.875 -46.625 C 100.414062 -44.582031 97.382812 -43.5625 93.78125 -43.5625 C 89.21875 -43.5625 85.554688 -45.390625 82.796875 -49.046875 C 80.035156 -52.710938 78.65625 -57.425781 78.65625 -63.1875 C 78.65625 -71.820312 80.9375 -78.414062 85.5 -82.96875 C 90.0625 -87.53125 95.460938 -90.625 101.703125 -92.25 C 107.941406 -93.875 116.039062 -95.285156 126 -96.484375 C 134.757812 -97.316406 141.179688 -98.394531 145.265625 -99.71875 C 147.898438 -100.675781 150.085938 -102.023438 151.828125 -103.765625 C 153.566406 -105.503906 154.4375 -107.457031 154.4375 -109.625 C 154.4375 -113.21875 152.21875 -115.316406 147.78125 -115.921875 C 144.65625 -116.273438 142.132812 -115.671875 140.21875 -114.109375 C 138.300781 -112.554688 137.222656 -111.71875 136.984375 -111.59375 C 136.265625 -111.71875 135.421875 -112.679688 134.453125 -114.484375 C 133.492188 -116.285156 133.195312 -118.320312 133.5625 -120.59375 C 134.039062 -123.957031 135.476562 -126.476562 137.875 -128.15625 C 140.28125 -129.84375 143.101562 -130.6875 146.34375 -130.6875 C 148.976562 -130.6875 151.195312 -130.265625 153 -129.421875 C 155.875 -128.097656 157.972656 -125.992188 159.296875 -123.109375 C 160.617188 -120.234375 161.28125 -117.054688 161.28125 -113.578125 C 161.28125 -107.097656 159.207031 -101.425781 155.0625 -96.5625 C 150.925781 -91.707031 145.378906 -87.988281 138.421875 -85.40625 C 131.460938 -82.832031 123.78125 -81.546875 115.375 -81.546875 C 125.695312 -72.785156 130.859375 -62.644531 130.859375 -51.125 C 130.859375 -40.082031 128.1875 -30.421875 122.84375 -22.140625 C 117.507812 -13.859375 110.222656 -7.5 100.984375 -3.0625 C 91.742188 1.375 81.421875 3.59375 70.015625 3.59375 Z M 70.015625 3.59375 "/></g></g></g><g fill="#000000" fill-opacity="1"><g transform="translate(1942.973703, 1044.808666)"><g/></g></g><g fill="#000000" fill-opacity="1"><g transform="translate(2029.373842, 1044.808666)"><g><path d="M 10.796875 0.546875 C 9.835938 0.546875 9.054688 0.15625 8.453125 -0.625 C 7.859375 -1.40625 7.5625 -2.335938 7.5625 -3.421875 C 7.675781 -5.222656 8.0625 -6.300781 8.71875 -6.65625 C 9.382812 -7.019531 10.554688 -7.203125 12.234375 -7.203125 C 15.710938 -7.203125 18.289062 -7.832031 19.96875 -9.09375 C 21.65625 -10.351562 22.707031 -11.910156 23.125 -13.765625 C 23.550781 -15.628906 23.820312 -18.0625 23.9375 -21.0625 L 23.9375 -92.515625 C 23.820312 -95.515625 23.550781 -97.941406 23.125 -99.796875 C 22.707031 -101.660156 21.65625 -103.222656 19.96875 -104.484375 C 18.289062 -105.742188 15.710938 -106.375 12.234375 -106.375 L 11.15625 -106.375 C 9.957031 -106.375 9.085938 -106.582031 8.546875 -107 C 8.003906 -107.425781 7.675781 -108.476562 7.5625 -110.15625 C 7.5625 -111.238281 7.859375 -112.171875 8.453125 -112.953125 C 9.054688 -113.734375 9.835938 -114.125 10.796875 -114.125 C 18.597656 -113.757812 25.800781 -113.578125 32.40625 -113.578125 L 59.40625 -113.578125 C 69.84375 -113.578125 79.953125 -111.414062 89.734375 -107.09375 C 99.515625 -102.78125 104.40625 -94.144531 104.40625 -81.1875 C 104.40625 -73.976562 102.242188 -67.550781 97.921875 -61.90625 C 93.597656 -56.269531 87.984375 -51.890625 81.078125 -48.765625 C 74.179688 -45.648438 67.015625 -44.09375 59.578125 -44.09375 C 52.734375 -44.09375 46.734375 -45.054688 41.578125 -46.984375 L 41.578125 -21.0625 C 41.703125 -18.0625 41.972656 -15.628906 42.390625 -13.765625 C 42.804688 -11.910156 43.851562 -10.351562 45.53125 -9.09375 C 47.21875 -7.832031 49.800781 -7.203125 53.28125 -7.203125 L 54.359375 -7.203125 C 55.554688 -7.203125 56.425781 -6.988281 56.96875 -6.5625 C 57.507812 -6.144531 57.835938 -5.097656 57.953125 -3.421875 C 57.953125 -2.335938 57.679688 -1.40625 57.140625 -0.625 C 56.609375 0.15625 55.800781 0.546875 54.71875 0.546875 C 47.039062 0.179688 39.539062 0 32.21875 0 C 25.738281 0 18.597656 0.179688 10.796875 0.546875 Z M 54.359375 -52.203125 C 58.679688 -52.203125 63.148438 -53.070312 67.765625 -54.8125 C 72.390625 -56.550781 76.320312 -59.550781 79.5625 -63.8125 C 82.800781 -68.070312 84.421875 -73.679688 84.421875 -80.640625 C 84.421875 -91.203125 81.0625 -98.222656 74.34375 -101.703125 C 67.625 -105.179688 60.484375 -106.921875 52.921875 -106.921875 C 49.796875 -106.921875 47.453125 -106.585938 45.890625 -105.921875 C 44.335938 -105.265625 43.226562 -103.976562 42.5625 -102.0625 C 41.90625 -100.144531 41.578125 -97.144531 41.578125 -93.0625 L 41.578125 -54.1875 C 44.460938 -52.863281 48.722656 -52.203125 54.359375 -52.203125 Z M 54.359375 -52.203125 "/></g></g></g><g fill="#000000" fill-opacity="1"><g transform="translate(2184.353746, 1044.808666)"><g><path d="M 65.875 3.59375 C 54.476562 3.59375 44.429688 0.863281 35.734375 -4.59375 C 27.035156 -10.050781 20.3125 -17.28125 15.5625 -26.28125 C 10.820312 -35.28125 8.453125 -44.941406 8.453125 -55.265625 C 8.453125 -67.859375 11.300781 -78.832031 17 -88.1875 C 22.707031 -97.550781 30 -104.722656 38.875 -109.703125 C 47.757812 -114.691406 56.757812 -117.1875 65.875 -117.1875 C 77.394531 -117.1875 87.566406 -114.453125 96.390625 -108.984375 C 105.210938 -103.523438 111.992188 -96.328125 116.734375 -87.390625 C 121.472656 -78.453125 123.84375 -68.820312 123.84375 -58.5 C 123.84375 -45.894531 120.960938 -34.882812 115.203125 -25.46875 C 109.441406 -16.050781 102.0625 -8.851562 93.0625 -3.875 C 84.0625 1.101562 75 3.59375 65.875 3.59375 Z M 65.703125 -4.3125 C 73.859375 -4.3125 80.664062 -6.742188 86.125 -11.609375 C 91.582031 -16.472656 95.660156 -23.015625 98.359375 -31.234375 C 101.066406 -39.453125 102.421875 -48.539062 102.421875 -58.5 C 102.421875 -67.738281 101.039062 -76.226562 98.28125 -83.96875 C 95.519531 -91.707031 91.378906 -97.882812 85.859375 -102.5 C 80.335938 -107.125 73.617188 -109.4375 65.703125 -109.4375 C 53.703125 -109.4375 44.671875 -104.363281 38.609375 -94.21875 C 32.546875 -84.082031 29.515625 -71.273438 29.515625 -55.796875 C 29.515625 -46.441406 30.863281 -37.863281 33.5625 -30.0625 C 36.269531 -22.257812 40.320312 -16.015625 45.71875 -11.328125 C 51.113281 -6.648438 57.773438 -4.3125 65.703125 -4.3125 Z M 65.703125 -4.3125 "/></g></g></g><g fill="#000000" fill-opacity="1"><g transform="translate(2362.91379, 1044.808666)"><g><path d="M 77.046875 0.90625 C 75.242188 0.90625 73.984375 0.300781 73.265625 -0.90625 L 32.765625 -92.515625 L 32.21875 -92.515625 L 32.578125 -21.0625 C 32.703125 -17.820312 32.941406 -15.332031 33.296875 -13.59375 C 33.660156 -11.851562 34.648438 -10.351562 36.265625 -9.09375 C 37.890625 -7.832031 40.441406 -7.203125 43.921875 -7.203125 L 45 -7.203125 C 46.195312 -7.203125 47.066406 -6.988281 47.609375 -6.5625 C 48.148438 -6.144531 48.476562 -5.097656 48.59375 -3.421875 C 48.59375 -2.335938 48.320312 -1.40625 47.78125 -0.625 C 47.25 0.15625 46.441406 0.546875 45.359375 0.546875 L 40.859375 0.359375 C 35.335938 0.117188 31.378906 0 28.984375 0 C 24.898438 0 18.957031 0.179688 11.15625 0.546875 C 10.082031 0.546875 9.273438 0.15625 8.734375 -0.625 C 8.191406 -1.40625 7.921875 -2.335938 7.921875 -3.421875 C 8.035156 -5.222656 8.394531 -6.300781 9 -6.65625 C 9.601562 -7.019531 10.742188 -7.203125 12.421875 -7.203125 C 15.898438 -7.203125 18.445312 -7.832031 20.0625 -9.09375 C 21.6875 -10.351562 22.675781 -11.851562 23.03125 -13.59375 C 23.394531 -15.332031 23.640625 -17.820312 23.765625 -21.0625 L 24.125 -92.515625 C 24.125 -96.234375 23.703125 -99.023438 22.859375 -100.890625 C 22.015625 -102.753906 20.78125 -104.070312 19.15625 -104.84375 C 17.539062 -105.625 15.175781 -106.316406 12.0625 -106.921875 C 11.582031 -107.035156 10.859375 -107.179688 9.890625 -107.359375 C 8.929688 -107.546875 8.300781 -107.910156 8 -108.453125 C 7.707031 -108.992188 7.5625 -109.863281 7.5625 -111.0625 C 7.5625 -112.5 7.953125 -113.457031 8.734375 -113.9375 C 9.515625 -114.414062 10.742188 -114.65625 12.421875 -114.65625 C 19.503906 -114.65625 25.320312 -114.203125 29.875 -113.296875 C 34.4375 -112.398438 38.425781 -110.570312 41.84375 -107.8125 C 45.269531 -105.0625 48.125 -100.984375 50.40625 -95.578125 L 81.359375 -26.09375 L 81.90625 -26.09375 L 117.359375 -113.578125 L 127.625 -113.578125 C 134.21875 -113.578125 141.359375 -113.757812 149.046875 -114.125 C 150.117188 -114.125 150.925781 -113.734375 151.46875 -112.953125 C 152.007812 -112.171875 152.28125 -111.238281 152.28125 -110.15625 C 152.15625 -108.351562 151.765625 -107.269531 151.109375 -106.90625 C 150.453125 -106.550781 149.34375 -106.375 147.78125 -106.375 C 144.300781 -106.375 141.71875 -105.742188 140.03125 -104.484375 C 138.351562 -103.222656 137.304688 -101.660156 136.890625 -99.796875 C 136.472656 -97.941406 136.203125 -95.515625 136.078125 -92.515625 L 136.078125 -21.0625 C 136.203125 -18.0625 136.472656 -15.628906 136.890625 -13.765625 C 137.304688 -11.910156 138.351562 -10.351562 140.03125 -9.09375 C 141.71875 -7.832031 144.300781 -7.203125 147.78125 -7.203125 L 148.859375 -7.203125 C 149.941406 -7.203125 150.75 -6.988281 151.28125 -6.5625 C 151.820312 -6.144531 152.15625 -5.097656 152.28125 -3.421875 C 152.28125 -2.335938 152.007812 -1.40625 151.46875 -0.625 C 150.925781 0.15625 150.117188 0.546875 149.046875 0.546875 C 141.359375 0.179688 134.15625 0 127.4375 0 C 120.476562 0 113.097656 0.179688 105.296875 0.546875 C 104.222656 0.546875 103.414062 0.15625 102.875 -0.625 C 102.332031 -1.40625 102.0625 -2.335938 102.0625 -3.421875 C 102.175781 -5.222656 102.535156 -6.300781 103.140625 -6.65625 C 103.742188 -7.019531 104.882812 -7.203125 106.5625 -7.203125 C 110.039062 -7.203125 112.617188 -7.832031 114.296875 -9.09375 C 115.972656 -10.351562 117.019531 -11.910156 117.4375 -13.765625 C 117.863281 -15.628906 118.140625 -18.0625 118.265625 -21.0625 L 118.265625 -92.515625 L 117.71875 -92.515625 L 80.640625 -0.90625 C 80.160156 0.300781 78.960938 0.90625 77.046875 0.90625 Z M 77.046875 0.90625 "/></g></g></g><g fill="#000000" fill-opacity="1"><g transform="translate(2569.193803, 1044.808666)"><g><path d="M 1.078125 0.546875 C -0.00390625 0.546875 -0.8125 0.15625 -1.34375 -0.625 C -1.882812 -1.40625 -2.15625 -2.335938 -2.15625 -3.421875 C -2.039062 -5.222656 -1.679688 -6.300781 -1.078125 -6.65625 C -0.484375 -7.019531 0.234375 -7.203125 1.078125 -7.203125 C 1.921875 -7.203125 2.460938 -7.203125 2.703125 -7.203125 C 6.296875 -7.203125 8.929688 -8.128906 10.609375 -9.984375 C 12.296875 -11.847656 13.648438 -13.945312 14.671875 -16.28125 C 15.691406 -18.625 16.378906 -20.21875 16.734375 -21.0625 L 48.234375 -95.578125 C 48.953125 -97.378906 49.3125 -98.820312 49.3125 -99.90625 C 49.3125 -102.0625 48.472656 -103.617188 46.796875 -104.578125 C 45.117188 -105.535156 42.78125 -106.316406 39.78125 -106.921875 C 37.738281 -107.273438 36.476562 -107.632812 36 -108 C 35.519531 -108.363281 35.28125 -109.382812 35.28125 -111.0625 C 35.28125 -112.5 35.671875 -113.457031 36.453125 -113.9375 C 37.234375 -114.414062 38.460938 -114.65625 40.140625 -114.65625 C 46.140625 -114.65625 50.910156 -114.203125 54.453125 -113.296875 C 57.992188 -112.398438 61.082031 -110.601562 63.71875 -107.90625 C 66.363281 -105.207031 68.820312 -101.097656 71.09375 -95.578125 L 101.34375 -21.0625 C 103.144531 -16.5 104.882812 -13.078125 106.5625 -10.796875 C 108.238281 -8.515625 110.757812 -7.316406 114.125 -7.203125 L 115.203125 -7.203125 C 116.398438 -7.203125 117.238281 -6.988281 117.71875 -6.5625 C 118.195312 -6.144531 118.5 -5.097656 118.625 -3.421875 C 118.625 -2.335938 118.351562 -1.40625 117.8125 -0.625 C 117.269531 0.15625 116.457031 0.546875 115.375 0.546875 C 107.695312 0.179688 101.097656 0 95.578125 0 C 88.378906 0 80.941406 0.179688 73.265625 0.546875 C 72.179688 0.546875 71.367188 0.15625 70.828125 -0.625 C 70.285156 -1.40625 70.015625 -2.335938 70.015625 -3.421875 C 70.140625 -5.097656 70.441406 -6.144531 70.921875 -6.5625 C 71.398438 -6.988281 72.238281 -7.203125 73.4375 -7.203125 C 77.519531 -7.203125 80.398438 -7.59375 82.078125 -8.375 C 83.753906 -9.15625 84.59375 -10.5625 84.59375 -12.59375 C 84.59375 -14.15625 83.875 -16.976562 82.4375 -21.0625 L 76.3125 -36 L 31.859375 -36 C 28.859375 -28.5625 27.144531 -24.238281 26.71875 -23.03125 C 26.300781 -21.832031 26.09375 -21.175781 26.09375 -21.0625 C 24.65625 -16.5 23.9375 -13.554688 23.9375 -12.234375 C 23.9375 -10.203125 24.835938 -8.851562 26.640625 -8.1875 C 28.441406 -7.53125 31.863281 -7.203125 36.90625 -7.203125 L 37.984375 -7.203125 C 39.179688 -7.203125 40.019531 -6.988281 40.5 -6.5625 C 40.976562 -6.144531 41.28125 -5.097656 41.40625 -3.421875 C 41.40625 -2.335938 41.132812 -1.40625 40.59375 -0.625 C 40.050781 0.15625 39.238281 0.546875 38.15625 0.546875 C 30.476562 0.179688 23.941406 0 18.546875 0 C 14.703125 0 8.878906 0.179688 1.078125 0.546875 Z M 35.28125 -43.734375 L 73.078125 -43.734375 L 54.90625 -90 L 54.359375 -90 Z M 35.28125 -43.734375 "/></g></g></g><g fill="#000000" fill-opacity="1"><g transform="translate(2732.993714, 1044.808666)"><g><path d="M 10.984375 0.546875 C 9.898438 0.546875 9.085938 0.15625 8.546875 -0.625 C 8.003906 -1.40625 7.734375 -2.335938 7.734375 -3.421875 C 7.859375 -5.222656 8.21875 -6.300781 8.8125 -6.65625 C 9.414062 -7.019531 10.554688 -7.203125 12.234375 -7.203125 C 15.710938 -7.203125 18.289062 -7.832031 19.96875 -9.09375 C 21.65625 -10.351562 22.707031 -11.910156 23.125 -13.765625 C 23.550781 -15.628906 23.820312 -18.0625 23.9375 -21.0625 L 23.9375 -92.515625 C 23.820312 -95.515625 23.550781 -97.941406 23.125 -99.796875 C 22.707031 -101.660156 21.65625 -103.222656 19.96875 -104.484375 C 18.289062 -105.742188 15.710938 -106.375 12.234375 -106.375 L 11.15625 -106.375 C 9.957031 -106.375 9.117188 -106.582031 8.640625 -107 C 8.160156 -107.425781 7.859375 -108.476562 7.734375 -110.15625 C 7.734375 -111.238281 8.003906 -112.171875 8.546875 -112.953125 C 9.085938 -113.734375 9.898438 -114.125 10.984375 -114.125 C 18.785156 -113.757812 25.863281 -113.578125 32.21875 -113.578125 C 39.414062 -113.578125 46.914062 -113.757812 54.71875 -114.125 C 55.800781 -114.125 56.609375 -113.734375 57.140625 -112.953125 C 57.679688 -112.171875 57.953125 -111.238281 57.953125 -110.15625 C 57.835938 -108.351562 57.476562 -107.269531 56.875 -106.90625 C 56.28125 -106.550781 55.140625 -106.375 53.453125 -106.375 C 49.972656 -106.375 47.394531 -105.742188 45.71875 -104.484375 C 44.039062 -103.222656 42.988281 -101.660156 42.5625 -99.796875 C 42.144531 -97.941406 41.878906 -95.515625 41.765625 -92.515625 L 41.765625 -60.65625 L 98.28125 -60.65625 L 98.28125 -92.515625 C 98.15625 -95.515625 97.882812 -97.941406 97.46875 -99.796875 C 97.050781 -101.660156 96 -103.222656 94.3125 -104.484375 C 92.632812 -105.742188 90.054688 -106.375 86.578125 -106.375 L 85.5 -106.375 C 84.300781 -106.375 83.429688 -106.582031 82.890625 -107 C 82.347656 -107.425781 82.019531 -108.476562 81.90625 -110.15625 C 81.90625 -111.238281 82.203125 -112.171875 82.796875 -112.953125 C 83.398438 -113.734375 84.179688 -114.125 85.140625 -114.125 C 92.941406 -113.757812 100.441406 -113.578125 107.640625 -113.578125 C 114.242188 -113.578125 121.382812 -113.757812 129.0625 -114.125 C 130.144531 -114.125 130.953125 -113.734375 131.484375 -112.953125 C 132.023438 -112.171875 132.296875 -111.238281 132.296875 -110.15625 C 132.179688 -108.351562 131.789062 -107.269531 131.125 -106.90625 C 130.46875 -106.550781 129.359375 -106.375 127.796875 -106.375 C 124.316406 -106.375 121.707031 -105.742188 119.96875 -104.484375 C 118.226562 -103.222656 117.144531 -101.660156 116.71875 -99.796875 C 116.300781 -97.941406 116.035156 -95.515625 115.921875 -92.515625 L 115.921875 -21.0625 C 116.035156 -18.0625 116.300781 -15.628906 116.71875 -13.765625 C 117.144531 -11.910156 118.226562 -10.351562 119.96875 -9.09375 C 121.707031 -7.832031 124.316406 -7.203125 127.796875 -7.203125 L 128.875 -7.203125 C 129.957031 -7.203125 130.769531 -6.988281 131.3125 -6.5625 C 131.851562 -6.144531 132.179688 -5.097656 132.296875 -3.421875 C 132.296875 -2.335938 132.023438 -1.40625 131.484375 -0.625 C 130.953125 0.15625 130.144531 0.546875 129.0625 0.546875 C 121.382812 0.179688 114.179688 0 107.453125 0 C 100.378906 0 92.941406 0.179688 85.140625 0.546875 C 84.179688 0.546875 83.398438 0.15625 82.796875 -0.625 C 82.203125 -1.40625 81.90625 -2.335938 81.90625 -3.421875 C 82.019531 -5.222656 82.40625 -6.300781 83.0625 -6.65625 C 83.726562 -7.019531 84.898438 -7.203125 86.578125 -7.203125 C 90.054688 -7.203125 92.632812 -7.832031 94.3125 -9.09375 C 96 -10.351562 97.050781 -11.910156 97.46875 -13.765625 C 97.882812 -15.628906 98.15625 -18.0625 98.28125 -21.0625 L 98.28125 -52.921875 L 41.765625 -52.921875 L 41.765625 -21.0625 C 41.878906 -18.0625 42.144531 -15.628906 42.5625 -13.765625 C 42.988281 -11.910156 44.039062 -10.351562 45.71875 -9.09375 C 47.394531 -7.832031 49.972656 -7.203125 53.453125 -7.203125 L 54.546875 -7.203125 C 55.742188 -7.203125 56.582031 -6.988281 57.0625 -6.5625 C 57.539062 -6.144531 57.835938 -5.097656 57.953125 -3.421875 C 57.953125 -2.335938 57.679688 -1.40625 57.140625 -0.625 C 56.609375 0.15625 55.800781 0.546875 54.71875 0.546875 C 47.039062 0.179688 39.601562 0 32.40625 0 C 25.925781 0 18.785156 0.179688 10.984375 0.546875 Z M 10.984375 0.546875 "/></g></g></g><g fill="#000000" fill-opacity="1"><g transform="translate(886.016067, 1291.499869)"><g><path d="M 14.578125 0 C 10.378906 0 8.28125 -2.160156 8.28125 -6.484375 C 8.394531 -9.003906 9.082031 -11.039062 10.34375 -12.59375 C 11.601562 -14.15625 13.675781 -15.894531 16.5625 -17.8125 C 26.039062 -24.175781 33.390625 -29.425781 38.609375 -33.5625 C 43.828125 -37.707031 48.535156 -42.957031 52.734375 -49.3125 C 56.941406 -55.675781 59.046875 -62.816406 59.046875 -70.734375 C 59.046875 -76.492188 57.515625 -80.960938 54.453125 -84.140625 C 51.390625 -87.328125 47.097656 -88.921875 41.578125 -88.921875 C 36.898438 -88.921875 33.03125 -87.75 29.96875 -85.40625 C 26.90625 -83.070312 25.375 -79.863281 25.375 -75.78125 C 25.375 -73.738281 25.851562 -72.023438 26.8125 -70.640625 C 27.78125 -69.265625 28.769531 -68.15625 29.78125 -67.3125 C 30.800781 -66.476562 31.3125 -66 31.3125 -65.875 C 31.3125 -65.039062 30.5 -64.019531 28.875 -62.8125 C 27.257812 -61.613281 25.316406 -61.015625 23.046875 -61.015625 C 19.316406 -61.015625 16.34375 -62.1875 14.125 -64.53125 C 11.90625 -66.875 10.796875 -69.84375 10.796875 -73.4375 C 10.796875 -78.238281 12.414062 -82.316406 15.65625 -85.671875 C 18.894531 -89.035156 23.003906 -91.5 27.984375 -93.0625 C 32.960938 -94.625 38.035156 -95.40625 43.203125 -95.40625 C 52.203125 -95.40625 59.96875 -93.179688 66.5 -88.734375 C 73.039062 -84.296875 76.3125 -77.519531 76.3125 -68.40625 C 76.3125 -61.800781 74.507812 -55.796875 70.90625 -50.390625 C 67.3125 -44.992188 63.023438 -40.40625 58.046875 -36.625 C 53.066406 -32.84375 46.554688 -28.375 38.515625 -23.21875 C 32.160156 -19.257812 27.421875 -16.082031 24.296875 -13.6875 L 24.296875 -12.78125 L 72.546875 -12.78125 C 75.546875 -12.78125 77.734375 -12.445312 79.109375 -11.78125 C 80.492188 -11.125 81.1875 -9.359375 81.1875 -6.484375 C 81.1875 -2.160156 79.082031 0 74.875 0 Z M 14.578125 0 "/></g></g></g><g fill="#000000" fill-opacity="1"><g transform="translate(1020.656056, 1291.499869)"><g><path d="M 40.5 3.59375 C 31.738281 3.59375 24.328125 1.882812 18.265625 -1.53125 C 12.210938 -4.945312 9.1875 -9.957031 9.1875 -16.5625 C 9.1875 -20.039062 10.265625 -23.039062 12.421875 -25.5625 C 14.578125 -28.082031 17.578125 -29.34375 21.421875 -29.34375 C 23.703125 -29.34375 25.648438 -28.738281 27.265625 -27.53125 C 28.890625 -26.332031 29.703125 -25.316406 29.703125 -24.484375 C 29.703125 -24.359375 29.160156 -23.90625 28.078125 -23.125 C 26.992188 -22.34375 26.003906 -21.289062 25.109375 -19.96875 C 24.210938 -18.65625 23.765625 -16.976562 23.765625 -14.9375 C 23.765625 -11.21875 25.351562 -8.304688 28.53125 -6.203125 C 31.707031 -4.109375 35.878906 -3.0625 41.046875 -3.0625 C 53.878906 -3.0625 60.296875 -10.203125 60.296875 -24.484375 C 60.296875 -30.359375 58.734375 -35.066406 55.609375 -38.609375 C 52.492188 -42.148438 47.816406 -44.097656 41.578125 -44.453125 L 34.921875 -44.453125 C 34.078125 -44.453125 33.414062 -44.8125 32.9375 -45.53125 C 32.457031 -46.257812 32.21875 -47.101562 32.21875 -48.0625 C 32.21875 -49.144531 32.457031 -50.070312 32.9375 -50.84375 C 33.414062 -51.625 34.078125 -52.078125 34.921875 -52.203125 L 41.578125 -52.203125 C 46.253906 -52.679688 50.003906 -54.78125 52.828125 -58.5 C 55.648438 -62.21875 57.0625 -66.71875 57.0625 -72 C 57.0625 -77.757812 55.441406 -82.164062 52.203125 -85.21875 C 48.960938 -88.28125 45.179688 -89.8125 40.859375 -89.8125 C 36.773438 -89.8125 33.265625 -88.640625 30.328125 -86.296875 C 27.390625 -83.960938 25.921875 -80.757812 25.921875 -76.6875 C 25.921875 -74.039062 26.429688 -72.265625 27.453125 -71.359375 C 28.472656 -70.460938 29.460938 -69.925781 30.421875 -69.75 C 31.378906 -69.570312 31.859375 -69.421875 31.859375 -69.296875 C 31.859375 -68.460938 31.046875 -67.441406 29.421875 -66.234375 C 27.804688 -65.035156 25.859375 -64.4375 23.578125 -64.4375 C 19.734375 -64.4375 16.734375 -65.632812 14.578125 -68.03125 C 12.421875 -70.4375 11.34375 -73.5 11.34375 -77.21875 C 11.34375 -83.101562 14.101562 -87.664062 19.625 -90.90625 C 25.144531 -94.144531 32.285156 -95.765625 41.046875 -95.765625 C 50.398438 -95.765625 58.132812 -93.722656 64.25 -89.640625 C 70.375 -85.554688 73.4375 -79.675781 73.4375 -72 C 73.4375 -66.957031 71.664062 -62.273438 68.125 -57.953125 C 64.582031 -53.640625 59.515625 -50.582031 52.921875 -48.78125 L 52.921875 -48.0625 C 59.640625 -47.34375 65.457031 -45.210938 70.375 -41.671875 C 75.300781 -38.128906 77.765625 -32.519531 77.765625 -24.84375 C 77.765625 -15.125 74.222656 -7.953125 67.140625 -3.328125 C 60.054688 1.285156 51.175781 3.59375 40.5 3.59375 Z M 40.5 3.59375 "/></g></g></g><g fill="#000000" fill-opacity="1"><g transform="translate(1154.576052, 1291.499869)"><g><path d="M 19.796875 2.15625 C 16.554688 2.15625 13.851562 1.109375 11.6875 -0.984375 C 9.53125 -3.085938 8.453125 -5.820312 8.453125 -9.1875 C 8.453125 -12.300781 9.53125 -14.9375 11.6875 -17.09375 C 13.851562 -19.257812 16.617188 -20.34375 19.984375 -20.34375 C 23.222656 -20.34375 25.953125 -19.257812 28.171875 -17.09375 C 30.390625 -14.9375 31.5 -12.300781 31.5 -9.1875 C 31.5 -5.820312 30.390625 -3.085938 28.171875 -0.984375 C 25.953125 1.109375 23.160156 2.15625 19.796875 2.15625 Z M 19.796875 2.15625 "/></g></g></g><g fill="#000000" fill-opacity="1"><g transform="translate(1240.796015, 1291.499869)"><g><path d="M 52.734375 3.59375 C 43.378906 3.59375 35.488281 1.316406 29.0625 -3.234375 C 22.644531 -7.796875 17.847656 -13.859375 14.671875 -21.421875 C 11.492188 -28.984375 9.90625 -37.203125 9.90625 -46.078125 C 9.90625 -55.078125 11.492188 -63.296875 14.671875 -70.734375 C 17.847656 -78.179688 22.644531 -84.15625 29.0625 -88.65625 C 35.488281 -93.15625 43.378906 -95.40625 52.734375 -95.40625 C 61.617188 -95.40625 69.300781 -93.125 75.78125 -88.5625 C 82.257812 -84 87.175781 -77.9375 90.53125 -70.375 C 93.894531 -62.820312 95.578125 -54.722656 95.578125 -46.078125 C 95.578125 -37.441406 93.894531 -29.34375 90.53125 -21.78125 C 87.175781 -14.21875 82.257812 -8.097656 75.78125 -3.421875 C 69.300781 1.253906 61.617188 3.59375 52.734375 3.59375 Z M 52.921875 -3.0625 C 60.960938 -3.0625 67.203125 -6.78125 71.640625 -14.21875 C 76.078125 -21.65625 78.296875 -32.273438 78.296875 -46.078125 C 78.296875 -59.878906 76.078125 -70.4375 71.640625 -77.75 C 67.203125 -85.070312 60.960938 -88.734375 52.921875 -88.734375 C 44.640625 -88.734375 38.28125 -85.101562 33.84375 -77.84375 C 29.40625 -70.582031 27.1875 -59.992188 27.1875 -46.078125 C 27.1875 -32.160156 29.40625 -21.507812 33.84375 -14.125 C 38.28125 -6.75 44.640625 -3.0625 52.921875 -3.0625 Z M 52.921875 -3.0625 "/></g></g></g><g fill="#000000" fill-opacity="1"><g transform="translate(1392.356017, 1291.499869)"><g><path d="M 28.984375 3.59375 C 27.421875 3.59375 26.039062 2.898438 24.84375 1.515625 C 23.644531 0.140625 23.046875 -1.742188 23.046875 -4.140625 C 23.046875 -9.421875 26.015625 -18.03125 31.953125 -29.96875 C 37.890625 -41.90625 45.660156 -56.515625 55.265625 -73.796875 L 59.40625 -81.1875 L 27.90625 -81.1875 C 24.664062 -81.1875 22.234375 -80.941406 20.609375 -80.453125 C 18.992188 -79.972656 17.675781 -78.832031 16.65625 -77.03125 C 15.632812 -75.238281 14.882812 -72.421875 14.40625 -68.578125 C 14.164062 -67.617188 13.773438 -66.925781 13.234375 -66.5 C 12.691406 -66.082031 11.703125 -65.875 10.265625 -65.875 C 8.222656 -65.875 7.203125 -66.894531 7.203125 -68.9375 L 7.921875 -90 C 7.921875 -92.632812 9.660156 -93.953125 13.140625 -93.953125 L 68.046875 -93.953125 C 71.523438 -93.953125 73.265625 -92.816406 73.265625 -90.546875 C 73.265625 -88.742188 71.941406 -85.625 69.296875 -81.1875 C 64.859375 -73.738281 60.75 -65.425781 56.96875 -56.25 C 53.1875 -47.070312 49.015625 -36.179688 44.453125 -23.578125 C 40.734375 -13.378906 38.035156 -6.238281 36.359375 -2.15625 C 34.554688 1.675781 32.097656 3.59375 28.984375 3.59375 Z M 28.984375 3.59375 "/></g></g></g><g fill="#000000" fill-opacity="1"><g transform="translate(1515.295993, 1291.499869)"><g><path d="M 19.796875 2.15625 C 16.554688 2.15625 13.851562 1.109375 11.6875 -0.984375 C 9.53125 -3.085938 8.453125 -5.820312 8.453125 -9.1875 C 8.453125 -12.300781 9.53125 -14.9375 11.6875 -17.09375 C 13.851562 -19.257812 16.617188 -20.34375 19.984375 -20.34375 C 23.222656 -20.34375 25.953125 -19.257812 28.171875 -17.09375 C 30.390625 -14.9375 31.5 -12.300781 31.5 -9.1875 C 31.5 -5.820312 30.390625 -3.085938 28.171875 -0.984375 C 25.953125 1.109375 23.160156 2.15625 19.796875 2.15625 Z M 19.796875 2.15625 "/></g></g></g><g fill="#000000" fill-opacity="1"><g transform="translate(1601.516003, 1291.499869)"><g><path d="M 14.578125 0 C 10.378906 0 8.28125 -2.160156 8.28125 -6.484375 C 8.394531 -9.003906 9.082031 -11.039062 10.34375 -12.59375 C 11.601562 -14.15625 13.675781 -15.894531 16.5625 -17.8125 C 26.039062 -24.175781 33.390625 -29.425781 38.609375 -33.5625 C 43.828125 -37.707031 48.535156 -42.957031 52.734375 -49.3125 C 56.941406 -55.675781 59.046875 -62.816406 59.046875 -70.734375 C 59.046875 -76.492188 57.515625 -80.960938 54.453125 -84.140625 C 51.390625 -87.328125 47.097656 -88.921875 41.578125 -88.921875 C 36.898438 -88.921875 33.03125 -87.75 29.96875 -85.40625 C 26.90625 -83.070312 25.375 -79.863281 25.375 -75.78125 C 25.375 -73.738281 25.851562 -72.023438 26.8125 -70.640625 C 27.78125 -69.265625 28.769531 -68.15625 29.78125 -67.3125 C 30.800781 -66.476562 31.3125 -66 31.3125 -65.875 C 31.3125 -65.039062 30.5 -64.019531 28.875 -62.8125 C 27.257812 -61.613281 25.316406 -61.015625 23.046875 -61.015625 C 19.316406 -61.015625 16.34375 -62.1875 14.125 -64.53125 C 11.90625 -66.875 10.796875 -69.84375 10.796875 -73.4375 C 10.796875 -78.238281 12.414062 -82.316406 15.65625 -85.671875 C 18.894531 -89.035156 23.003906 -91.5 27.984375 -93.0625 C 32.960938 -94.625 38.035156 -95.40625 43.203125 -95.40625 C 52.203125 -95.40625 59.96875 -93.179688 66.5 -88.734375 C 73.039062 -84.296875 76.3125 -77.519531 76.3125 -68.40625 C 76.3125 -61.800781 74.507812 -55.796875 70.90625 -50.390625 C 67.3125 -44.992188 63.023438 -40.40625 58.046875 -36.625 C 53.066406 -32.84375 46.554688 -28.375 38.515625 -23.21875 C 32.160156 -19.257812 27.421875 -16.082031 24.296875 -13.6875 L 24.296875 -12.78125 L 72.546875 -12.78125 C 75.546875 -12.78125 77.734375 -12.445312 79.109375 -11.78125 C 80.492188 -11.125 81.1875 -9.359375 81.1875 -6.484375 C 81.1875 -2.160156 79.082031 0 74.875 0 Z M 14.578125 0 "/></g></g></g><g fill="#000000" fill-opacity="1"><g transform="translate(1736.156006, 1291.499869)"><g><path d="M 52.734375 3.59375 C 43.378906 3.59375 35.488281 1.316406 29.0625 -3.234375 C 22.644531 -7.796875 17.847656 -13.859375 14.671875 -21.421875 C 11.492188 -28.984375 9.90625 -37.203125 9.90625 -46.078125 C 9.90625 -55.078125 11.492188 -63.296875 14.671875 -70.734375 C 17.847656 -78.179688 22.644531 -84.15625 29.0625 -88.65625 C 35.488281 -93.15625 43.378906 -95.40625 52.734375 -95.40625 C 61.617188 -95.40625 69.300781 -93.125 75.78125 -88.5625 C 82.257812 -84 87.175781 -77.9375 90.53125 -70.375 C 93.894531 -62.820312 95.578125 -54.722656 95.578125 -46.078125 C 95.578125 -37.441406 93.894531 -29.34375 90.53125 -21.78125 C 87.175781 -14.21875 82.257812 -8.097656 75.78125 -3.421875 C 69.300781 1.253906 61.617188 3.59375 52.734375 3.59375 Z M 52.921875 -3.0625 C 60.960938 -3.0625 67.203125 -6.78125 71.640625 -14.21875 C 76.078125 -21.65625 78.296875 -32.273438 78.296875 -46.078125 C 78.296875 -59.878906 76.078125 -70.4375 71.640625 -77.75 C 67.203125 -85.070312 60.960938 -88.734375 52.921875 -88.734375 C 44.640625 -88.734375 38.28125 -85.101562 33.84375 -77.84375 C 29.40625 -70.582031 27.1875 -59.992188 27.1875 -46.078125 C 27.1875 -32.160156 29.40625 -21.507812 33.84375 -14.125 C 38.28125 -6.75 44.640625 -3.0625 52.921875 -3.0625 Z M 52.921875 -3.0625 "/></g></g></g><g fill="#000000" fill-opacity="1"><g transform="translate(1887.715963, 1291.499869)"><g><path d="M 14.578125 0 C 10.378906 0 8.28125 -2.160156 8.28125 -6.484375 C 8.394531 -9.003906 9.082031 -11.039062 10.34375 -12.59375 C 11.601562 -14.15625 13.675781 -15.894531 16.5625 -17.8125 C 26.039062 -24.175781 33.390625 -29.425781 38.609375 -33.5625 C 43.828125 -37.707031 48.535156 -42.957031 52.734375 -49.3125 C 56.941406 -55.675781 59.046875 -62.816406 59.046875 -70.734375 C 59.046875 -76.492188 57.515625 -80.960938 54.453125 -84.140625 C 51.390625 -87.328125 47.097656 -88.921875 41.578125 -88.921875 C 36.898438 -88.921875 33.03125 -87.75 29.96875 -85.40625 C 26.90625 -83.070312 25.375 -79.863281 25.375 -75.78125 C 25.375 -73.738281 25.851562 -72.023438 26.8125 -70.640625 C 27.78125 -69.265625 28.769531 -68.15625 29.78125 -67.3125 C 30.800781 -66.476562 31.3125 -66 31.3125 -65.875 C 31.3125 -65.039062 30.5 -64.019531 28.875 -62.8125 C 27.257812 -61.613281 25.316406 -61.015625 23.046875 -61.015625 C 19.316406 -61.015625 16.34375 -62.1875 14.125 -64.53125 C 11.90625 -66.875 10.796875 -69.84375 10.796875 -73.4375 C 10.796875 -78.238281 12.414062 -82.316406 15.65625 -85.671875 C 18.894531 -89.035156 23.003906 -91.5 27.984375 -93.0625 C 32.960938 -94.625 38.035156 -95.40625 43.203125 -95.40625 C 52.203125 -95.40625 59.96875 -93.179688 66.5 -88.734375 C 73.039062 -84.296875 76.3125 -77.519531 76.3125 -68.40625 C 76.3125 -61.800781 74.507812 -55.796875 70.90625 -50.390625 C 67.3125 -44.992188 63.023438 -40.40625 58.046875 -36.625 C 53.066406 -32.84375 46.554688 -28.375 38.515625 -23.21875 C 32.160156 -19.257812 27.421875 -16.082031 24.296875 -13.6875 L 24.296875 -12.78125 L 72.546875 -12.78125 C 75.546875 -12.78125 77.734375 -12.445312 79.109375 -11.78125 C 80.492188 -11.125 81.1875 -9.359375 81.1875 -6.484375 C 81.1875 -2.160156 79.082031 0 74.875 0 Z M 14.578125 0 "/></g></g></g><g fill="#000000" fill-opacity="1"><g transform="translate(2022.355966, 1291.499869)"><g><path d="M 46.984375 3.59375 C 35.578125 3.59375 26.484375 0.0546875 19.703125 -7.015625 C 12.929688 -14.097656 9.546875 -23.757812 9.546875 -36 C 9.546875 -45.71875 11.851562 -54.773438 16.46875 -63.171875 C 21.09375 -71.578125 27.601562 -78.628906 36 -84.328125 C 44.394531 -90.023438 53.992188 -93.835938 64.796875 -95.765625 C 65.398438 -95.878906 66.300781 -95.9375 67.5 -95.9375 C 69.894531 -95.9375 71.09375 -94.859375 71.09375 -92.703125 C 71.09375 -90.773438 70.015625 -89.515625 67.859375 -88.921875 C 45.898438 -82.078125 32.820312 -69.773438 28.625 -52.015625 C 32.582031 -54.660156 36.507812 -56.519531 40.40625 -57.59375 C 44.3125 -58.675781 48.363281 -59.21875 52.5625 -59.21875 C 58.320312 -59.21875 63.597656 -57.925781 68.390625 -55.34375 C 73.191406 -52.769531 76.972656 -49.234375 79.734375 -44.734375 C 82.492188 -40.234375 83.875 -35.101562 83.875 -29.34375 C 83.875 -22.863281 82.132812 -17.132812 78.65625 -12.15625 C 75.175781 -7.175781 70.613281 -3.304688 64.96875 -0.546875 C 59.332031 2.210938 53.335938 3.59375 46.984375 3.59375 Z M 46.984375 -2.15625 C 52.617188 -2.15625 57.296875 -4.523438 61.015625 -9.265625 C 64.734375 -14.003906 66.59375 -20.15625 66.59375 -27.71875 C 66.59375 -34.800781 64.734375 -40.472656 61.015625 -44.734375 C 57.296875 -48.992188 52.4375 -51.125 46.4375 -51.125 C 43.4375 -51.125 40.316406 -50.375 37.078125 -48.875 C 33.835938 -47.375 30.78125 -45.363281 27.90625 -42.84375 C 27.175781 -39.957031 26.8125 -37.613281 26.8125 -35.8125 C 26.8125 -31.019531 27.441406 -26.039062 28.703125 -20.875 C 29.960938 -15.71875 32.125 -11.304688 35.1875 -7.640625 C 38.25 -3.984375 42.179688 -2.15625 46.984375 -2.15625 Z M 46.984375 -2.15625 "/></g></g></g><g clip-path="url(#fa8f91dbe4)"><g clip-path="url(#b16146c401)"><g clip-path="url(#b43754c76b)"><path fill="#000000" d="M 1832.71875 355.769531 C 1785.613281 335.148438 1727.125 350.402344 1683.554688 380.046875 C 1684.414062 377.285156 1685.125 372.742188 1685.308594 368.886719 C 1686.050781 352.976562 1684.425781 343.140625 1683.464844 338.410156 C 1671.183594 277.621094 1612.109375 243.238281 1548.917969 256.972656 C 1501.828125 267.378906 1456.980469 303.214844 1431.21875 345.46875 C 1376.1875 427.488281 1363.191406 523.132812 1373.660156 617.007812 C 1375.46875 642.660156 1382.953125 668.300781 1391.75 692.34375 C 1400.539062 716.351562 1412.023438 740.335938 1431.628906 757.542969 C 1454.792969 777.875 1485.710938 788.390625 1516.328125 782.871094 C 1540.878906 779.277344 1593.542969 762.007812 1613.546875 750.097656 C 1615.777344 748.535156 1625.886719 744.011719 1627.96875 742.179688 C 1699.082031 705.84375 1764.945312 656.28125 1814.347656 593.074219 C 1867.9375 528.199219 1916.5625 406.515625 1832.71875 355.769531 Z M 1818.269531 584.640625 C 1772.90625 645.214844 1699.4375 702.714844 1629.03125 738.167969 C 1604.09375 751.332031 1578.125 762.992188 1550.941406 770.703125 C 1524.660156 778.15625 1493.882812 783.246094 1467.128906 775.1875 C 1436.769531 766.035156 1419.351562 740.613281 1405.910156 713.597656 C 1379.171875 659.863281 1372.691406 597.933594 1376.160156 538.695312 C 1380.539062 464.21875 1402.488281 387.480469 1451.367188 328.707031 C 1500.574219 265.375 1602.628906 233.417969 1656.101562 293.300781 C 1663.765625 301.875 1678.445312 321.003906 1681.199219 359.707031 C 1681.871094 369.167969 1681.214844 374.21875 1679.109375 382.691406 C 1663.613281 393.273438 1638.417969 418.65625 1640.242188 436.175781 C 1643.402344 445.386719 1653.441406 446.664062 1660.5625 437.265625 C 1669.105469 426.414062 1679.402344 402.714844 1682.566406 388.796875 C 1687.578125 385.574219 1695.722656 380.972656 1703.855469 376.703125 C 1714.621094 371.046875 1732.582031 362.457031 1756.847656 357.21875 C 1900.109375 326.261719 1897.550781 488.644531 1818.269531 584.640625 Z M 1648.21875 437.132812 C 1640.496094 440.386719 1640.667969 432.371094 1643.035156 425.953125 C 1646.796875 415.234375 1666.8125 395.636719 1675.316406 390.402344 C 1669.351562 408.421875 1660.769531 431.953125 1648.21875 437.132812 Z M 1648.21875 437.132812 " fill-opacity="1" fill-rule="nonzero"/></g></g></g><g clip-path="url(#968aafee4f)"><g clip-path="url(#10452bada1)"><g transform="matrix(1, 0, 0, 1, 1035, 184)"><g clip-path="url(#e9b4ce5835)"><g clip-path="url(#9361bbda2d)"><g clip-path="url(#b175d6f52f)"><g clip-path="url(#df0ab0c3e4)"><path fill="#000000" d="M 314.292969 52.464844 C 273.535156 67.746094 257.457031 108.695312 252.535156 149.140625 C 251.75 173.4375 253.046875 201.238281 241.066406 222.574219 C 233.527344 235.949219 218.792969 241.042969 204.066406 241.90625 C 183.371094 243.390625 159.503906 240.230469 138.363281 246.164062 C 105.113281 254.492188 82.484375 285.023438 79.453125 318.699219 C 74.96875 362.402344 95.019531 404.988281 122.726562 437.851562 C 157.34375 478.683594 201.84375 505.921875 248.152344 532.085938 C 307.792969 564.675781 382.109375 608.929688 451.152344 606.292969 C 468.285156 605.472656 486.589844 601.34375 501.96875 595.90625 C 502.609375 595.671875 503.230469 595.449219 503.789062 595.214844 C 507.949219 593.601562 509.910156 592.476562 508.621094 592.210938 C 503.632812 592.222656 491.601562 594.703125 484.132812 595.941406 C 470.476562 598.269531 455.972656 600.199219 441.246094 599.734375 C 387.554688 597.242188 338.035156 572.070312 291.257812 547.457031 C 260.566406 530.804688 230.277344 513.308594 201.03125 494.257812 C 168.738281 473.097656 137.605469 448.695312 115.058594 417.292969 C 80.152344 371.652344 62.617188 285.675781 124.980469 255.746094 C 136.371094 250.433594 149.007812 248.242188 161.519531 247.671875 C 181.667969 246.488281 201.359375 249.285156 220.605469 243.851562 C 234.339844 240.019531 243.089844 229.421875 247.410156 216.144531 C 253.582031 197.6875 254.117188 178.261719 257.414062 158.328125 C 259.246094 146.863281 261.894531 135.472656 265.859375 124.597656 C 290.839844 53.613281 365.324219 38.761719 423.207031 82.609375 C 517.582031 157.378906 520.058594 306.179688 493.585938 414.28125 C 491.964844 421.582031 490.121094 429.191406 488.601562 436.324219 C 488.273438 437.808594 488.027344 439.003906 487.882812 439.917969 C 487.660156 441.4375 487.316406 443.09375 488.199219 440.925781 C 489.742188 437.058594 490.867188 432.273438 493.433594 423.503906 C 519.335938 331.097656 523.394531 224.765625 477.398438 138.507812 C 469.089844 122.625 459.539062 107.394531 449.957031 92.1875 C 417.644531 54.191406 362.183594 32.882812 314.292969 52.464844 Z M 481.828125 459.964844 C 482.785156 457.75 483.03125 456.1875 481.8125 458.125 C 481.410156 458.519531 478.355469 464.882812 479.34375 464.449219 C 480.421875 463.269531 481.121094 461.511719 481.804688 460.007812 Z M 481.828125 459.964844 " fill-opacity="1" fill-rule="nonzero"/></g></g></g></g></g></g></g><g transform="matrix(1, 0, 0, 1, 428, 155)"><g clip-path="url(#1f0ce451eb)"><g fill="#000000" fill-opacity="1"><g transform="translate(45.212963, 451.533061)"><g><path d="M -2.53125 108.96875 C -8.28125 108.96875 -14.953125 107.191406 -22.546875 103.640625 C -30.148438 100.097656 -35.644531 93.9375 -39.03125 85.15625 C -40.71875 80.757812 -41.5625 76.535156 -41.5625 72.484375 C -41.5625 62.679688 -38.015625 52.035156 -30.921875 40.546875 C -23.828125 29.054688 -14.535156 17.226562 -3.046875 5.0625 C 9.460938 -7.769531 25.679688 -22.296875 45.609375 -38.515625 C 65.546875 -54.734375 88.015625 -71.710938 113.015625 -89.453125 C 138.023438 -107.203125 164.382812 -124.859375 192.09375 -142.421875 C 219.800781 -159.992188 247.765625 -176.550781 275.984375 -192.09375 C 304.203125 -207.644531 331.40625 -221.332031 357.59375 -233.15625 C 383.78125 -244.976562 407.9375 -254.097656 430.0625 -260.515625 C 452.195312 -266.941406 470.867188 -269.648438 486.078125 -268.640625 C 498.578125 -267.960938 509.300781 -262.21875 518.25 -251.40625 C 527.207031 -240.59375 531.6875 -226.738281 531.6875 -209.84375 C 531.6875 -195.988281 529.40625 -180.523438 524.84375 -163.453125 C 520.28125 -146.390625 514.367188 -128.90625 507.109375 -111 C 499.847656 -93.09375 491.820312 -76.195312 483.03125 -60.3125 C 496.882812 -62 510.144531 -64.445312 522.8125 -67.65625 C 535.476562 -70.875 545.78125 -75.269531 553.71875 -80.84375 C 561.664062 -86.414062 565.300781 -93.257812 564.625 -101.375 L 564.625 -102.390625 C 564.625 -105.429688 565.300781 -106.953125 566.65625 -106.953125 C 569.019531 -106.953125 570.203125 -104.25 570.203125 -98.84375 C 570.203125 -89.71875 565.722656 -81.941406 556.765625 -75.515625 C 547.816406 -69.097656 536.414062 -64.03125 522.5625 -60.3125 C 508.71875 -56.59375 494.359375 -53.722656 479.484375 -51.703125 C 477.460938 -47.304688 474.929688 -40.882812 471.890625 -32.4375 C 468.847656 -23.988281 466.816406 -16.722656 465.796875 -10.640625 C 465.460938 -9.628906 465.296875 -8.53125 465.296875 -7.34375 C 465.296875 -6.164062 465.296875 -4.898438 465.296875 -3.546875 C 465.296875 -0.171875 465.546875 2.863281 466.046875 5.5625 C 466.554688 8.269531 466.8125 10.132812 466.8125 11.15625 C 467.488281 15.882812 465.882812 19.9375 462 23.3125 C 458.113281 26.695312 454.3125 28.390625 450.59375 28.390625 C 445.863281 28.390625 443.332031 26.191406 443 21.796875 C 442.65625 21.117188 442.484375 19.257812 442.484375 16.21875 C 440.796875 11.488281 438.007812 5.660156 434.125 -1.265625 C 430.238281 -8.191406 426.179688 -15.035156 421.953125 -21.796875 C 417.734375 -28.554688 413.679688 -34.382812 409.796875 -39.28125 C 405.910156 -44.175781 403.125 -46.796875 401.4375 -47.140625 C 399.070312 -47.816406 391.128906 -49.335938 377.609375 -51.703125 C 369.160156 -53.390625 358.257812 -55.242188 344.90625 -57.265625 C 331.5625 -59.296875 318.550781 -61.914062 305.875 -65.125 C 293.207031 -68.34375 282.988281 -72.144531 275.21875 -76.53125 C 265.757812 -81.9375 261.03125 -87.851562 261.03125 -94.28125 C 261.03125 -97.320312 261.875 -99.851562 263.5625 -101.875 C 266.601562 -105.59375 270.570312 -108.296875 275.46875 -109.984375 C 280.375 -111.671875 286.035156 -112.515625 292.453125 -112.515625 C 302.253906 -112.515625 312.984375 -110.828125 324.640625 -107.453125 C 336.296875 -104.078125 347.785156 -99.6875 359.109375 -94.28125 C 370.429688 -88.875 380.738281 -83.039062 390.03125 -76.78125 C 399.320312 -70.53125 406.332031 -64.363281 411.0625 -58.28125 C 413.769531 -57.945312 417.148438 -57.695312 421.203125 -57.53125 C 425.253906 -57.363281 429.816406 -57.28125 434.890625 -57.28125 C 445.023438 -57.28125 456.175781 -57.785156 468.34375 -58.796875 C 475.4375 -76.023438 482.273438 -94.523438 488.859375 -114.296875 C 495.453125 -134.066406 500.859375 -153.160156 505.078125 -171.578125 C 509.304688 -189.992188 511.421875 -205.453125 511.421875 -217.953125 C 511.421875 -232.140625 507.617188 -242.019531 500.015625 -247.59375 C 492.410156 -253.175781 482.695312 -255.96875 470.875 -255.96875 C 451.945312 -255.96875 430.910156 -252.25 407.765625 -244.8125 C 384.617188 -237.375 360.203125 -227.234375 334.515625 -214.390625 C 308.835938 -201.554688 282.820312 -186.859375 256.46875 -170.296875 C 230.113281 -153.742188 204.265625 -136.425781 178.921875 -118.34375 C 153.578125 -100.269531 129.835938 -82.273438 107.703125 -64.359375 C 85.578125 -46.453125 65.726562 -29.554688 48.15625 -13.671875 C 30.582031 2.203125 16.390625 16.050781 5.578125 27.875 C -5.910156 40.375 -11.65625 54.0625 -11.65625 68.9375 C -11.65625 75.019531 -10.390625 80.765625 -7.859375 86.171875 C -5.328125 91.578125 -1.351562 96.132812 4.0625 99.84375 C 6.425781 101.875 7.609375 103.566406 7.609375 104.921875 C 7.609375 107.617188 4.226562 108.96875 -2.53125 108.96875 Z M 385.71875 -61.328125 C 380.644531 -65.046875 373.546875 -69.269531 364.421875 -74 C 355.304688 -78.726562 345.59375 -82.953125 335.28125 -86.671875 C 324.976562 -90.390625 314.925781 -92.585938 305.125 -93.265625 L 299.546875 -93.265625 C 292.117188 -93.265625 288.40625 -91.910156 288.40625 -89.203125 C 288.40625 -87.515625 289.835938 -85.570312 292.703125 -83.375 C 295.578125 -81.175781 298.367188 -79.570312 301.078125 -78.5625 C 307.835938 -76.195312 316.625 -73.742188 327.4375 -71.203125 C 338.25 -68.671875 349.144531 -66.476562 360.125 -64.625 C 371.101562 -62.769531 379.632812 -61.671875 385.71875 -61.328125 Z M 449.078125 -2.03125 C 449.410156 -4.050781 449.742188 -6.078125 450.078125 -8.109375 C 450.421875 -10.140625 450.765625 -12.335938 451.109375 -14.703125 C 452.453125 -20.441406 453.882812 -26.351562 455.40625 -32.4375 C 456.925781 -38.519531 458.703125 -44.265625 460.734375 -49.671875 C 452.285156 -49.335938 444.34375 -49 436.90625 -48.65625 C 429.476562 -48.320312 423.226562 -48.320312 418.15625 -48.65625 C 422.882812 -43.25 428.207031 -36.320312 434.125 -27.875 C 440.039062 -19.425781 445.023438 -10.8125 449.078125 -2.03125 Z M 449.078125 -2.03125 "/></g></g></g></g></g><g transform="matrix(1, 0, 0, 1, 1918, 215)"><g clip-path="url(#60557dcec8)"><g fill="#000000" fill-opacity="1"><g transform="translate(2.423291, 451.248656)"><g><path d="M 125.1875 -78.5625 C 111 -78.5625 97.0625 -80.332031 83.375 -83.875 C 69.6875 -87.425781 58.28125 -93.253906 49.15625 -101.359375 C 40.039062 -109.472656 34.972656 -120.117188 33.953125 -133.296875 C 32.265625 -154.929688 39.695312 -174.445312 56.25 -191.84375 C 72.8125 -209.25 96.46875 -224.539062 127.21875 -237.71875 C 157.96875 -250.894531 194.125 -261.875 235.6875 -270.65625 C 277.25 -279.445312 322.523438 -286.035156 371.515625 -290.421875 C 420.515625 -294.816406 471.367188 -297.015625 524.078125 -297.015625 C 548.066406 -297.015625 572.226562 -296.507812 596.5625 -295.5 C 622.582031 -294.488281 648.429688 -292.125 674.109375 -288.40625 C 699.785156 -284.6875 723.097656 -279.613281 744.046875 -273.1875 C 765.003906 -266.769531 781.816406 -259.335938 794.484375 -250.890625 C 807.160156 -242.441406 813.5 -232.984375 813.5 -222.515625 C 813.5 -214.066406 808.515625 -205.109375 798.546875 -195.640625 C 788.578125 -186.179688 772.269531 -176.21875 749.625 -165.75 C 730.707031 -156.957031 709.335938 -149.601562 685.515625 -143.6875 C 661.691406 -137.78125 637.191406 -133.304688 612.015625 -130.265625 C 586.835938 -127.222656 562.59375 -125.195312 539.28125 -124.1875 C 531.175781 -123.84375 525.601562 -124.007812 522.5625 -124.6875 C 519.519531 -125.363281 518 -126.378906 518 -127.734375 C 518 -129.421875 519.601562 -131.023438 522.8125 -132.546875 C 526.019531 -134.066406 528.804688 -134.65625 531.171875 -134.3125 C 538.265625 -133.300781 546.207031 -132.796875 555 -132.796875 C 572.226562 -132.796875 591.234375 -134.566406 612.015625 -138.109375 C 632.796875 -141.660156 653.660156 -146.898438 674.609375 -153.828125 C 695.566406 -160.753906 714.828125 -169.117188 732.390625 -178.921875 C 748.953125 -188.046875 760.78125 -196.660156 767.875 -204.765625 C 774.96875 -212.878906 778.515625 -220.144531 778.515625 -226.5625 C 778.515625 -234 774.710938 -240.757812 767.109375 -246.84375 C 759.515625 -252.925781 749.460938 -258.25 736.953125 -262.8125 C 724.453125 -267.375 710.597656 -271.257812 695.390625 -274.46875 C 680.191406 -277.675781 664.816406 -280.207031 649.265625 -282.0625 C 633.722656 -283.925781 619.363281 -285.195312 606.1875 -285.875 C 594.695312 -286.539062 583.125 -287.039062 571.46875 -287.375 C 559.8125 -287.71875 548.066406 -287.890625 536.234375 -287.890625 C 499.078125 -287.890625 461.320312 -286.367188 422.96875 -283.328125 C 384.625 -280.285156 347.375 -275.804688 311.21875 -269.890625 C 275.0625 -263.984375 241.351562 -256.632812 210.09375 -247.84375 C 178.832031 -239.0625 151.289062 -228.757812 127.46875 -216.9375 C 103.644531 -205.113281 85.0625 -191.765625 71.71875 -176.890625 C 58.375 -162.023438 51.703125 -145.804688 51.703125 -128.234375 C 51.703125 -118.097656 54.316406 -110.15625 59.546875 -104.40625 C 64.785156 -98.664062 71.546875 -94.523438 79.828125 -91.984375 C 88.109375 -89.453125 96.8125 -87.847656 105.9375 -87.171875 C 115.0625 -86.503906 123.507812 -86.171875 131.28125 -86.171875 C 133.976562 -86.171875 136.425781 -85.660156 138.625 -84.640625 C 140.820312 -83.628906 141.921875 -82.445312 141.921875 -81.09375 C 141.921875 -80.082031 140.566406 -79.40625 137.859375 -79.0625 C 135.835938 -78.726562 133.726562 -78.5625 131.53125 -78.5625 C 129.332031 -78.5625 127.21875 -78.5625 125.1875 -78.5625 Z M 453.640625 11.15625 C 446.878906 10.476562 441.804688 7.347656 438.421875 1.765625 C 435.046875 -3.804688 433.359375 -11.15625 433.359375 -20.28125 C 433.359375 -29.738281 435.46875 -40.800781 439.6875 -53.46875 C 443.914062 -66.144531 449.660156 -79.578125 456.921875 -93.765625 C 464.191406 -107.960938 472.222656 -121.648438 481.015625 -134.828125 C 491.484375 -150.703125 501.953125 -165.484375 512.421875 -179.171875 C 522.890625 -192.859375 532.9375 -203.835938 542.5625 -212.109375 C 552.195312 -220.390625 560.566406 -224.53125 567.671875 -224.53125 C 571.390625 -224.53125 575.359375 -222.84375 579.578125 -219.46875 C 583.796875 -216.09375 585.90625 -212.710938 585.90625 -209.328125 C 585.90625 -206.960938 585.398438 -205.273438 584.390625 -204.265625 C 583.378906 -203.253906 582.535156 -202.410156 581.859375 -201.734375 C 572.734375 -196.660156 562.34375 -188.460938 550.6875 -177.140625 C 539.03125 -165.828125 527.117188 -152.90625 514.953125 -138.375 C 502.796875 -123.84375 491.648438 -108.890625 481.515625 -93.515625 C 471.378906 -78.140625 463.1875 -63.609375 456.9375 -49.921875 C 450.6875 -36.234375 447.5625 -24.832031 447.5625 -15.71875 C 447.5625 -12.332031 448.066406 -8.78125 449.078125 -5.0625 C 450.085938 -1.351562 452.285156 1.347656 455.671875 3.046875 C 457.359375 3.722656 458.203125 5.242188 458.203125 7.609375 C 458.203125 10.304688 456.679688 11.488281 453.640625 11.15625 Z M 453.640625 11.15625 "/></g></g></g></g></g></svg>