<svg xmlns="http://www.w3.org/2000/svg" xmlns:xlink="http://www.w3.org/1999/xlink" width="3000" zoomAndPan="magnify" viewBox="0 0 2250 1499.999933" height="2000" preserveAspectRatio="xMidYMid meet" version="1.0"><defs><g/><clipPath id="6d5c8cf10f"><rect x="0" width="2018" y="0" height="150"/></clipPath><clipPath id="3f3acd4d34"><rect x="0" width="800" y="0" height="130"/></clipPath><clipPath id="82d61c8e95"><path d="M 976 362 L 1449 362 L 1449 856 L 976 856 Z M 976 362 " clip-rule="nonzero"/></clipPath><clipPath id="44052e427b"><path d="M 1168.574219 235.667969 L 1535.804688 473.011719 L 1222.738281 957.398438 L 855.511719 720.058594 Z M 1168.574219 235.667969 " clip-rule="nonzero"/></clipPath><clipPath id="785bd04a9c"><path d="M 1168.574219 235.667969 L 1535.804688 473.011719 L 1222.738281 957.398438 L 855.511719 720.058594 Z M 1168.574219 235.667969 " clip-rule="nonzero"/></clipPath><clipPath id="5bb99b4e18"><path d="M 666 298 L 1314 298 L 1314 971 L 666 971 Z M 666 298 " clip-rule="nonzero"/></clipPath><clipPath id="53357c0015"><path d="M 658.734375 528.792969 L 1038.988281 279.839844 L 1329.433594 723.46875 L 949.179688 972.421875 Z M 658.734375 528.792969 " clip-rule="nonzero"/></clipPath><clipPath id="c7e8df3e6d"><path d="M 72 41 L 476 41 L 476 563 L 72 563 Z M 72 41 " clip-rule="nonzero"/></clipPath><clipPath id="0f94d40202"><path d="M -7.265625 230.792969 L 372.988281 -18.160156 L 663.433594 425.46875 L 283.179688 674.421875 Z M -7.265625 230.792969 " clip-rule="nonzero"/></clipPath><clipPath id="1d635033ad"><path d="M 373.027344 -18.1875 L -7.226562 230.765625 L 283.21875 674.394531 L 663.472656 425.441406 Z M 373.027344 -18.1875 " clip-rule="nonzero"/></clipPath><clipPath id="96ba3f99e6"><rect x="0" width="648" y="0" height="673"/></clipPath><clipPath id="67914162c3"><rect x="0" width="639" y="0" height="662"/></clipPath><clipPath id="a367107d95"><rect x="0" width="764" y="0" height="662"/></clipPath></defs><g transform="matrix(1, 0, 0, 1, 132, 932)"><g clip-path="url(#6d5c8cf10f)"><g fill="#000000" fill-opacity="1"><g transform="translate(2.666779, 118.887435)"><g><path d="M 0.78125 0.390625 C 0 0.390625 -0.582031 0.109375 -0.96875 -0.453125 C -1.363281 -1.015625 -1.5625 -1.6875 -1.5625 -2.46875 C -1.46875 -3.769531 -1.203125 -4.546875 -0.765625 -4.796875 C -0.335938 -5.054688 0.175781 -5.1875 0.78125 -5.1875 C 1.382812 -5.1875 1.773438 -5.1875 1.953125 -5.1875 C 4.546875 -5.1875 6.445312 -5.859375 7.65625 -7.203125 C 8.875 -8.546875 9.847656 -10.0625 10.578125 -11.75 C 11.316406 -13.4375 11.816406 -14.582031 12.078125 -15.1875 L 34.796875 -68.953125 C 35.316406 -70.242188 35.578125 -71.28125 35.578125 -72.0625 C 35.578125 -73.625 34.96875 -74.75 33.75 -75.4375 C 32.539062 -76.132812 30.859375 -76.695312 28.703125 -77.125 C 27.222656 -77.382812 26.3125 -77.644531 25.96875 -77.90625 C 25.625 -78.164062 25.453125 -78.898438 25.453125 -80.109375 C 25.453125 -81.148438 25.734375 -81.84375 26.296875 -82.1875 C 26.859375 -82.53125 27.742188 -82.703125 28.953125 -82.703125 C 33.285156 -82.703125 36.726562 -82.378906 39.28125 -81.734375 C 41.832031 -81.085938 44.0625 -79.789062 45.96875 -77.84375 C 47.875 -75.894531 49.644531 -72.929688 51.28125 -68.953125 L 73.109375 -15.1875 C 74.398438 -11.894531 75.648438 -9.425781 76.859375 -7.78125 C 78.078125 -6.144531 79.898438 -5.28125 82.328125 -5.1875 L 83.09375 -5.1875 C 83.957031 -5.1875 84.5625 -5.035156 84.90625 -4.734375 C 85.257812 -4.429688 85.476562 -3.675781 85.5625 -2.46875 C 85.5625 -1.6875 85.363281 -1.015625 84.96875 -0.453125 C 84.582031 0.109375 84.003906 0.390625 83.234375 0.390625 C 77.691406 0.128906 72.929688 0 68.953125 0 C 63.753906 0 58.382812 0.128906 52.84375 0.390625 C 52.0625 0.390625 51.476562 0.109375 51.09375 -0.453125 C 50.707031 -1.015625 50.515625 -1.6875 50.515625 -2.46875 C 50.597656 -3.675781 50.8125 -4.429688 51.15625 -4.734375 C 51.5 -5.035156 52.101562 -5.1875 52.96875 -5.1875 C 55.914062 -5.1875 57.992188 -5.46875 59.203125 -6.03125 C 60.421875 -6.59375 61.03125 -7.613281 61.03125 -9.09375 C 61.03125 -10.21875 60.507812 -12.25 59.46875 -15.1875 L 55.046875 -25.96875 L 22.984375 -25.96875 C 20.816406 -20.601562 19.582031 -17.488281 19.28125 -16.625 C 18.976562 -15.757812 18.828125 -15.28125 18.828125 -15.1875 C 17.785156 -11.894531 17.265625 -9.773438 17.265625 -8.828125 C 17.265625 -7.359375 17.914062 -6.382812 19.21875 -5.90625 C 20.519531 -5.425781 22.988281 -5.1875 26.625 -5.1875 L 27.390625 -5.1875 C 28.265625 -5.1875 28.875 -5.035156 29.21875 -4.734375 C 29.5625 -4.429688 29.773438 -3.675781 29.859375 -2.46875 C 29.859375 -1.6875 29.664062 -1.015625 29.28125 -0.453125 C 28.894531 0.109375 28.3125 0.390625 27.53125 0.390625 C 21.988281 0.128906 17.269531 0 13.375 0 C 10.601562 0 6.40625 0.128906 0.78125 0.390625 Z M 25.453125 -31.546875 L 52.71875 -31.546875 L 39.609375 -64.921875 L 39.21875 -64.921875 Z M 25.453125 -31.546875 "/></g></g></g><g fill="#000000" fill-opacity="1"><g transform="translate(120.825167, 118.887435)"><g><path d="M 7.921875 0.390625 C 7.140625 0.390625 6.550781 0.109375 6.15625 -0.453125 C 5.769531 -1.015625 5.578125 -1.6875 5.578125 -2.46875 C 5.671875 -3.769531 5.929688 -4.546875 6.359375 -4.796875 C 6.796875 -5.054688 7.617188 -5.1875 8.828125 -5.1875 C 11.335938 -5.1875 13.195312 -5.640625 14.40625 -6.546875 C 15.625 -7.460938 16.382812 -8.59375 16.6875 -9.9375 C 16.988281 -11.28125 17.179688 -13.03125 17.265625 -15.1875 L 17.265625 -66.734375 C 17.179688 -68.898438 16.988281 -70.65625 16.6875 -72 C 16.382812 -73.34375 15.625 -74.46875 14.40625 -75.375 C 13.195312 -76.28125 11.335938 -76.734375 8.828125 -76.734375 L 8.046875 -76.734375 C 7.179688 -76.734375 6.578125 -76.882812 6.234375 -77.1875 C 5.890625 -77.488281 5.671875 -78.25 5.578125 -79.46875 C 5.578125 -80.25 5.769531 -80.921875 6.15625 -81.484375 C 6.550781 -82.046875 7.140625 -82.328125 7.921875 -82.328125 C 13.546875 -82.066406 18.648438 -81.9375 23.234375 -81.9375 C 28.429688 -81.9375 33.84375 -82.066406 39.46875 -82.328125 C 40.25 -82.328125 40.832031 -82.046875 41.21875 -81.484375 C 41.613281 -80.921875 41.8125 -80.25 41.8125 -79.46875 C 41.726562 -78.164062 41.46875 -77.382812 41.03125 -77.125 C 40.59375 -76.863281 39.769531 -76.734375 38.5625 -76.734375 C 36.050781 -76.734375 34.1875 -76.28125 32.96875 -75.375 C 31.757812 -74.46875 31.003906 -73.34375 30.703125 -72 C 30.398438 -70.65625 30.207031 -68.898438 30.125 -66.734375 L 30.125 -43.75 L 70.890625 -43.75 L 70.890625 -66.734375 C 70.804688 -68.898438 70.613281 -70.65625 70.3125 -72 C 70.007812 -73.34375 69.25 -74.46875 68.03125 -75.375 C 66.820312 -76.28125 64.960938 -76.734375 62.453125 -76.734375 L 61.671875 -76.734375 C 60.804688 -76.734375 60.175781 -76.882812 59.78125 -77.1875 C 59.394531 -77.488281 59.160156 -78.25 59.078125 -79.46875 C 59.078125 -80.25 59.289062 -80.921875 59.71875 -81.484375 C 60.15625 -82.046875 60.722656 -82.328125 61.421875 -82.328125 C 67.046875 -82.066406 72.453125 -81.9375 77.640625 -81.9375 C 82.398438 -81.9375 87.550781 -82.066406 93.09375 -82.328125 C 93.875 -82.328125 94.457031 -82.046875 94.84375 -81.484375 C 95.238281 -80.921875 95.4375 -80.25 95.4375 -79.46875 C 95.351562 -78.164062 95.070312 -77.382812 94.59375 -77.125 C 94.113281 -76.863281 93.3125 -76.734375 92.1875 -76.734375 C 89.675781 -76.734375 87.789062 -76.28125 86.53125 -75.375 C 85.28125 -74.46875 84.503906 -73.34375 84.203125 -72 C 83.898438 -70.65625 83.707031 -68.898438 83.625 -66.734375 L 83.625 -15.1875 C 83.707031 -13.03125 83.898438 -11.28125 84.203125 -9.9375 C 84.503906 -8.59375 85.28125 -7.460938 86.53125 -6.546875 C 87.789062 -5.640625 89.675781 -5.1875 92.1875 -5.1875 L 92.96875 -5.1875 C 93.75 -5.1875 94.332031 -5.035156 94.71875 -4.734375 C 95.113281 -4.429688 95.351562 -3.675781 95.4375 -2.46875 C 95.4375 -1.6875 95.238281 -1.015625 94.84375 -0.453125 C 94.457031 0.109375 93.875 0.390625 93.09375 0.390625 C 87.550781 0.128906 82.359375 0 77.515625 0 C 72.410156 0 67.046875 0.128906 61.421875 0.390625 C 60.722656 0.390625 60.15625 0.109375 59.71875 -0.453125 C 59.289062 -1.015625 59.078125 -1.6875 59.078125 -2.46875 C 59.160156 -3.769531 59.441406 -4.546875 59.921875 -4.796875 C 60.398438 -5.054688 61.242188 -5.1875 62.453125 -5.1875 C 64.960938 -5.1875 66.820312 -5.640625 68.03125 -6.546875 C 69.25 -7.460938 70.007812 -8.59375 70.3125 -9.9375 C 70.613281 -11.28125 70.804688 -13.03125 70.890625 -15.1875 L 70.890625 -38.171875 L 30.125 -38.171875 L 30.125 -15.1875 C 30.207031 -13.03125 30.398438 -11.28125 30.703125 -9.9375 C 31.003906 -8.59375 31.757812 -7.460938 32.96875 -6.546875 C 34.1875 -5.640625 36.050781 -5.1875 38.5625 -5.1875 L 39.34375 -5.1875 C 40.207031 -5.1875 40.8125 -5.035156 41.15625 -4.734375 C 41.507812 -4.429688 41.726562 -3.675781 41.8125 -2.46875 C 41.8125 -1.6875 41.613281 -1.015625 41.21875 -0.453125 C 40.832031 0.109375 40.25 0.390625 39.46875 0.390625 C 33.925781 0.128906 28.5625 0 23.375 0 C 18.695312 0 13.546875 0.128906 7.921875 0.390625 Z M 7.921875 0.390625 "/></g></g></g><g fill="#000000" fill-opacity="1"><g transform="translate(255.084037, 118.887435)"><g><path d="M 0.78125 0.390625 C 0 0.390625 -0.582031 0.109375 -0.96875 -0.453125 C -1.363281 -1.015625 -1.5625 -1.6875 -1.5625 -2.46875 C -1.46875 -3.769531 -1.203125 -4.546875 -0.765625 -4.796875 C -0.335938 -5.054688 0.175781 -5.1875 0.78125 -5.1875 C 1.382812 -5.1875 1.773438 -5.1875 1.953125 -5.1875 C 4.546875 -5.1875 6.445312 -5.859375 7.65625 -7.203125 C 8.875 -8.546875 9.847656 -10.0625 10.578125 -11.75 C 11.316406 -13.4375 11.816406 -14.582031 12.078125 -15.1875 L 34.796875 -68.953125 C 35.316406 -70.242188 35.578125 -71.28125 35.578125 -72.0625 C 35.578125 -73.625 34.96875 -74.75 33.75 -75.4375 C 32.539062 -76.132812 30.859375 -76.695312 28.703125 -77.125 C 27.222656 -77.382812 26.3125 -77.644531 25.96875 -77.90625 C 25.625 -78.164062 25.453125 -78.898438 25.453125 -80.109375 C 25.453125 -81.148438 25.734375 -81.84375 26.296875 -82.1875 C 26.859375 -82.53125 27.742188 -82.703125 28.953125 -82.703125 C 33.285156 -82.703125 36.726562 -82.378906 39.28125 -81.734375 C 41.832031 -81.085938 44.0625 -79.789062 45.96875 -77.84375 C 47.875 -75.894531 49.644531 -72.929688 51.28125 -68.953125 L 73.109375 -15.1875 C 74.398438 -11.894531 75.648438 -9.425781 76.859375 -7.78125 C 78.078125 -6.144531 79.898438 -5.28125 82.328125 -5.1875 L 83.09375 -5.1875 C 83.957031 -5.1875 84.5625 -5.035156 84.90625 -4.734375 C 85.257812 -4.429688 85.476562 -3.675781 85.5625 -2.46875 C 85.5625 -1.6875 85.363281 -1.015625 84.96875 -0.453125 C 84.582031 0.109375 84.003906 0.390625 83.234375 0.390625 C 77.691406 0.128906 72.929688 0 68.953125 0 C 63.753906 0 58.382812 0.128906 52.84375 0.390625 C 52.0625 0.390625 51.476562 0.109375 51.09375 -0.453125 C 50.707031 -1.015625 50.515625 -1.6875 50.515625 -2.46875 C 50.597656 -3.675781 50.8125 -4.429688 51.15625 -4.734375 C 51.5 -5.035156 52.101562 -5.1875 52.96875 -5.1875 C 55.914062 -5.1875 57.992188 -5.46875 59.203125 -6.03125 C 60.421875 -6.59375 61.03125 -7.613281 61.03125 -9.09375 C 61.03125 -10.21875 60.507812 -12.25 59.46875 -15.1875 L 55.046875 -25.96875 L 22.984375 -25.96875 C 20.816406 -20.601562 19.582031 -17.488281 19.28125 -16.625 C 18.976562 -15.757812 18.828125 -15.28125 18.828125 -15.1875 C 17.785156 -11.894531 17.265625 -9.773438 17.265625 -8.828125 C 17.265625 -7.359375 17.914062 -6.382812 19.21875 -5.90625 C 20.519531 -5.425781 22.988281 -5.1875 26.625 -5.1875 L 27.390625 -5.1875 C 28.265625 -5.1875 28.875 -5.035156 29.21875 -4.734375 C 29.5625 -4.429688 29.773438 -3.675781 29.859375 -2.46875 C 29.859375 -1.6875 29.664062 -1.015625 29.28125 -0.453125 C 28.894531 0.109375 28.3125 0.390625 27.53125 0.390625 C 21.988281 0.128906 17.269531 0 13.375 0 C 10.601562 0 6.40625 0.128906 0.78125 0.390625 Z M 25.453125 -31.546875 L 52.71875 -31.546875 L 39.609375 -64.921875 L 39.21875 -64.921875 Z M 25.453125 -31.546875 "/></g></g></g><g fill="#000000" fill-opacity="1"><g transform="translate(373.242415, 118.887435)"><g><path d="M 46.484375 2.59375 C 39.128906 2.59375 32.398438 0.84375 26.296875 -2.65625 C 20.191406 -6.164062 15.34375 -11.164062 11.75 -17.65625 C 8.15625 -24.144531 6.359375 -31.71875 6.359375 -40.375 C 6.359375 -49.125 8.085938 -56.828125 11.546875 -63.484375 C 15.015625 -70.148438 19.953125 -75.320312 26.359375 -79 C 32.765625 -82.6875 40.253906 -84.53125 48.828125 -84.53125 C 56.265625 -84.53125 62.882812 -83.035156 68.6875 -80.046875 C 74.488281 -77.054688 77.390625 -72.445312 77.390625 -66.21875 C 77.472656 -62.320312 76.300781 -59.007812 73.875 -56.28125 C 71.457031 -53.5625 68.210938 -52.203125 64.140625 -52.203125 C 62.585938 -52.203125 61.269531 -52.484375 60.1875 -53.046875 C 59.101562 -53.609375 58.300781 -54.273438 57.78125 -55.046875 C 57.257812 -55.828125 57.039062 -56.4375 57.125 -56.875 C 57.125 -57.039062 57.726562 -57.515625 58.9375 -58.296875 C 60.15625 -59.078125 61.238281 -60.160156 62.1875 -61.546875 C 63.144531 -62.929688 63.625 -64.617188 63.625 -66.609375 C 63.625 -70.503906 62.300781 -73.597656 59.65625 -75.890625 C 57.019531 -78.179688 53.363281 -79.328125 48.6875 -79.328125 C 43.40625 -79.328125 38.707031 -77.832031 34.59375 -74.84375 C 30.488281 -71.863281 27.285156 -67.492188 24.984375 -61.734375 C 22.691406 -55.984375 21.546875 -49.125 21.546875 -41.15625 C 21.546875 -34.226562 22.78125 -27.929688 25.25 -22.265625 C 27.71875 -16.597656 31.203125 -12.097656 35.703125 -8.765625 C 40.203125 -5.429688 45.351562 -3.765625 51.15625 -3.765625 C 55.832031 -3.765625 59.835938 -4.738281 63.171875 -6.6875 C 66.503906 -8.632812 69.507812 -11.769531 72.1875 -16.09375 C 72.625 -16.875 73.234375 -17.265625 74.015625 -17.265625 C 74.703125 -17.265625 75.476562 -17.003906 76.34375 -16.484375 C 77.726562 -15.535156 78.421875 -14.585938 78.421875 -13.640625 C 78.421875 -13.117188 78.25 -12.679688 77.90625 -12.328125 C 74.613281 -8.179688 71.515625 -5.046875 68.609375 -2.921875 C 65.710938 -0.796875 62.578125 0.648438 59.203125 1.421875 C 55.828125 2.203125 51.585938 2.59375 46.484375 2.59375 Z M 46.484375 2.59375 "/></g></g></g><g fill="#000000" fill-opacity="1"><g transform="translate(489.583007, 118.887435)"><g><path d="M 23.234375 0.390625 C 22.460938 0.390625 21.878906 0.109375 21.484375 -0.453125 C 21.097656 -1.015625 20.90625 -1.6875 20.90625 -2.46875 C 20.988281 -3.769531 21.242188 -4.546875 21.671875 -4.796875 C 22.109375 -5.054688 22.9375 -5.1875 24.15625 -5.1875 C 26.664062 -5.1875 28.523438 -5.640625 29.734375 -6.546875 C 30.941406 -7.460938 31.695312 -8.59375 32 -9.9375 C 32.300781 -11.28125 32.5 -13.03125 32.59375 -15.1875 L 32.59375 -77.125 L 23.625 -77.125 C 20.6875 -77.039062 18.414062 -76.410156 16.8125 -75.234375 C 15.207031 -74.066406 13.992188 -72.335938 13.171875 -70.046875 C 12.359375 -67.753906 11.644531 -64.488281 11.03125 -60.25 C 10.945312 -59.550781 10.425781 -58.984375 9.46875 -58.546875 C 8.519531 -58.117188 7.523438 -57.90625 6.484375 -57.90625 C 5.710938 -57.90625 5 -58.144531 4.34375 -58.625 C 3.695312 -59.101562 3.375 -59.726562 3.375 -60.5 L 3.765625 -78.8125 C 3.765625 -80.894531 4.929688 -81.9375 7.265625 -81.9375 L 70.765625 -81.9375 C 73.015625 -81.9375 74.140625 -80.894531 74.140625 -78.8125 L 74.65625 -60.5 C 74.65625 -59.726562 74.304688 -59.101562 73.609375 -58.625 C 72.921875 -58.144531 72.1875 -57.90625 71.40625 -57.90625 C 70.375 -57.90625 69.398438 -58.117188 68.484375 -58.546875 C 67.578125 -58.984375 67.082031 -59.550781 67 -60.25 C 66.300781 -64.570312 65.5625 -67.859375 64.78125 -70.109375 C 64.007812 -72.359375 62.800781 -74.066406 61.15625 -75.234375 C 59.507812 -76.410156 57.21875 -77.039062 54.28125 -77.125 L 45.4375 -77.125 L 45.4375 -15.1875 C 45.53125 -13.03125 45.726562 -11.28125 46.03125 -9.9375 C 46.332031 -8.59375 47.085938 -7.460938 48.296875 -6.546875 C 49.515625 -5.640625 51.378906 -5.1875 53.890625 -5.1875 L 54.671875 -5.1875 C 55.441406 -5.1875 56.019531 -5.035156 56.40625 -4.734375 C 56.800781 -4.429688 57.039062 -3.675781 57.125 -2.46875 C 57.125 -1.6875 56.929688 -1.015625 56.546875 -0.453125 C 56.160156 0.109375 55.578125 0.390625 54.796875 0.390625 C 49.253906 0.128906 44.144531 0 39.46875 0 C 34.28125 0 28.867188 0.128906 23.234375 0.390625 Z M 23.234375 0.390625 "/></g></g></g><g fill="#000000" fill-opacity="1"><g transform="translate(600.859738, 118.887435)"><g><path d="M 0.78125 0.390625 C 0 0.390625 -0.582031 0.109375 -0.96875 -0.453125 C -1.363281 -1.015625 -1.5625 -1.6875 -1.5625 -2.46875 C -1.46875 -3.769531 -1.203125 -4.546875 -0.765625 -4.796875 C -0.335938 -5.054688 0.175781 -5.1875 0.78125 -5.1875 C 1.382812 -5.1875 1.773438 -5.1875 1.953125 -5.1875 C 4.546875 -5.1875 6.445312 -5.859375 7.65625 -7.203125 C 8.875 -8.546875 9.847656 -10.0625 10.578125 -11.75 C 11.316406 -13.4375 11.816406 -14.582031 12.078125 -15.1875 L 34.796875 -68.953125 C 35.316406 -70.242188 35.578125 -71.28125 35.578125 -72.0625 C 35.578125 -73.625 34.96875 -74.75 33.75 -75.4375 C 32.539062 -76.132812 30.859375 -76.695312 28.703125 -77.125 C 27.222656 -77.382812 26.3125 -77.644531 25.96875 -77.90625 C 25.625 -78.164062 25.453125 -78.898438 25.453125 -80.109375 C 25.453125 -81.148438 25.734375 -81.84375 26.296875 -82.1875 C 26.859375 -82.53125 27.742188 -82.703125 28.953125 -82.703125 C 33.285156 -82.703125 36.726562 -82.378906 39.28125 -81.734375 C 41.832031 -81.085938 44.0625 -79.789062 45.96875 -77.84375 C 47.875 -75.894531 49.644531 -72.929688 51.28125 -68.953125 L 73.109375 -15.1875 C 74.398438 -11.894531 75.648438 -9.425781 76.859375 -7.78125 C 78.078125 -6.144531 79.898438 -5.28125 82.328125 -5.1875 L 83.09375 -5.1875 C 83.957031 -5.1875 84.5625 -5.035156 84.90625 -4.734375 C 85.257812 -4.429688 85.476562 -3.675781 85.5625 -2.46875 C 85.5625 -1.6875 85.363281 -1.015625 84.96875 -0.453125 C 84.582031 0.109375 84.003906 0.390625 83.234375 0.390625 C 77.691406 0.128906 72.929688 0 68.953125 0 C 63.753906 0 58.382812 0.128906 52.84375 0.390625 C 52.0625 0.390625 51.476562 0.109375 51.09375 -0.453125 C 50.707031 -1.015625 50.515625 -1.6875 50.515625 -2.46875 C 50.597656 -3.675781 50.8125 -4.429688 51.15625 -4.734375 C 51.5 -5.035156 52.101562 -5.1875 52.96875 -5.1875 C 55.914062 -5.1875 57.992188 -5.46875 59.203125 -6.03125 C 60.421875 -6.59375 61.03125 -7.613281 61.03125 -9.09375 C 61.03125 -10.21875 60.507812 -12.25 59.46875 -15.1875 L 55.046875 -25.96875 L 22.984375 -25.96875 C 20.816406 -20.601562 19.582031 -17.488281 19.28125 -16.625 C 18.976562 -15.757812 18.828125 -15.28125 18.828125 -15.1875 C 17.785156 -11.894531 17.265625 -9.773438 17.265625 -8.828125 C 17.265625 -7.359375 17.914062 -6.382812 19.21875 -5.90625 C 20.519531 -5.425781 22.988281 -5.1875 26.625 -5.1875 L 27.390625 -5.1875 C 28.265625 -5.1875 28.875 -5.035156 29.21875 -4.734375 C 29.5625 -4.429688 29.773438 -3.675781 29.859375 -2.46875 C 29.859375 -1.6875 29.664062 -1.015625 29.28125 -0.453125 C 28.894531 0.109375 28.3125 0.390625 27.53125 0.390625 C 21.988281 0.128906 17.269531 0 13.375 0 C 10.601562 0 6.40625 0.128906 0.78125 0.390625 Z M 25.453125 -31.546875 L 52.71875 -31.546875 L 39.609375 -64.921875 L 39.21875 -64.921875 Z M 25.453125 -31.546875 "/></g></g></g><g fill="#000000" fill-opacity="1"><g transform="translate(719.018159, 118.887435)"><g><path d="M 46.484375 2.59375 C 39.128906 2.59375 32.398438 0.84375 26.296875 -2.65625 C 20.191406 -6.164062 15.34375 -11.164062 11.75 -17.65625 C 8.15625 -24.144531 6.359375 -31.71875 6.359375 -40.375 C 6.359375 -49.125 8.085938 -56.828125 11.546875 -63.484375 C 15.015625 -70.148438 19.953125 -75.320312 26.359375 -79 C 32.765625 -82.6875 40.253906 -84.53125 48.828125 -84.53125 C 56.265625 -84.53125 62.882812 -83.035156 68.6875 -80.046875 C 74.488281 -77.054688 77.390625 -72.445312 77.390625 -66.21875 C 77.472656 -62.320312 76.300781 -59.007812 73.875 -56.28125 C 71.457031 -53.5625 68.210938 -52.203125 64.140625 -52.203125 C 62.585938 -52.203125 61.269531 -52.484375 60.1875 -53.046875 C 59.101562 -53.609375 58.300781 -54.273438 57.78125 -55.046875 C 57.257812 -55.828125 57.039062 -56.4375 57.125 -56.875 C 57.125 -57.039062 57.726562 -57.515625 58.9375 -58.296875 C 60.15625 -59.078125 61.238281 -60.160156 62.1875 -61.546875 C 63.144531 -62.929688 63.625 -64.617188 63.625 -66.609375 C 63.625 -70.503906 62.300781 -73.597656 59.65625 -75.890625 C 57.019531 -78.179688 53.363281 -79.328125 48.6875 -79.328125 C 43.40625 -79.328125 38.707031 -77.832031 34.59375 -74.84375 C 30.488281 -71.863281 27.285156 -67.492188 24.984375 -61.734375 C 22.691406 -55.984375 21.546875 -49.125 21.546875 -41.15625 C 21.546875 -34.226562 22.78125 -27.929688 25.25 -22.265625 C 27.71875 -16.597656 31.203125 -12.097656 35.703125 -8.765625 C 40.203125 -5.429688 45.351562 -3.765625 51.15625 -3.765625 C 55.832031 -3.765625 59.835938 -4.738281 63.171875 -6.6875 C 66.503906 -8.632812 69.507812 -11.769531 72.1875 -16.09375 C 72.625 -16.875 73.234375 -17.265625 74.015625 -17.265625 C 74.703125 -17.265625 75.476562 -17.003906 76.34375 -16.484375 C 77.726562 -15.535156 78.421875 -14.585938 78.421875 -13.640625 C 78.421875 -13.117188 78.25 -12.679688 77.90625 -12.328125 C 74.613281 -8.179688 71.515625 -5.046875 68.609375 -2.921875 C 65.710938 -0.796875 62.578125 0.648438 59.203125 1.421875 C 55.828125 2.203125 51.585938 2.59375 46.484375 2.59375 Z M 46.484375 2.59375 "/></g></g></g><g fill="#000000" fill-opacity="1"><g transform="translate(835.358752, 118.887435)"><g><path d="M 8.953125 0.390625 C 7.398438 0.304688 6.625 -0.644531 6.625 -2.46875 C 6.707031 -3.769531 6.960938 -4.546875 7.390625 -4.796875 C 7.828125 -5.054688 8.65625 -5.1875 9.875 -5.1875 C 12.382812 -5.1875 14.242188 -5.640625 15.453125 -6.546875 C 16.660156 -7.460938 17.414062 -8.59375 17.71875 -9.9375 C 18.019531 -11.28125 18.21875 -13.03125 18.3125 -15.1875 L 18.3125 -66.734375 C 18.21875 -68.898438 18.019531 -70.65625 17.71875 -72 C 17.414062 -73.34375 16.660156 -74.46875 15.453125 -75.375 C 14.242188 -76.28125 12.382812 -76.734375 9.875 -76.734375 L 9.09375 -76.734375 C 8.226562 -76.734375 7.617188 -76.882812 7.265625 -77.1875 C 6.921875 -77.488281 6.707031 -78.25 6.625 -79.46875 C 6.625 -80.25 6.816406 -80.921875 7.203125 -81.484375 C 7.597656 -82.046875 8.179688 -82.328125 8.953125 -82.328125 C 14.492188 -82.066406 19.601562 -81.9375 24.28125 -81.9375 C 29.476562 -81.9375 34.890625 -82.066406 40.515625 -82.328125 C 41.296875 -82.328125 41.878906 -82.046875 42.265625 -81.484375 C 42.648438 -80.921875 42.84375 -80.25 42.84375 -79.46875 C 42.757812 -78.164062 42.5 -77.382812 42.0625 -77.125 C 41.632812 -76.863281 40.816406 -76.734375 39.609375 -76.734375 C 37.097656 -76.734375 35.234375 -76.28125 34.015625 -75.375 C 32.804688 -74.46875 32.050781 -73.34375 31.75 -72 C 31.445312 -70.65625 31.25 -68.898438 31.15625 -66.734375 L 31.15625 -20.78125 L 68.421875 -67.78125 C 71.710938 -71.9375 74.3125 -74.960938 76.21875 -76.859375 C 78.125 -78.765625 79.789062 -80.0625 81.21875 -80.75 C 82.644531 -81.445312 84.3125 -81.882812 86.21875 -82.0625 C 88.289062 -82.238281 90.5 -82.328125 92.84375 -82.328125 C 94.394531 -82.328125 95.171875 -81.375 95.171875 -79.46875 C 95.085938 -78.164062 94.828125 -77.382812 94.390625 -77.125 C 93.960938 -76.863281 93.140625 -76.734375 91.921875 -76.734375 C 89.410156 -76.734375 87.550781 -76.28125 86.34375 -75.375 C 85.132812 -74.46875 84.378906 -73.34375 84.078125 -72 C 83.773438 -70.65625 83.578125 -68.898438 83.484375 -66.734375 L 83.484375 -15.1875 C 83.578125 -13.03125 83.773438 -11.28125 84.078125 -9.9375 C 84.378906 -8.59375 85.132812 -7.460938 86.34375 -6.546875 C 87.550781 -5.640625 89.410156 -5.1875 91.921875 -5.1875 L 92.703125 -5.1875 C 93.566406 -5.1875 94.171875 -5.035156 94.515625 -4.734375 C 94.867188 -4.429688 95.085938 -3.675781 95.171875 -2.46875 C 95.171875 -1.6875 94.972656 -1.015625 94.578125 -0.453125 C 94.191406 0.109375 93.613281 0.390625 92.84375 0.390625 C 87.300781 0.128906 82.191406 0 77.515625 0 C 72.410156 0 67.046875 0.128906 61.421875 0.390625 C 60.640625 0.390625 60.050781 0.109375 59.65625 -0.453125 C 59.269531 -1.015625 59.078125 -1.6875 59.078125 -2.46875 C 59.160156 -3.769531 59.441406 -4.546875 59.921875 -4.796875 C 60.398438 -5.054688 61.203125 -5.1875 62.328125 -5.1875 C 64.835938 -5.1875 66.695312 -5.640625 67.90625 -6.546875 C 69.113281 -7.460938 69.867188 -8.59375 70.171875 -9.9375 C 70.484375 -11.28125 70.679688 -13.03125 70.765625 -15.1875 L 70.765625 -61.03125 L 33.375 -14.28125 C 30.082031 -10.21875 27.546875 -7.253906 25.765625 -5.390625 C 23.992188 -3.523438 22.4375 -2.179688 21.09375 -1.359375 C 19.757812 -0.535156 18.222656 -0.0390625 16.484375 0.125 C 13.628906 0.382812 11.117188 0.472656 8.953125 0.390625 Z M 8.953125 0.390625 "/></g></g></g><g fill="#000000" fill-opacity="1"><g transform="translate(970.526458, 118.887435)"><g><path d="M 15.578125 1.296875 C 12.722656 1.296875 10.039062 0.625 7.53125 -0.71875 C 5.019531 -2.0625 3.460938 -4.113281 2.859375 -6.875 L 2.859375 -7.40625 C 2.859375 -8.09375 3.03125 -8.675781 3.375 -9.15625 C 3.71875 -9.632812 4.191406 -9.875 4.796875 -9.875 C 5.234375 -9.875 5.625 -9.695312 5.96875 -9.34375 C 6.3125 -9 6.742188 -8.484375 7.265625 -7.796875 C 8.046875 -6.753906 8.757812 -5.953125 9.40625 -5.390625 C 10.0625 -4.828125 10.992188 -4.546875 12.203125 -4.546875 C 14.710938 -4.546875 16.875 -5.648438 18.6875 -7.859375 C 20.507812 -10.066406 22.675781 -13.503906 25.1875 -18.171875 L 28.703125 -24.28125 C 30.773438 -27.738281 33.019531 -30.679688 35.4375 -33.109375 C 37.863281 -35.535156 40.679688 -37.351562 43.890625 -38.5625 L 43.890625 -38.953125 C 36.703125 -39.128906 30.296875 -41.378906 24.671875 -45.703125 C 20.335938 -49.421875 18.171875 -54.179688 18.171875 -59.984375 C 18.171875 -68.117188 21.242188 -73.832031 27.390625 -77.125 C 33.535156 -80.414062 40.289062 -82.0625 47.65625 -82.0625 L 50.375 -81.9375 L 70.5 -81.9375 C 75.351562 -81.9375 80.550781 -82.066406 86.09375 -82.328125 C 86.863281 -82.328125 87.441406 -82.046875 87.828125 -81.484375 C 88.222656 -80.921875 88.421875 -80.25 88.421875 -79.46875 C 88.335938 -78.164062 88.054688 -77.382812 87.578125 -77.125 C 87.097656 -76.863281 86.253906 -76.734375 85.046875 -76.734375 C 82.535156 -76.734375 80.671875 -76.28125 79.453125 -75.375 C 78.242188 -74.46875 77.488281 -73.34375 77.1875 -72 C 76.882812 -70.65625 76.691406 -68.898438 76.609375 -66.734375 L 76.609375 -15.1875 C 76.691406 -13.03125 76.882812 -11.28125 77.1875 -9.9375 C 77.488281 -8.59375 78.242188 -7.460938 79.453125 -6.546875 C 80.671875 -5.640625 82.535156 -5.1875 85.046875 -5.1875 L 85.828125 -5.1875 C 86.691406 -5.1875 87.316406 -5.035156 87.703125 -4.734375 C 88.097656 -4.429688 88.335938 -3.675781 88.421875 -2.46875 C 88.421875 -1.6875 88.222656 -1.015625 87.828125 -0.453125 C 87.441406 0.109375 86.863281 0.390625 86.09375 0.390625 C 80.550781 0.128906 75.398438 0 70.640625 0 C 65.441406 0 60.03125 0.128906 54.40625 0.390625 C 53.625 0.390625 53.035156 0.109375 52.640625 -0.453125 C 52.253906 -1.015625 52.0625 -1.6875 52.0625 -2.46875 C 52.15625 -3.769531 52.4375 -4.546875 52.90625 -4.796875 C 53.382812 -5.054688 54.1875 -5.1875 55.3125 -5.1875 C 57.820312 -5.1875 59.679688 -5.640625 60.890625 -6.546875 C 62.109375 -7.460938 62.890625 -8.566406 63.234375 -9.859375 C 63.578125 -11.160156 63.796875 -12.9375 63.890625 -15.1875 L 63.890625 -37 L 60.765625 -37 C 57.472656 -37 54.679688 -36.265625 52.390625 -34.796875 C 50.097656 -33.328125 48.191406 -31.46875 46.671875 -29.21875 C 45.160156 -26.96875 43.5 -24.023438 41.6875 -20.390625 C 39.257812 -15.535156 37.15625 -11.703125 35.375 -8.890625 C 33.601562 -6.078125 31.09375 -3.675781 27.84375 -1.6875 C 24.601562 0.300781 20.515625 1.296875 15.578125 1.296875 Z M 63.890625 -41.8125 L 63.890625 -66.734375 C 63.890625 -69.847656 63.628906 -72.097656 63.109375 -73.484375 C 62.585938 -74.867188 61.675781 -75.753906 60.375 -76.140625 C 59.070312 -76.535156 57.082031 -76.734375 54.40625 -76.734375 C 47.476562 -76.734375 42.128906 -75.195312 38.359375 -72.125 C 34.597656 -69.050781 32.71875 -64.703125 32.71875 -59.078125 C 32.71875 -51.722656 35.207031 -47.003906 40.1875 -44.921875 C 45.164062 -42.847656 50.859375 -41.8125 57.265625 -41.8125 Z M 63.890625 -41.8125 "/></g></g></g><g fill="#000000" fill-opacity="1"><g transform="translate(1098.942403, 118.887435)"><g/></g></g><g fill="#000000" fill-opacity="1"><g transform="translate(1161.268579, 118.887435)"><g><path d="M 50.515625 2.59375 C 43.242188 2.59375 36.507812 1.335938 30.3125 -1.171875 C 24.125 -3.679688 19.125 -7.507812 15.3125 -12.65625 C 11.507812 -17.8125 9.609375 -24.238281 9.609375 -31.9375 C 9.609375 -38.34375 11.46875 -43.90625 15.1875 -48.625 C 18.914062 -53.34375 24.195312 -56.265625 31.03125 -57.390625 L 31.03125 -57.78125 C 25.582031 -61.851562 22.859375 -66.914062 22.859375 -72.96875 C 22.859375 -78.6875 24.929688 -83.273438 29.078125 -86.734375 C 33.234375 -90.191406 38.945312 -91.921875 46.21875 -91.921875 C 51.414062 -91.921875 55.785156 -90.773438 59.328125 -88.484375 C 62.878906 -86.191406 64.65625 -82.835938 64.65625 -78.421875 C 64.65625 -75.648438 63.851562 -73.269531 62.25 -71.28125 C 60.65625 -69.289062 58.515625 -68.296875 55.828125 -68.296875 C 54.179688 -68.296875 52.773438 -68.726562 51.609375 -69.59375 C 50.441406 -70.457031 49.859375 -71.191406 49.859375 -71.796875 C 49.859375 -71.890625 50.25 -72.28125 51.03125 -72.96875 C 51.8125 -73.664062 52.523438 -74.507812 53.171875 -75.5 C 53.816406 -76.5 54.140625 -77.644531 54.140625 -78.9375 C 54.140625 -81.445312 53.253906 -83.457031 51.484375 -84.96875 C 49.710938 -86.488281 47.484375 -87.25 44.796875 -87.25 C 40.640625 -87.25 37.414062 -85.992188 35.125 -83.484375 C 32.832031 -80.972656 31.6875 -77.859375 31.6875 -74.140625 C 31.6875 -67.816406 34.328125 -63.226562 39.609375 -60.375 L 43.890625 -60.375 C 45.273438 -60.375 46.203125 -60.222656 46.671875 -59.921875 C 47.148438 -59.617188 47.429688 -58.734375 47.515625 -57.265625 C 47.515625 -56.398438 47.296875 -55.660156 46.859375 -55.046875 C 46.429688 -54.441406 45.832031 -54.140625 45.0625 -54.140625 L 40.515625 -54.140625 C 34.890625 -53.617188 30.625 -51.410156 27.71875 -47.515625 C 24.820312 -43.628906 23.375 -39.128906 23.375 -34.015625 C 23.375 -28.472656 24.671875 -23.625 27.265625 -19.46875 C 29.859375 -15.320312 33.472656 -12.117188 38.109375 -9.859375 C 42.742188 -7.609375 48.003906 -6.484375 53.890625 -6.484375 C 60.203125 -6.484375 66 -7.800781 71.28125 -10.4375 C 76.5625 -13.082031 80.757812 -16.722656 83.875 -21.359375 C 86.988281 -25.992188 88.546875 -31.207031 88.546875 -37 C 88.546875 -42.019531 87.160156 -46.390625 84.390625 -50.109375 C 81.628906 -53.835938 77.820312 -55.703125 72.96875 -55.703125 C 70.457031 -55.703125 68.007812 -54.988281 65.625 -53.5625 C 63.25 -52.132812 62.0625 -50.117188 62.0625 -47.515625 C 62.0625 -46.128906 62.425781 -44.9375 63.15625 -43.9375 C 63.894531 -42.945312 65.003906 -42.320312 66.484375 -42.0625 C 68.734375 -41.8125 70.550781 -42.25 71.9375 -43.375 C 73.320312 -44.5 74.097656 -45.101562 74.265625 -45.1875 C 74.703125 -45.101562 75.242188 -44.519531 75.890625 -43.4375 C 76.546875 -42.351562 76.875 -41.117188 76.875 -39.734375 C 76.875 -37.140625 75.984375 -35.101562 74.203125 -33.625 C 72.429688 -32.15625 70.25 -31.421875 67.65625 -31.421875 C 64.363281 -31.421875 61.71875 -32.738281 59.71875 -35.375 C 57.726562 -38.019531 56.734375 -41.421875 56.734375 -45.578125 C 56.734375 -51.804688 58.378906 -56.566406 61.671875 -59.859375 C 64.960938 -63.148438 68.859375 -65.378906 73.359375 -66.546875 C 77.859375 -67.710938 83.703125 -68.726562 90.890625 -69.59375 C 97.210938 -70.195312 101.84375 -70.976562 104.78125 -71.9375 C 106.6875 -72.625 108.265625 -73.59375 109.515625 -74.84375 C 110.773438 -76.101562 111.40625 -77.515625 111.40625 -79.078125 C 111.40625 -81.671875 109.804688 -83.1875 106.609375 -83.625 C 104.347656 -83.882812 102.523438 -83.453125 101.140625 -82.328125 C 99.765625 -81.203125 98.988281 -80.59375 98.8125 -80.5 C 98.289062 -80.59375 97.679688 -81.285156 96.984375 -82.578125 C 96.296875 -83.878906 96.082031 -85.351562 96.34375 -87 C 96.6875 -89.414062 97.722656 -91.226562 99.453125 -92.4375 C 101.191406 -93.65625 103.226562 -94.265625 105.5625 -94.265625 C 107.46875 -94.265625 109.066406 -93.960938 110.359375 -93.359375 C 112.441406 -92.398438 113.957031 -90.882812 114.90625 -88.8125 C 115.863281 -86.738281 116.34375 -84.445312 116.34375 -81.9375 C 116.34375 -77.257812 114.847656 -73.164062 111.859375 -69.65625 C 108.867188 -66.15625 104.863281 -63.472656 99.84375 -61.609375 C 94.820312 -59.742188 89.285156 -58.8125 83.234375 -58.8125 C 90.671875 -52.5 94.390625 -45.1875 94.390625 -36.875 C 94.390625 -28.914062 92.460938 -21.945312 88.609375 -15.96875 C 84.765625 -10 79.507812 -5.410156 72.84375 -2.203125 C 66.175781 0.992188 58.734375 2.59375 50.515625 2.59375 Z M 50.515625 2.59375 "/></g></g></g><g fill="#000000" fill-opacity="1"><g transform="translate(1312.536783, 118.887435)"><g/></g></g><g fill="#000000" fill-opacity="1"><g transform="translate(1374.86287, 118.887435)"><g><path d="M 7.796875 0.390625 C 7.097656 0.390625 6.53125 0.109375 6.09375 -0.453125 C 5.664062 -1.015625 5.453125 -1.6875 5.453125 -2.46875 C 5.535156 -3.769531 5.816406 -4.546875 6.296875 -4.796875 C 6.773438 -5.054688 7.617188 -5.1875 8.828125 -5.1875 C 11.335938 -5.1875 13.195312 -5.640625 14.40625 -6.546875 C 15.625 -7.460938 16.382812 -8.59375 16.6875 -9.9375 C 16.988281 -11.28125 17.179688 -13.03125 17.265625 -15.1875 L 17.265625 -66.734375 C 17.179688 -68.898438 16.988281 -70.65625 16.6875 -72 C 16.382812 -73.34375 15.625 -74.46875 14.40625 -75.375 C 13.195312 -76.28125 11.335938 -76.734375 8.828125 -76.734375 L 8.046875 -76.734375 C 7.179688 -76.734375 6.550781 -76.882812 6.15625 -77.1875 C 5.769531 -77.488281 5.535156 -78.25 5.453125 -79.46875 C 5.453125 -80.25 5.664062 -80.921875 6.09375 -81.484375 C 6.53125 -82.046875 7.097656 -82.328125 7.796875 -82.328125 C 13.421875 -82.066406 18.613281 -81.9375 23.375 -81.9375 L 42.84375 -81.9375 C 50.375 -81.9375 57.664062 -80.375 64.71875 -77.25 C 71.78125 -74.132812 75.3125 -67.90625 75.3125 -58.5625 C 75.3125 -53.363281 73.75 -48.726562 70.625 -44.65625 C 67.507812 -40.59375 63.460938 -37.4375 58.484375 -35.1875 C 53.515625 -32.9375 48.347656 -31.8125 42.984375 -31.8125 C 38.046875 -31.8125 33.71875 -32.503906 30 -33.890625 L 30 -15.1875 C 30.082031 -13.03125 30.273438 -11.28125 30.578125 -9.9375 C 30.878906 -8.59375 31.632812 -7.460938 32.84375 -6.546875 C 34.0625 -5.640625 35.925781 -5.1875 38.4375 -5.1875 L 39.21875 -5.1875 C 40.082031 -5.1875 40.707031 -5.035156 41.09375 -4.734375 C 41.488281 -4.429688 41.726562 -3.675781 41.8125 -2.46875 C 41.8125 -1.6875 41.613281 -1.015625 41.21875 -0.453125 C 40.832031 0.109375 40.25 0.390625 39.46875 0.390625 C 33.925781 0.128906 28.515625 0 23.234375 0 C 18.566406 0 13.421875 0.128906 7.796875 0.390625 Z M 39.21875 -37.65625 C 42.332031 -37.65625 45.554688 -38.28125 48.890625 -39.53125 C 52.222656 -40.789062 55.054688 -42.957031 57.390625 -46.03125 C 59.722656 -49.101562 60.890625 -53.148438 60.890625 -58.171875 C 60.890625 -65.785156 58.46875 -70.847656 53.625 -73.359375 C 48.78125 -75.867188 43.628906 -77.125 38.171875 -77.125 C 35.921875 -77.125 34.234375 -76.882812 33.109375 -76.40625 C 31.984375 -75.9375 31.179688 -75.007812 30.703125 -73.625 C 30.234375 -72.238281 30 -70.070312 30 -67.125 L 30 -39.078125 C 32.070312 -38.128906 35.144531 -37.65625 39.21875 -37.65625 Z M 39.21875 -37.65625 "/></g></g></g><g fill="#000000" fill-opacity="1"><g transform="translate(1486.659024, 118.887435)"><g><path d="M 47.515625 2.59375 C 39.296875 2.59375 32.046875 0.625 25.765625 -3.3125 C 19.492188 -7.25 14.648438 -12.460938 11.234375 -18.953125 C 7.816406 -25.453125 6.109375 -32.421875 6.109375 -39.859375 C 6.109375 -48.953125 8.160156 -56.875 12.265625 -63.625 C 16.378906 -70.375 21.640625 -75.546875 28.046875 -79.140625 C 34.453125 -82.734375 40.941406 -84.53125 47.515625 -84.53125 C 55.828125 -84.53125 63.164062 -82.5625 69.53125 -78.625 C 75.894531 -74.6875 80.785156 -69.488281 84.203125 -63.03125 C 87.617188 -56.582031 89.328125 -49.640625 89.328125 -42.203125 C 89.328125 -33.109375 87.25 -25.164062 83.09375 -18.375 C 78.945312 -11.582031 73.625 -6.390625 67.125 -2.796875 C 60.632812 0.796875 54.097656 2.59375 47.515625 2.59375 Z M 47.390625 -3.109375 C 53.273438 -3.109375 58.1875 -4.863281 62.125 -8.375 C 66.0625 -11.882812 69.003906 -16.601562 70.953125 -22.53125 C 72.898438 -28.457031 73.875 -35.015625 73.875 -42.203125 C 73.875 -48.867188 72.878906 -54.992188 70.890625 -60.578125 C 68.898438 -66.160156 65.914062 -70.613281 61.9375 -73.9375 C 57.957031 -77.269531 53.109375 -78.9375 47.390625 -78.9375 C 38.734375 -78.9375 32.21875 -75.28125 27.84375 -67.96875 C 23.476562 -60.65625 21.296875 -51.414062 21.296875 -40.25 C 21.296875 -33.5 22.269531 -27.3125 24.21875 -21.6875 C 26.164062 -16.0625 29.085938 -11.554688 32.984375 -8.171875 C 36.878906 -4.796875 41.679688 -3.109375 47.390625 -3.109375 Z M 47.390625 -3.109375 "/></g></g></g><g fill="#000000" fill-opacity="1"><g transform="translate(1615.464553, 118.887435)"><g><path d="M 55.578125 0.65625 C 54.273438 0.65625 53.363281 0.21875 52.84375 -0.65625 L 23.625 -66.734375 L 23.234375 -66.734375 L 23.5 -15.1875 C 23.582031 -12.851562 23.753906 -11.054688 24.015625 -9.796875 C 24.273438 -8.546875 24.988281 -7.460938 26.15625 -6.546875 C 27.332031 -5.640625 29.175781 -5.1875 31.6875 -5.1875 L 32.453125 -5.1875 C 33.328125 -5.1875 33.957031 -5.035156 34.34375 -4.734375 C 34.726562 -4.429688 34.96875 -3.675781 35.0625 -2.46875 C 35.0625 -1.6875 34.863281 -1.015625 34.46875 -0.453125 C 34.082031 0.109375 33.5 0.390625 32.71875 0.390625 L 29.46875 0.265625 C 25.488281 0.0859375 22.632812 0 20.90625 0 C 17.957031 0 13.671875 0.128906 8.046875 0.390625 C 7.265625 0.390625 6.679688 0.109375 6.296875 -0.453125 C 5.910156 -1.015625 5.71875 -1.6875 5.71875 -2.46875 C 5.800781 -3.769531 6.054688 -4.546875 6.484375 -4.796875 C 6.921875 -5.054688 7.742188 -5.1875 8.953125 -5.1875 C 11.460938 -5.1875 13.300781 -5.640625 14.46875 -6.546875 C 15.644531 -7.460938 16.363281 -8.546875 16.625 -9.796875 C 16.882812 -11.054688 17.054688 -12.851562 17.140625 -15.1875 L 17.40625 -66.734375 C 17.40625 -69.421875 17.097656 -71.4375 16.484375 -72.78125 C 15.878906 -74.125 14.992188 -75.078125 13.828125 -75.640625 C 12.660156 -76.203125 10.953125 -76.695312 8.703125 -77.125 C 8.359375 -77.207031 7.835938 -77.3125 7.140625 -77.4375 C 6.453125 -77.570312 6 -77.832031 5.78125 -78.21875 C 5.5625 -78.613281 5.453125 -79.242188 5.453125 -80.109375 C 5.453125 -81.148438 5.734375 -81.84375 6.296875 -82.1875 C 6.859375 -82.53125 7.742188 -82.703125 8.953125 -82.703125 C 14.066406 -82.703125 18.265625 -82.378906 21.546875 -81.734375 C 24.835938 -81.085938 27.71875 -79.769531 30.1875 -77.78125 C 32.65625 -75.789062 34.710938 -72.847656 36.359375 -68.953125 L 58.6875 -18.828125 L 59.078125 -18.828125 L 84.65625 -81.9375 L 92.0625 -81.9375 C 96.820312 -81.9375 101.972656 -82.066406 107.515625 -82.328125 C 108.285156 -82.328125 108.863281 -82.046875 109.25 -81.484375 C 109.644531 -80.921875 109.84375 -80.25 109.84375 -79.46875 C 109.757812 -78.164062 109.476562 -77.382812 109 -77.125 C 108.53125 -76.863281 107.734375 -76.734375 106.609375 -76.734375 C 104.097656 -76.734375 102.234375 -76.28125 101.015625 -75.375 C 99.804688 -74.46875 99.050781 -73.34375 98.75 -72 C 98.445312 -70.65625 98.25 -68.898438 98.15625 -66.734375 L 98.15625 -15.1875 C 98.25 -13.03125 98.445312 -11.28125 98.75 -9.9375 C 99.050781 -8.59375 99.804688 -7.460938 101.015625 -6.546875 C 102.234375 -5.640625 104.097656 -5.1875 106.609375 -5.1875 L 107.375 -5.1875 C 108.15625 -5.1875 108.738281 -5.035156 109.125 -4.734375 C 109.519531 -4.429688 109.757812 -3.675781 109.84375 -2.46875 C 109.84375 -1.6875 109.644531 -1.015625 109.25 -0.453125 C 108.863281 0.109375 108.285156 0.390625 107.515625 0.390625 C 101.972656 0.128906 96.773438 0 91.921875 0 C 86.898438 0 81.578125 0.128906 75.953125 0.390625 C 75.179688 0.390625 74.597656 0.109375 74.203125 -0.453125 C 73.816406 -1.015625 73.625 -1.6875 73.625 -2.46875 C 73.707031 -3.769531 73.960938 -4.546875 74.390625 -4.796875 C 74.828125 -5.054688 75.65625 -5.1875 76.875 -5.1875 C 79.382812 -5.1875 81.242188 -5.640625 82.453125 -6.546875 C 83.660156 -7.460938 84.414062 -8.59375 84.71875 -9.9375 C 85.019531 -11.28125 85.21875 -13.03125 85.3125 -15.1875 L 85.3125 -66.734375 L 84.921875 -66.734375 L 58.171875 -0.65625 C 57.828125 0.21875 56.960938 0.65625 55.578125 0.65625 Z M 55.578125 0.65625 "/></g></g></g><g fill="#000000" fill-opacity="1"><g transform="translate(1764.265667, 118.887435)"><g><path d="M 0.78125 0.390625 C 0 0.390625 -0.582031 0.109375 -0.96875 -0.453125 C -1.363281 -1.015625 -1.5625 -1.6875 -1.5625 -2.46875 C -1.46875 -3.769531 -1.203125 -4.546875 -0.765625 -4.796875 C -0.335938 -5.054688 0.175781 -5.1875 0.78125 -5.1875 C 1.382812 -5.1875 1.773438 -5.1875 1.953125 -5.1875 C 4.546875 -5.1875 6.445312 -5.859375 7.65625 -7.203125 C 8.875 -8.546875 9.847656 -10.0625 10.578125 -11.75 C 11.316406 -13.4375 11.816406 -14.582031 12.078125 -15.1875 L 34.796875 -68.953125 C 35.316406 -70.242188 35.578125 -71.28125 35.578125 -72.0625 C 35.578125 -73.625 34.96875 -74.75 33.75 -75.4375 C 32.539062 -76.132812 30.859375 -76.695312 28.703125 -77.125 C 27.222656 -77.382812 26.3125 -77.644531 25.96875 -77.90625 C 25.625 -78.164062 25.453125 -78.898438 25.453125 -80.109375 C 25.453125 -81.148438 25.734375 -81.84375 26.296875 -82.1875 C 26.859375 -82.53125 27.742188 -82.703125 28.953125 -82.703125 C 33.285156 -82.703125 36.726562 -82.378906 39.28125 -81.734375 C 41.832031 -81.085938 44.0625 -79.789062 45.96875 -77.84375 C 47.875 -75.894531 49.644531 -72.929688 51.28125 -68.953125 L 73.109375 -15.1875 C 74.398438 -11.894531 75.648438 -9.425781 76.859375 -7.78125 C 78.078125 -6.144531 79.898438 -5.28125 82.328125 -5.1875 L 83.09375 -5.1875 C 83.957031 -5.1875 84.5625 -5.035156 84.90625 -4.734375 C 85.257812 -4.429688 85.476562 -3.675781 85.5625 -2.46875 C 85.5625 -1.6875 85.363281 -1.015625 84.96875 -0.453125 C 84.582031 0.109375 84.003906 0.390625 83.234375 0.390625 C 77.691406 0.128906 72.929688 0 68.953125 0 C 63.753906 0 58.382812 0.128906 52.84375 0.390625 C 52.0625 0.390625 51.476562 0.109375 51.09375 -0.453125 C 50.707031 -1.015625 50.515625 -1.6875 50.515625 -2.46875 C 50.597656 -3.675781 50.8125 -4.429688 51.15625 -4.734375 C 51.5 -5.035156 52.101562 -5.1875 52.96875 -5.1875 C 55.914062 -5.1875 57.992188 -5.46875 59.203125 -6.03125 C 60.421875 -6.59375 61.03125 -7.613281 61.03125 -9.09375 C 61.03125 -10.21875 60.507812 -12.25 59.46875 -15.1875 L 55.046875 -25.96875 L 22.984375 -25.96875 C 20.816406 -20.601562 19.582031 -17.488281 19.28125 -16.625 C 18.976562 -15.757812 18.828125 -15.28125 18.828125 -15.1875 C 17.785156 -11.894531 17.265625 -9.773438 17.265625 -8.828125 C 17.265625 -7.359375 17.914062 -6.382812 19.21875 -5.90625 C 20.519531 -5.425781 22.988281 -5.1875 26.625 -5.1875 L 27.390625 -5.1875 C 28.265625 -5.1875 28.875 -5.035156 29.21875 -4.734375 C 29.5625 -4.429688 29.773438 -3.675781 29.859375 -2.46875 C 29.859375 -1.6875 29.664062 -1.015625 29.28125 -0.453125 C 28.894531 0.109375 28.3125 0.390625 27.53125 0.390625 C 21.988281 0.128906 17.269531 0 13.375 0 C 10.601562 0 6.40625 0.128906 0.78125 0.390625 Z M 25.453125 -31.546875 L 52.71875 -31.546875 L 39.609375 -64.921875 L 39.21875 -64.921875 Z M 25.453125 -31.546875 "/></g></g></g><g fill="#000000" fill-opacity="1"><g transform="translate(1882.424088, 118.887435)"><g><path d="M 7.921875 0.390625 C 7.140625 0.390625 6.550781 0.109375 6.15625 -0.453125 C 5.769531 -1.015625 5.578125 -1.6875 5.578125 -2.46875 C 5.671875 -3.769531 5.929688 -4.546875 6.359375 -4.796875 C 6.796875 -5.054688 7.617188 -5.1875 8.828125 -5.1875 C 11.335938 -5.1875 13.195312 -5.640625 14.40625 -6.546875 C 15.625 -7.460938 16.382812 -8.59375 16.6875 -9.9375 C 16.988281 -11.28125 17.179688 -13.03125 17.265625 -15.1875 L 17.265625 -66.734375 C 17.179688 -68.898438 16.988281 -70.65625 16.6875 -72 C 16.382812 -73.34375 15.625 -74.46875 14.40625 -75.375 C 13.195312 -76.28125 11.335938 -76.734375 8.828125 -76.734375 L 8.046875 -76.734375 C 7.179688 -76.734375 6.578125 -76.882812 6.234375 -77.1875 C 5.890625 -77.488281 5.671875 -78.25 5.578125 -79.46875 C 5.578125 -80.25 5.769531 -80.921875 6.15625 -81.484375 C 6.550781 -82.046875 7.140625 -82.328125 7.921875 -82.328125 C 13.546875 -82.066406 18.648438 -81.9375 23.234375 -81.9375 C 28.429688 -81.9375 33.84375 -82.066406 39.46875 -82.328125 C 40.25 -82.328125 40.832031 -82.046875 41.21875 -81.484375 C 41.613281 -80.921875 41.8125 -80.25 41.8125 -79.46875 C 41.726562 -78.164062 41.46875 -77.382812 41.03125 -77.125 C 40.59375 -76.863281 39.769531 -76.734375 38.5625 -76.734375 C 36.050781 -76.734375 34.1875 -76.28125 32.96875 -75.375 C 31.757812 -74.46875 31.003906 -73.34375 30.703125 -72 C 30.398438 -70.65625 30.207031 -68.898438 30.125 -66.734375 L 30.125 -43.75 L 70.890625 -43.75 L 70.890625 -66.734375 C 70.804688 -68.898438 70.613281 -70.65625 70.3125 -72 C 70.007812 -73.34375 69.25 -74.46875 68.03125 -75.375 C 66.820312 -76.28125 64.960938 -76.734375 62.453125 -76.734375 L 61.671875 -76.734375 C 60.804688 -76.734375 60.175781 -76.882812 59.78125 -77.1875 C 59.394531 -77.488281 59.160156 -78.25 59.078125 -79.46875 C 59.078125 -80.25 59.289062 -80.921875 59.71875 -81.484375 C 60.15625 -82.046875 60.722656 -82.328125 61.421875 -82.328125 C 67.046875 -82.066406 72.453125 -81.9375 77.640625 -81.9375 C 82.398438 -81.9375 87.550781 -82.066406 93.09375 -82.328125 C 93.875 -82.328125 94.457031 -82.046875 94.84375 -81.484375 C 95.238281 -80.921875 95.4375 -80.25 95.4375 -79.46875 C 95.351562 -78.164062 95.070312 -77.382812 94.59375 -77.125 C 94.113281 -76.863281 93.3125 -76.734375 92.1875 -76.734375 C 89.675781 -76.734375 87.789062 -76.28125 86.53125 -75.375 C 85.28125 -74.46875 84.503906 -73.34375 84.203125 -72 C 83.898438 -70.65625 83.707031 -68.898438 83.625 -66.734375 L 83.625 -15.1875 C 83.707031 -13.03125 83.898438 -11.28125 84.203125 -9.9375 C 84.503906 -8.59375 85.28125 -7.460938 86.53125 -6.546875 C 87.789062 -5.640625 89.675781 -5.1875 92.1875 -5.1875 L 92.96875 -5.1875 C 93.75 -5.1875 94.332031 -5.035156 94.71875 -4.734375 C 95.113281 -4.429688 95.351562 -3.675781 95.4375 -2.46875 C 95.4375 -1.6875 95.238281 -1.015625 94.84375 -0.453125 C 94.457031 0.109375 93.875 0.390625 93.09375 0.390625 C 87.550781 0.128906 82.359375 0 77.515625 0 C 72.410156 0 67.046875 0.128906 61.421875 0.390625 C 60.722656 0.390625 60.15625 0.109375 59.71875 -0.453125 C 59.289062 -1.015625 59.078125 -1.6875 59.078125 -2.46875 C 59.160156 -3.769531 59.441406 -4.546875 59.921875 -4.796875 C 60.398438 -5.054688 61.242188 -5.1875 62.453125 -5.1875 C 64.960938 -5.1875 66.820312 -5.640625 68.03125 -6.546875 C 69.25 -7.460938 70.007812 -8.59375 70.3125 -9.9375 C 70.613281 -11.28125 70.804688 -13.03125 70.890625 -15.1875 L 70.890625 -38.171875 L 30.125 -38.171875 L 30.125 -15.1875 C 30.207031 -13.03125 30.398438 -11.28125 30.703125 -9.9375 C 31.003906 -8.59375 31.757812 -7.460938 32.96875 -6.546875 C 34.1875 -5.640625 36.050781 -5.1875 38.5625 -5.1875 L 39.34375 -5.1875 C 40.207031 -5.1875 40.8125 -5.035156 41.15625 -4.734375 C 41.507812 -4.429688 41.726562 -3.675781 41.8125 -2.46875 C 41.8125 -1.6875 41.613281 -1.015625 41.21875 -0.453125 C 40.832031 0.109375 40.25 0.390625 39.46875 0.390625 C 33.925781 0.128906 28.5625 0 23.375 0 C 18.695312 0 13.546875 0.128906 7.921875 0.390625 Z M 7.921875 0.390625 "/></g></g></g></g></g><g transform="matrix(1, 0, 0, 1, 693, 1132)"><g clip-path="url(#3f3acd4d34)"><g fill="#000000" fill-opacity="1"><g transform="translate(1.307519, 102.1983)"><g><path d="M 9.125 0 C 6.5 0 5.1875 -1.347656 5.1875 -4.046875 C 5.257812 -5.628906 5.6875 -6.90625 6.46875 -7.875 C 7.257812 -8.851562 8.554688 -9.945312 10.359375 -11.15625 C 16.296875 -15.132812 20.894531 -18.414062 24.15625 -21 C 27.425781 -23.59375 30.375 -26.878906 33 -30.859375 C 35.625 -34.835938 36.9375 -39.304688 36.9375 -44.265625 C 36.9375 -47.867188 35.976562 -50.664062 34.0625 -52.65625 C 32.15625 -54.644531 29.472656 -55.640625 26.015625 -55.640625 C 23.085938 -55.640625 20.664062 -54.90625 18.75 -53.4375 C 16.832031 -51.976562 15.875 -49.972656 15.875 -47.421875 C 15.875 -46.140625 16.175781 -45.066406 16.78125 -44.203125 C 17.382812 -43.335938 18.003906 -42.640625 18.640625 -42.109375 C 19.273438 -41.585938 19.59375 -41.289062 19.59375 -41.21875 C 19.59375 -40.695312 19.085938 -40.0625 18.078125 -39.3125 C 17.066406 -38.5625 15.847656 -38.1875 14.421875 -38.1875 C 12.085938 -38.1875 10.222656 -38.914062 8.828125 -40.375 C 7.441406 -41.84375 6.75 -43.703125 6.75 -45.953125 C 6.75 -48.953125 7.765625 -51.503906 9.796875 -53.609375 C 11.828125 -55.710938 14.398438 -57.25 17.515625 -58.21875 C 20.628906 -59.195312 23.800781 -59.6875 27.03125 -59.6875 C 32.664062 -59.6875 37.523438 -58.296875 41.609375 -55.515625 C 45.703125 -52.742188 47.75 -48.503906 47.75 -42.796875 C 47.75 -38.671875 46.625 -34.914062 44.375 -31.53125 C 42.125 -28.15625 39.4375 -25.285156 36.3125 -22.921875 C 33.195312 -20.554688 29.128906 -17.757812 24.109375 -14.53125 C 20.117188 -12.050781 17.148438 -10.0625 15.203125 -8.5625 L 15.203125 -8 L 45.390625 -8 C 47.265625 -8 48.632812 -7.789062 49.5 -7.375 C 50.363281 -6.957031 50.796875 -5.847656 50.796875 -4.046875 C 50.796875 -1.347656 49.484375 0 46.859375 0 Z M 9.125 0 "/></g></g></g><g fill="#000000" fill-opacity="1"><g transform="translate(85.555056, 102.1983)"><g><path d="M 25.34375 2.25 C 19.863281 2.25 15.226562 1.179688 11.4375 -0.953125 C 7.644531 -3.097656 5.75 -6.234375 5.75 -10.359375 C 5.75 -12.535156 6.421875 -14.410156 7.765625 -15.984375 C 9.117188 -17.566406 11 -18.359375 13.40625 -18.359375 C 14.832031 -18.359375 16.050781 -17.984375 17.0625 -17.234375 C 18.070312 -16.484375 18.578125 -15.84375 18.578125 -15.3125 C 18.578125 -15.238281 18.238281 -14.957031 17.5625 -14.46875 C 16.894531 -13.976562 16.273438 -13.320312 15.703125 -12.5 C 15.140625 -11.675781 14.859375 -10.625 14.859375 -9.34375 C 14.859375 -7.019531 15.851562 -5.203125 17.84375 -3.890625 C 19.832031 -2.578125 22.441406 -1.921875 25.671875 -1.921875 C 33.710938 -1.921875 37.734375 -6.382812 37.734375 -15.3125 C 37.734375 -18.988281 36.753906 -21.9375 34.796875 -24.15625 C 32.847656 -26.375 29.921875 -27.59375 26.015625 -27.8125 L 21.84375 -27.8125 C 21.320312 -27.8125 20.910156 -28.035156 20.609375 -28.484375 C 20.304688 -28.941406 20.15625 -29.472656 20.15625 -30.078125 C 20.15625 -30.742188 20.304688 -31.320312 20.609375 -31.8125 C 20.910156 -32.300781 21.320312 -32.582031 21.84375 -32.65625 L 26.015625 -32.65625 C 28.941406 -32.957031 31.285156 -34.269531 33.046875 -36.59375 C 34.816406 -38.925781 35.703125 -41.742188 35.703125 -45.046875 C 35.703125 -48.648438 34.6875 -51.410156 32.65625 -53.328125 C 30.632812 -55.242188 28.269531 -56.203125 25.5625 -56.203125 C 23.007812 -56.203125 20.8125 -55.46875 18.96875 -54 C 17.132812 -52.539062 16.21875 -50.535156 16.21875 -47.984375 C 16.21875 -46.328125 16.535156 -45.21875 17.171875 -44.65625 C 17.804688 -44.09375 18.425781 -43.753906 19.03125 -43.640625 C 19.632812 -43.523438 19.9375 -43.429688 19.9375 -43.359375 C 19.9375 -42.835938 19.425781 -42.195312 18.40625 -41.4375 C 17.394531 -40.6875 16.175781 -40.3125 14.75 -40.3125 C 12.351562 -40.3125 10.476562 -41.0625 9.125 -42.5625 C 7.769531 -44.070312 7.09375 -45.988281 7.09375 -48.3125 C 7.09375 -51.988281 8.816406 -54.84375 12.265625 -56.875 C 15.722656 -58.90625 20.191406 -59.921875 25.671875 -59.921875 C 31.535156 -59.921875 36.378906 -58.644531 40.203125 -56.09375 C 44.035156 -53.539062 45.953125 -49.859375 45.953125 -45.046875 C 45.953125 -41.890625 44.84375 -38.957031 42.625 -36.25 C 40.414062 -33.550781 37.242188 -31.640625 33.109375 -30.515625 L 33.109375 -30.078125 C 37.316406 -29.617188 40.957031 -28.28125 44.03125 -26.0625 C 47.113281 -23.851562 48.65625 -20.347656 48.65625 -15.546875 C 48.65625 -9.460938 46.4375 -4.972656 42 -2.078125 C 37.570312 0.804688 32.019531 2.25 25.34375 2.25 Z M 25.34375 2.25 "/></g></g></g><g fill="#000000" fill-opacity="1"><g transform="translate(169.352078, 102.1983)"><g><path d="M 12.390625 1.34375 C 10.359375 1.34375 8.664062 0.6875 7.3125 -0.625 C 5.96875 -1.9375 5.296875 -3.644531 5.296875 -5.75 C 5.296875 -7.695312 5.96875 -9.347656 7.3125 -10.703125 C 8.664062 -12.054688 10.394531 -12.734375 12.5 -12.734375 C 14.53125 -12.734375 16.238281 -12.054688 17.625 -10.703125 C 19.007812 -9.347656 19.703125 -7.695312 19.703125 -5.75 C 19.703125 -3.644531 19.007812 -1.9375 17.625 -0.625 C 16.238281 0.6875 14.492188 1.34375 12.390625 1.34375 Z M 12.390625 1.34375 "/></g></g></g><g fill="#000000" fill-opacity="1"><g transform="translate(223.302969, 102.1983)"><g><path d="M 33 2.25 C 27.144531 2.25 22.207031 0.820312 18.1875 -2.03125 C 14.164062 -4.882812 11.160156 -8.675781 9.171875 -13.40625 C 7.179688 -18.132812 6.1875 -23.273438 6.1875 -28.828125 C 6.1875 -34.460938 7.179688 -39.609375 9.171875 -44.265625 C 11.160156 -48.921875 14.164062 -52.65625 18.1875 -55.46875 C 22.207031 -58.28125 27.144531 -59.6875 33 -59.6875 C 38.550781 -59.6875 43.351562 -58.257812 47.40625 -55.40625 C 51.46875 -52.550781 54.546875 -48.757812 56.640625 -44.03125 C 58.742188 -39.300781 59.796875 -34.234375 59.796875 -28.828125 C 59.796875 -23.421875 58.742188 -18.351562 56.640625 -13.625 C 54.546875 -8.894531 51.46875 -5.066406 47.40625 -2.140625 C 43.351562 0.785156 38.550781 2.25 33 2.25 Z M 33.109375 -1.921875 C 38.140625 -1.921875 42.039062 -4.242188 44.8125 -8.890625 C 47.59375 -13.546875 48.984375 -20.191406 48.984375 -28.828125 C 48.984375 -37.460938 47.59375 -44.070312 44.8125 -48.65625 C 42.039062 -53.238281 38.140625 -55.53125 33.109375 -55.53125 C 27.929688 -55.53125 23.953125 -53.253906 21.171875 -48.703125 C 18.390625 -44.160156 17 -37.535156 17 -28.828125 C 17 -20.117188 18.390625 -13.457031 21.171875 -8.84375 C 23.953125 -4.226562 27.929688 -1.921875 33.109375 -1.921875 Z M 33.109375 -1.921875 "/></g></g></g><g fill="#000000" fill-opacity="1"><g transform="translate(318.13744, 102.1983)"><g><path d="M 18.125 2.25 C 17.15625 2.25 16.296875 1.816406 15.546875 0.953125 C 14.796875 0.0859375 14.421875 -1.09375 14.421875 -2.59375 C 14.421875 -5.894531 16.273438 -11.28125 19.984375 -18.75 C 23.703125 -26.21875 28.566406 -35.359375 34.578125 -46.171875 L 37.171875 -50.796875 L 17.453125 -50.796875 C 15.429688 -50.796875 13.910156 -50.644531 12.890625 -50.34375 C 11.878906 -50.039062 11.050781 -49.328125 10.40625 -48.203125 C 9.769531 -47.078125 9.304688 -45.3125 9.015625 -42.90625 C 8.859375 -42.3125 8.609375 -41.878906 8.265625 -41.609375 C 7.929688 -41.347656 7.316406 -41.21875 6.421875 -41.21875 C 5.140625 -41.21875 4.5 -41.859375 4.5 -43.140625 L 4.953125 -56.3125 C 4.953125 -57.96875 6.039062 -58.796875 8.21875 -58.796875 L 42.578125 -58.796875 C 44.753906 -58.796875 45.84375 -58.082031 45.84375 -56.65625 C 45.84375 -55.53125 45.015625 -53.578125 43.359375 -50.796875 C 40.578125 -46.140625 38.003906 -40.9375 35.640625 -35.1875 C 33.273438 -29.445312 30.664062 -22.632812 27.8125 -14.75 C 25.488281 -8.375 23.800781 -3.90625 22.75 -1.34375 C 21.625 1.050781 20.082031 2.25 18.125 2.25 Z M 18.125 2.25 "/></g></g></g><g fill="#000000" fill-opacity="1"><g transform="translate(395.064212, 102.1983)"><g><path d="M 12.390625 1.34375 C 10.359375 1.34375 8.664062 0.6875 7.3125 -0.625 C 5.96875 -1.9375 5.296875 -3.644531 5.296875 -5.75 C 5.296875 -7.695312 5.96875 -9.347656 7.3125 -10.703125 C 8.664062 -12.054688 10.394531 -12.734375 12.5 -12.734375 C 14.53125 -12.734375 16.238281 -12.054688 17.625 -10.703125 C 19.007812 -9.347656 19.703125 -7.695312 19.703125 -5.75 C 19.703125 -3.644531 19.007812 -1.9375 17.625 -0.625 C 16.238281 0.6875 14.492188 1.34375 12.390625 1.34375 Z M 12.390625 1.34375 "/></g></g></g><g fill="#000000" fill-opacity="1"><g transform="translate(449.015147, 102.1983)"><g><path d="M 9.125 0 C 6.5 0 5.1875 -1.347656 5.1875 -4.046875 C 5.257812 -5.628906 5.6875 -6.90625 6.46875 -7.875 C 7.257812 -8.851562 8.554688 -9.945312 10.359375 -11.15625 C 16.296875 -15.132812 20.894531 -18.414062 24.15625 -21 C 27.425781 -23.59375 30.375 -26.878906 33 -30.859375 C 35.625 -34.835938 36.9375 -39.304688 36.9375 -44.265625 C 36.9375 -47.867188 35.976562 -50.664062 34.0625 -52.65625 C 32.15625 -54.644531 29.472656 -55.640625 26.015625 -55.640625 C 23.085938 -55.640625 20.664062 -54.90625 18.75 -53.4375 C 16.832031 -51.976562 15.875 -49.972656 15.875 -47.421875 C 15.875 -46.140625 16.175781 -45.066406 16.78125 -44.203125 C 17.382812 -43.335938 18.003906 -42.640625 18.640625 -42.109375 C 19.273438 -41.585938 19.59375 -41.289062 19.59375 -41.21875 C 19.59375 -40.695312 19.085938 -40.0625 18.078125 -39.3125 C 17.066406 -38.5625 15.847656 -38.1875 14.421875 -38.1875 C 12.085938 -38.1875 10.222656 -38.914062 8.828125 -40.375 C 7.441406 -41.84375 6.75 -43.703125 6.75 -45.953125 C 6.75 -48.953125 7.765625 -51.503906 9.796875 -53.609375 C 11.828125 -55.710938 14.398438 -57.25 17.515625 -58.21875 C 20.628906 -59.195312 23.800781 -59.6875 27.03125 -59.6875 C 32.664062 -59.6875 37.523438 -58.296875 41.609375 -55.515625 C 45.703125 -52.742188 47.75 -48.503906 47.75 -42.796875 C 47.75 -38.671875 46.625 -34.914062 44.375 -31.53125 C 42.125 -28.15625 39.4375 -25.285156 36.3125 -22.921875 C 33.195312 -20.554688 29.128906 -17.757812 24.109375 -14.53125 C 20.117188 -12.050781 17.148438 -10.0625 15.203125 -8.5625 L 15.203125 -8 L 45.390625 -8 C 47.265625 -8 48.632812 -7.789062 49.5 -7.375 C 50.363281 -6.957031 50.796875 -5.847656 50.796875 -4.046875 C 50.796875 -1.347656 49.484375 0 46.859375 0 Z M 9.125 0 "/></g></g></g><g fill="#000000" fill-opacity="1"><g transform="translate(533.262651, 102.1983)"><g><path d="M 33 2.25 C 27.144531 2.25 22.207031 0.820312 18.1875 -2.03125 C 14.164062 -4.882812 11.160156 -8.675781 9.171875 -13.40625 C 7.179688 -18.132812 6.1875 -23.273438 6.1875 -28.828125 C 6.1875 -34.460938 7.179688 -39.609375 9.171875 -44.265625 C 11.160156 -48.921875 14.164062 -52.65625 18.1875 -55.46875 C 22.207031 -58.28125 27.144531 -59.6875 33 -59.6875 C 38.550781 -59.6875 43.351562 -58.257812 47.40625 -55.40625 C 51.46875 -52.550781 54.546875 -48.757812 56.640625 -44.03125 C 58.742188 -39.300781 59.796875 -34.234375 59.796875 -28.828125 C 59.796875 -23.421875 58.742188 -18.351562 56.640625 -13.625 C 54.546875 -8.894531 51.46875 -5.066406 47.40625 -2.140625 C 43.351562 0.785156 38.550781 2.25 33 2.25 Z M 33.109375 -1.921875 C 38.140625 -1.921875 42.039062 -4.242188 44.8125 -8.890625 C 47.59375 -13.546875 48.984375 -20.191406 48.984375 -28.828125 C 48.984375 -37.460938 47.59375 -44.070312 44.8125 -48.65625 C 42.039062 -53.238281 38.140625 -55.53125 33.109375 -55.53125 C 27.929688 -55.53125 23.953125 -53.253906 21.171875 -48.703125 C 18.390625 -44.160156 17 -37.535156 17 -28.828125 C 17 -20.117188 18.390625 -13.457031 21.171875 -8.84375 C 23.953125 -4.226562 27.929688 -1.921875 33.109375 -1.921875 Z M 33.109375 -1.921875 "/></g></g></g><g fill="#000000" fill-opacity="1"><g transform="translate(628.0971, 102.1983)"><g><path d="M 9.125 0 C 6.5 0 5.1875 -1.347656 5.1875 -4.046875 C 5.257812 -5.628906 5.6875 -6.90625 6.46875 -7.875 C 7.257812 -8.851562 8.554688 -9.945312 10.359375 -11.15625 C 16.296875 -15.132812 20.894531 -18.414062 24.15625 -21 C 27.425781 -23.59375 30.375 -26.878906 33 -30.859375 C 35.625 -34.835938 36.9375 -39.304688 36.9375 -44.265625 C 36.9375 -47.867188 35.976562 -50.664062 34.0625 -52.65625 C 32.15625 -54.644531 29.472656 -55.640625 26.015625 -55.640625 C 23.085938 -55.640625 20.664062 -54.90625 18.75 -53.4375 C 16.832031 -51.976562 15.875 -49.972656 15.875 -47.421875 C 15.875 -46.140625 16.175781 -45.066406 16.78125 -44.203125 C 17.382812 -43.335938 18.003906 -42.640625 18.640625 -42.109375 C 19.273438 -41.585938 19.59375 -41.289062 19.59375 -41.21875 C 19.59375 -40.695312 19.085938 -40.0625 18.078125 -39.3125 C 17.066406 -38.5625 15.847656 -38.1875 14.421875 -38.1875 C 12.085938 -38.1875 10.222656 -38.914062 8.828125 -40.375 C 7.441406 -41.84375 6.75 -43.703125 6.75 -45.953125 C 6.75 -48.953125 7.765625 -51.503906 9.796875 -53.609375 C 11.828125 -55.710938 14.398438 -57.25 17.515625 -58.21875 C 20.628906 -59.195312 23.800781 -59.6875 27.03125 -59.6875 C 32.664062 -59.6875 37.523438 -58.296875 41.609375 -55.515625 C 45.703125 -52.742188 47.75 -48.503906 47.75 -42.796875 C 47.75 -38.671875 46.625 -34.914062 44.375 -31.53125 C 42.125 -28.15625 39.4375 -25.285156 36.3125 -22.921875 C 33.195312 -20.554688 29.128906 -17.757812 24.109375 -14.53125 C 20.117188 -12.050781 17.148438 -10.0625 15.203125 -8.5625 L 15.203125 -8 L 45.390625 -8 C 47.265625 -8 48.632812 -7.789062 49.5 -7.375 C 50.363281 -6.957031 50.796875 -5.847656 50.796875 -4.046875 C 50.796875 -1.347656 49.484375 0 46.859375 0 Z M 9.125 0 "/></g></g></g><g fill="#000000" fill-opacity="1"><g transform="translate(712.344648, 102.1983)"><g><path d="M 29.390625 2.25 C 22.265625 2.25 16.578125 0.0351562 12.328125 -4.390625 C 8.085938 -8.816406 5.96875 -14.863281 5.96875 -22.53125 C 5.96875 -28.601562 7.410156 -34.269531 10.296875 -39.53125 C 13.191406 -44.789062 17.265625 -49.203125 22.515625 -52.765625 C 27.773438 -56.328125 33.785156 -58.710938 40.546875 -59.921875 C 40.921875 -59.992188 41.484375 -60.03125 42.234375 -60.03125 C 43.734375 -60.03125 44.484375 -59.351562 44.484375 -58 C 44.484375 -56.800781 43.804688 -56.015625 42.453125 -55.640625 C 28.710938 -51.359375 20.53125 -43.660156 17.90625 -32.546875 C 20.382812 -34.203125 22.84375 -35.363281 25.28125 -36.03125 C 27.71875 -36.707031 30.253906 -37.046875 32.890625 -37.046875 C 36.492188 -37.046875 39.796875 -36.238281 42.796875 -34.625 C 45.796875 -33.007812 48.160156 -30.796875 49.890625 -27.984375 C 51.617188 -25.171875 52.484375 -21.960938 52.484375 -18.359375 C 52.484375 -14.304688 51.394531 -10.71875 49.21875 -7.59375 C 47.039062 -4.476562 44.1875 -2.054688 40.65625 -0.328125 C 37.125 1.390625 33.367188 2.25 29.390625 2.25 Z M 29.390625 -1.34375 C 32.921875 -1.34375 35.847656 -2.828125 38.171875 -5.796875 C 40.503906 -8.765625 41.671875 -12.613281 41.671875 -17.34375 C 41.671875 -21.769531 40.503906 -25.316406 38.171875 -27.984375 C 35.847656 -30.648438 32.8125 -31.984375 29.0625 -31.984375 C 27.175781 -31.984375 25.21875 -31.515625 23.1875 -30.578125 C 21.164062 -29.640625 19.253906 -28.382812 17.453125 -26.8125 C 17.003906 -25.007812 16.78125 -23.539062 16.78125 -22.40625 C 16.78125 -19.40625 17.171875 -16.289062 17.953125 -13.0625 C 18.742188 -9.832031 20.097656 -7.070312 22.015625 -4.78125 C 23.929688 -2.488281 26.390625 -1.34375 29.390625 -1.34375 Z M 29.390625 -1.34375 "/></g></g></g></g></g><g clip-path="url(#82d61c8e95)"><g clip-path="url(#44052e427b)"><g clip-path="url(#785bd04a9c)"><path fill="#000000" d="M 1406.359375 457.203125 C 1362.617188 438.050781 1308.304688 452.21875 1267.847656 479.746094 C 1268.644531 477.183594 1269.304688 472.960938 1269.476562 469.378906 C 1270.164062 454.609375 1268.65625 445.472656 1267.761719 441.082031 C 1256.359375 384.628906 1201.5 352.703125 1142.824219 365.457031 C 1099.09375 375.117188 1057.445312 408.398438 1033.523438 447.632812 C 982.421875 523.800781 970.355469 612.617188 980.074219 699.789062 C 981.753906 723.609375 988.703125 747.421875 996.871094 769.746094 C 1005.03125 792.042969 1015.699219 814.316406 1033.902344 830.292969 C 1055.414062 849.171875 1084.128906 858.9375 1112.554688 853.8125 C 1135.355469 850.472656 1184.261719 834.4375 1202.835938 823.378906 C 1204.910156 821.929688 1214.296875 817.730469 1216.230469 816.027344 C 1282.265625 782.28125 1343.425781 736.257812 1389.304688 677.566406 C 1439.066406 617.324219 1484.222656 504.324219 1406.359375 457.203125 Z M 1392.945312 669.734375 C 1350.820312 725.984375 1282.597656 779.378906 1217.214844 812.300781 C 1194.054688 824.527344 1169.941406 835.355469 1144.699219 842.511719 C 1120.292969 849.433594 1091.714844 854.164062 1066.871094 846.679688 C 1038.679688 838.175781 1022.503906 814.574219 1010.023438 789.484375 C 985.195312 739.585938 979.175781 682.078125 982.394531 627.070312 C 986.460938 557.910156 1006.84375 486.648438 1052.234375 432.070312 C 1097.929688 373.257812 1192.699219 343.582031 1242.355469 399.191406 C 1249.472656 407.152344 1263.101562 424.917969 1265.660156 460.859375 C 1266.285156 469.640625 1265.671875 474.332031 1263.71875 482.199219 C 1249.328125 492.027344 1225.933594 515.597656 1227.625 531.867188 C 1230.558594 540.421875 1239.882812 541.605469 1246.496094 532.878906 C 1254.429688 522.804688 1263.992188 500.792969 1266.929688 487.871094 C 1271.582031 484.878906 1279.144531 480.605469 1286.695312 476.640625 C 1296.695312 471.386719 1313.375 463.410156 1335.90625 458.546875 C 1468.941406 429.796875 1466.566406 580.589844 1392.945312 669.734375 Z M 1235.035156 532.757812 C 1227.859375 535.777344 1228.023438 528.335938 1230.222656 522.375 C 1233.714844 512.421875 1252.300781 494.222656 1260.199219 489.359375 C 1254.660156 506.09375 1246.6875 527.945312 1235.035156 532.757812 Z M 1235.035156 532.757812 " fill-opacity="1" fill-rule="nonzero"/></g></g></g><g clip-path="url(#5bb99b4e18)"><g clip-path="url(#53357c0015)"><g transform="matrix(1, 0, 0, 1, 666, 298)"><g clip-path="url(#96ba3f99e6)"><g clip-path="url(#c7e8df3e6d)"><g clip-path="url(#0f94d40202)"><g clip-path="url(#1d635033ad)"><path fill="#000000" d="M 291.453125 48.410156 C 253.601562 62.605469 238.675781 100.628906 234.105469 138.183594 C 233.375 160.746094 234.578125 186.5625 223.453125 206.375 C 216.453125 218.796875 202.769531 223.527344 189.09375 224.324219 C 169.878906 225.707031 147.714844 222.773438 128.082031 228.28125 C 97.207031 236.015625 76.195312 264.367188 73.378906 295.640625 C 69.214844 336.21875 87.835938 375.765625 113.566406 406.285156 C 145.707031 444.199219 187.03125 469.492188 230.03125 493.785156 C 285.417969 524.050781 354.425781 565.144531 418.539062 562.695312 C 434.449219 561.933594 451.445312 558.101562 465.726562 553.050781 C 466.320312 552.832031 466.898438 552.628906 467.417969 552.410156 C 471.28125 550.914062 473.101562 549.867188 471.90625 549.617188 C 467.273438 549.632812 456.101562 551.933594 449.167969 553.082031 C 436.480469 555.246094 423.015625 557.039062 409.34375 556.605469 C 359.480469 554.292969 313.496094 530.917969 270.0625 508.0625 C 241.5625 492.601562 213.433594 476.351562 186.277344 458.660156 C 156.289062 439.011719 127.378906 416.351562 106.445312 387.191406 C 74.03125 344.8125 57.746094 264.972656 115.65625 237.179688 C 126.230469 232.246094 137.96875 230.210938 149.585938 229.679688 C 168.296875 228.582031 186.582031 231.179688 204.453125 226.136719 C 217.207031 222.578125 225.332031 212.738281 229.34375 200.40625 C 235.074219 183.265625 235.574219 165.226562 238.632812 146.714844 C 240.335938 136.070312 242.796875 125.492188 246.476562 115.394531 C 269.671875 49.480469 338.839844 35.691406 392.589844 76.40625 C 480.226562 145.835938 482.527344 284.011719 457.941406 384.394531 C 456.4375 391.175781 454.726562 398.242188 453.3125 404.867188 C 453.011719 406.242188 452.78125 407.351562 452.648438 408.199219 C 452.441406 409.613281 452.121094 411.148438 452.941406 409.136719 C 454.375 405.546875 455.421875 401.105469 457.800781 392.960938 C 481.855469 307.152344 485.625 208.410156 442.910156 128.3125 C 435.195312 113.5625 426.328125 99.421875 417.429688 85.300781 C 387.421875 50.015625 335.925781 30.226562 291.453125 48.410156 Z M 447.027344 426.816406 C 447.914062 424.761719 448.144531 423.308594 447.011719 425.105469 C 446.636719 425.472656 443.800781 431.386719 444.714844 430.980469 C 445.71875 429.882812 446.371094 428.253906 447.003906 426.855469 Z M 447.027344 426.816406 " fill-opacity="1" fill-rule="nonzero"/></g></g></g></g></g></g></g><g transform="matrix(1, 0, 0, 1, 126, 271)"><g clip-path="url(#67914162c3)"><g fill="#000000" fill-opacity="1"><g transform="translate(42.332177, 419.059132)"><g><path d="M -2.359375 101.1875 C -7.691406 101.1875 -13.882812 99.539062 -20.9375 96.25 C -28 92.957031 -33.097656 87.234375 -36.234375 79.078125 C -37.804688 74.992188 -38.59375 71.070312 -38.59375 67.3125 C -38.59375 58.207031 -35.296875 48.320312 -28.703125 37.65625 C -22.117188 26.988281 -13.492188 16.003906 -2.828125 4.703125 C 8.785156 -7.210938 23.847656 -20.703125 42.359375 -35.765625 C 60.867188 -50.828125 81.734375 -66.59375 104.953125 -83.0625 C 128.179688 -99.539062 152.660156 -115.9375 178.390625 -132.25 C 204.117188 -148.570312 230.082031 -163.945312 256.28125 -178.375 C 282.476562 -192.8125 307.734375 -205.519531 332.046875 -216.5 C 356.367188 -227.488281 378.804688 -235.960938 399.359375 -241.921875 C 419.910156 -247.890625 437.25 -250.398438 451.375 -249.453125 C 462.988281 -248.828125 472.953125 -243.492188 481.265625 -233.453125 C 489.578125 -223.410156 493.734375 -210.546875 493.734375 -194.859375 C 493.734375 -181.992188 491.613281 -167.632812 487.375 -151.78125 C 483.144531 -135.9375 477.65625 -119.695312 470.90625 -103.0625 C 464.15625 -86.4375 456.703125 -70.753906 448.546875 -56.015625 C 461.410156 -57.578125 473.722656 -59.847656 485.484375 -62.828125 C 497.253906 -65.816406 506.828125 -69.898438 514.203125 -75.078125 C 521.578125 -80.253906 524.953125 -86.609375 524.328125 -94.140625 L 524.328125 -95.078125 C 524.328125 -97.898438 524.957031 -99.3125 526.21875 -99.3125 C 528.40625 -99.3125 529.5 -96.800781 529.5 -91.78125 C 529.5 -83.3125 525.34375 -76.09375 517.03125 -70.125 C 508.71875 -64.164062 498.128906 -59.457031 485.265625 -56 C 472.398438 -52.550781 459.0625 -49.890625 445.25 -48.015625 C 443.375 -43.929688 441.019531 -37.96875 438.1875 -30.125 C 435.363281 -22.28125 433.484375 -15.535156 432.546875 -9.890625 C 432.234375 -8.941406 432.078125 -7.914062 432.078125 -6.8125 C 432.078125 -5.71875 432.078125 -4.546875 432.078125 -3.296875 C 432.078125 -0.160156 432.3125 2.660156 432.78125 5.171875 C 433.25 7.679688 433.484375 9.410156 433.484375 10.359375 C 434.117188 14.742188 432.628906 18.503906 429.015625 21.640625 C 425.410156 24.785156 421.878906 26.359375 418.421875 26.359375 C 414.035156 26.359375 411.6875 24.316406 411.375 20.234375 C 411.050781 19.609375 410.890625 17.882812 410.890625 15.0625 C 409.328125 10.664062 406.738281 5.253906 403.125 -1.171875 C 399.519531 -7.609375 395.753906 -13.960938 391.828125 -20.234375 C 387.910156 -26.515625 384.144531 -31.925781 380.53125 -36.46875 C 376.925781 -41.019531 374.335938 -43.453125 372.765625 -43.765625 C 370.578125 -44.398438 363.207031 -45.816406 350.65625 -48.015625 C 342.8125 -49.578125 332.691406 -51.300781 320.296875 -53.1875 C 307.898438 -55.070312 295.816406 -57.503906 284.046875 -60.484375 C 272.285156 -63.460938 262.796875 -66.992188 255.578125 -71.078125 C 246.785156 -76.097656 242.390625 -81.585938 242.390625 -87.546875 C 242.390625 -90.367188 243.175781 -92.722656 244.75 -94.609375 C 247.570312 -98.054688 251.257812 -100.5625 255.8125 -102.125 C 260.363281 -103.695312 265.617188 -104.484375 271.578125 -104.484375 C 280.679688 -104.484375 290.644531 -102.914062 301.46875 -99.78125 C 312.289062 -96.644531 322.957031 -92.566406 333.46875 -87.546875 C 343.976562 -82.523438 353.546875 -77.109375 362.171875 -71.296875 C 370.804688 -65.492188 377.320312 -59.769531 381.71875 -54.125 C 384.226562 -53.8125 387.363281 -53.578125 391.125 -53.421875 C 394.894531 -53.265625 399.132812 -53.1875 403.84375 -53.1875 C 413.25 -53.1875 423.601562 -53.65625 434.90625 -54.59375 C 441.488281 -70.601562 447.835938 -87.785156 453.953125 -106.140625 C 460.078125 -124.492188 465.097656 -142.21875 469.015625 -159.3125 C 472.941406 -176.414062 474.90625 -190.773438 474.90625 -202.390625 C 474.90625 -215.566406 471.375 -224.742188 464.3125 -229.921875 C 457.257812 -235.097656 448.238281 -237.6875 437.25 -237.6875 C 419.675781 -237.6875 400.144531 -234.234375 378.65625 -227.328125 C 357.164062 -220.429688 334.492188 -211.019531 310.640625 -199.09375 C 286.796875 -187.164062 262.632812 -173.515625 238.15625 -158.140625 C 213.6875 -142.765625 189.679688 -126.679688 166.140625 -109.890625 C 142.609375 -93.109375 120.566406 -76.398438 100.015625 -59.765625 C 79.460938 -43.140625 61.023438 -27.453125 44.703125 -12.703125 C 28.390625 2.035156 15.210938 14.898438 5.171875 25.890625 C -5.492188 37.492188 -10.828125 50.203125 -10.828125 64.015625 C -10.828125 69.660156 -9.648438 74.992188 -7.296875 80.015625 C -4.941406 85.035156 -1.253906 89.269531 3.765625 92.71875 C 5.960938 94.601562 7.0625 96.171875 7.0625 97.421875 C 7.0625 99.929688 3.921875 101.1875 -2.359375 101.1875 Z M 358.1875 -56.953125 C 353.476562 -60.398438 346.882812 -64.320312 338.40625 -68.71875 C 329.9375 -73.113281 320.914062 -77.035156 311.34375 -80.484375 C 301.78125 -83.929688 292.445312 -85.972656 283.34375 -86.609375 L 278.171875 -86.609375 C 271.265625 -86.609375 267.8125 -85.351562 267.8125 -82.84375 C 267.8125 -81.269531 269.144531 -79.460938 271.8125 -77.421875 C 274.476562 -75.378906 277.066406 -73.890625 279.578125 -72.953125 C 285.859375 -70.753906 294.015625 -68.476562 304.046875 -66.125 C 314.085938 -63.769531 324.207031 -61.726562 334.40625 -60 C 344.601562 -58.28125 352.53125 -57.265625 358.1875 -56.953125 Z M 417.015625 -1.875 C 417.328125 -3.757812 417.640625 -5.644531 417.953125 -7.53125 C 418.265625 -9.414062 418.578125 -11.457031 418.890625 -13.65625 C 420.148438 -18.988281 421.484375 -24.476562 422.890625 -30.125 C 424.304688 -35.769531 425.957031 -41.101562 427.84375 -46.125 C 420 -45.8125 412.625 -45.5 405.71875 -45.1875 C 398.8125 -44.875 393.003906 -44.875 388.296875 -45.1875 C 392.691406 -40.164062 397.632812 -33.734375 403.125 -25.890625 C 408.625 -18.046875 413.253906 -10.039062 417.015625 -1.875 Z M 417.015625 -1.875 "/></g></g></g></g></g><g transform="matrix(1, 0, 0, 1, 1439, 315)"><g clip-path="url(#a367107d95)"><g fill="#000000" fill-opacity="1"><g transform="translate(1.920175, 419.068923)"><g><path d="M 116.25 -72.953125 C 103.070312 -72.953125 90.128906 -74.597656 77.421875 -77.890625 C 64.710938 -81.191406 54.125 -86.609375 45.65625 -94.140625 C 37.1875 -101.671875 32.476562 -111.550781 31.53125 -123.78125 C 29.96875 -143.863281 36.875 -161.984375 52.25 -178.140625 C 67.625 -194.304688 89.585938 -208.503906 118.140625 -220.734375 C 146.691406 -232.972656 180.265625 -243.171875 218.859375 -251.328125 C 257.453125 -259.492188 299.5 -265.613281 345 -269.6875 C 390.5 -273.769531 437.722656 -275.8125 486.671875 -275.8125 C 508.953125 -275.8125 531.390625 -275.34375 553.984375 -274.40625 C 578.140625 -273.457031 602.140625 -271.257812 625.984375 -267.8125 C 649.835938 -264.363281 671.488281 -259.65625 690.9375 -253.6875 C 710.394531 -247.726562 726.003906 -240.828125 737.765625 -232.984375 C 749.535156 -225.140625 755.421875 -216.351562 755.421875 -206.625 C 755.421875 -198.78125 750.789062 -190.460938 741.53125 -181.671875 C 732.28125 -172.890625 717.144531 -163.632812 696.125 -153.90625 C 678.550781 -145.75 658.703125 -138.925781 636.578125 -133.4375 C 614.460938 -127.945312 591.710938 -123.789062 568.328125 -120.96875 C 544.953125 -118.144531 522.441406 -116.257812 500.796875 -115.3125 C 493.265625 -115 488.085938 -115.15625 485.265625 -115.78125 C 482.441406 -116.414062 481.03125 -117.359375 481.03125 -118.609375 C 481.03125 -120.179688 482.519531 -121.671875 485.5 -123.078125 C 488.476562 -124.492188 491.066406 -125.046875 493.265625 -124.734375 C 499.847656 -123.785156 507.222656 -123.3125 515.390625 -123.3125 C 531.390625 -123.3125 549.035156 -124.957031 568.328125 -128.25 C 587.628906 -131.550781 607.003906 -136.414062 626.453125 -142.84375 C 645.910156 -149.28125 663.800781 -157.046875 680.125 -166.140625 C 695.5 -174.617188 706.476562 -182.625 713.0625 -190.15625 C 719.65625 -197.6875 722.953125 -204.429688 722.953125 -210.390625 C 722.953125 -217.296875 719.421875 -223.570312 712.359375 -229.21875 C 705.296875 -234.863281 695.957031 -239.800781 684.34375 -244.03125 C 672.738281 -248.269531 659.875 -251.878906 645.75 -254.859375 C 631.632812 -257.847656 617.359375 -260.203125 602.921875 -261.921875 C 588.492188 -263.648438 575.160156 -264.828125 562.921875 -265.453125 C 552.253906 -266.085938 541.503906 -266.5625 530.671875 -266.875 C 519.847656 -267.1875 508.945312 -267.34375 497.96875 -267.34375 C 463.457031 -267.34375 428.394531 -265.929688 392.78125 -263.109375 C 357.164062 -260.285156 322.566406 -256.125 288.984375 -250.625 C 255.410156 -245.132812 224.113281 -238.3125 195.09375 -230.15625 C 166.070312 -222 140.5 -212.425781 118.375 -201.4375 C 96.25 -190.457031 78.988281 -178.066406 66.59375 -164.265625 C 54.207031 -150.460938 48.015625 -135.398438 48.015625 -119.078125 C 48.015625 -109.660156 50.441406 -102.285156 55.296875 -96.953125 C 60.160156 -91.617188 66.4375 -87.773438 74.125 -85.421875 C 81.8125 -83.066406 89.890625 -81.578125 98.359375 -80.953125 C 106.835938 -80.328125 114.6875 -80.015625 121.90625 -80.015625 C 124.414062 -80.015625 126.6875 -79.539062 128.71875 -78.59375 C 130.757812 -77.65625 131.78125 -76.5625 131.78125 -75.3125 C 131.78125 -74.363281 130.523438 -73.734375 128.015625 -73.421875 C 126.140625 -73.109375 124.179688 -72.953125 122.140625 -72.953125 C 120.097656 -72.953125 118.132812 -72.953125 116.25 -72.953125 Z M 421.25 10.359375 C 414.976562 9.722656 410.269531 6.816406 407.125 1.640625 C 403.988281 -3.535156 402.421875 -10.359375 402.421875 -18.828125 C 402.421875 -27.609375 404.378906 -37.882812 408.296875 -49.65625 C 412.222656 -61.425781 417.5625 -73.898438 424.3125 -87.078125 C 431.0625 -100.253906 438.515625 -112.960938 446.671875 -125.203125 C 456.398438 -139.941406 466.125 -153.664062 475.84375 -166.375 C 485.570312 -179.082031 494.90625 -189.28125 503.84375 -196.96875 C 512.789062 -204.65625 520.5625 -208.5 527.15625 -208.5 C 530.601562 -208.5 534.285156 -206.929688 538.203125 -203.796875 C 542.128906 -200.660156 544.09375 -197.523438 544.09375 -194.390625 C 544.09375 -192.191406 543.617188 -190.617188 542.671875 -189.671875 C 541.734375 -188.734375 540.953125 -187.953125 540.328125 -187.328125 C 531.859375 -182.617188 522.207031 -175.007812 511.375 -164.5 C 500.550781 -153.988281 489.492188 -141.984375 478.203125 -128.484375 C 466.910156 -114.992188 456.554688 -101.109375 447.140625 -86.828125 C 437.722656 -72.554688 430.113281 -59.066406 424.3125 -46.359375 C 418.507812 -33.648438 415.609375 -23.0625 415.609375 -14.59375 C 415.609375 -11.457031 416.078125 -8.160156 417.015625 -4.703125 C 417.953125 -1.253906 419.992188 1.253906 423.140625 2.828125 C 424.703125 3.453125 425.484375 4.863281 425.484375 7.0625 C 425.484375 9.570312 424.070312 10.671875 421.25 10.359375 Z M 421.25 10.359375 "/></g></g></g></g></g></svg>